<svg width="500" height="500" viewBox="0 0 500 500" fill="none" xmlns="http://www.w3.org/2000/svg">
<path d="M72.3882 284.207L68 291.887H120.659L117.368 284.207H72.3882Z" fill="url(#paint0_linear_1452_7831)"/>
<path d="M121.317 272.605V273H101.649V272.605L105.915 268.182L101.807 257.597H80.0067L76.5312 266.76L82.9292 272.605V273H68.3954V272.605L72.1869 266.76L88.5374 224.896L85.6938 218.103V217.708H98.3319L118.158 268.182L121.317 272.605ZM100.544 254.359L90.6701 229.083L81.1915 254.359H100.544ZM167.264 250.962C167.264 257.545 165.184 263.074 161.024 267.55C156.916 272.026 151.809 274.264 145.7 274.264C142.804 274.264 140.566 273.843 138.986 273V284.848L143.962 288.403V288.798H125.005V288.403L128.639 284.848V239.43L124.294 235.56V235.165L137.564 231.531H138.354L138.907 238.087H139.381C141.382 235.718 143.251 234.033 144.989 233.032C146.78 232.031 148.781 231.531 150.992 231.531C155.732 231.531 159.628 233.348 162.683 236.981C165.737 240.615 167.264 245.275 167.264 250.962ZM157.39 255.702C157.39 250.594 156.206 246.381 153.836 243.064C151.466 239.746 148.491 238.087 144.91 238.087C142.383 238.087 140.408 239.035 138.986 240.931V269.209C140.566 270.472 142.699 271.104 145.384 271.104C149.018 271.104 151.914 269.735 154.073 266.997C156.285 264.206 157.39 260.441 157.39 255.702ZM215.552 250.962C215.552 257.545 213.472 263.074 209.311 267.55C205.204 272.026 200.096 274.264 193.988 274.264C191.092 274.264 188.854 273.843 187.274 273V284.848L192.25 288.403V288.798H173.293V288.403L176.926 284.848V239.43L172.582 235.56V235.165L185.852 231.531H186.642L187.195 238.087H187.669C189.67 235.718 191.539 234.033 193.277 233.032C195.067 232.031 197.068 231.531 199.28 231.531C204.019 231.531 207.916 233.348 210.97 236.981C214.024 240.615 215.552 245.275 215.552 250.962ZM205.678 255.702C205.678 250.594 204.493 246.381 202.124 243.064C199.754 239.746 196.779 238.087 193.198 238.087C190.67 238.087 188.696 239.035 187.274 240.931V269.209C188.854 270.472 190.986 271.104 193.672 271.104C197.305 271.104 200.202 269.735 202.361 266.997C204.572 264.206 205.678 260.441 205.678 255.702ZM234.772 274.185C232.402 274.185 230.296 273.606 228.453 272.447C226.662 271.236 225.477 269.472 224.898 267.155V236.665H219.448V236.271L233.903 224.659H235.245V232.716H246.067L245.514 236.665H235.245V262.416C235.245 264.417 235.746 265.944 236.746 266.997C237.799 267.997 239.169 268.498 240.854 268.498C243.118 268.498 245.172 267.681 247.015 266.049L247.331 266.286C246.172 268.708 244.461 270.63 242.196 272.052C239.985 273.474 237.51 274.185 234.772 274.185ZM264.622 221.816C263.568 222.816 262.147 223.316 260.356 223.316C258.566 223.316 257.118 222.816 256.012 221.816C254.906 220.815 254.353 219.446 254.353 217.708C254.353 215.971 254.906 214.628 256.012 213.68C257.118 212.679 258.566 212.179 260.356 212.179C262.147 212.179 263.568 212.679 264.622 213.68C265.728 214.628 266.28 215.971 266.28 217.708C266.28 219.446 265.728 220.815 264.622 221.816ZM269.203 272.684V273H251.51V272.684L255.143 269.051V239.588L250.799 235.639V235.323L264.701 231.531H265.491V269.051L269.203 272.684ZM288.922 274.185C286.552 274.185 284.446 273.606 282.603 272.447C280.812 271.236 279.627 269.472 279.048 267.155V236.665H273.598V236.271L288.053 224.659H289.396V232.716H300.217L299.664 236.665H289.396V262.416C289.396 264.417 289.896 265.944 290.896 266.997C291.949 267.997 293.319 268.498 295.004 268.498C297.268 268.498 299.322 267.681 301.165 266.049L301.481 266.286C300.322 268.708 298.611 270.63 296.347 272.052C294.135 273.474 291.66 274.185 288.922 274.185ZM319.483 274.185C316.165 274.185 313.453 273.211 311.347 271.262C309.293 269.261 308.266 266.681 308.266 263.521V239.588L303.922 235.639V235.244L317.824 231.452H318.614V261.231C318.614 263.337 319.167 264.996 320.272 266.207C321.431 267.366 323.011 267.945 325.012 267.945C327.697 267.945 330.541 266.681 333.543 264.153V239.667L329.198 235.718V235.323L343.1 231.531H343.89V266.839L347.918 270.551V270.946L334.727 274.185L333.779 266.997H333.306C328.988 271.789 324.38 274.185 319.483 274.185ZM353.549 254.833C353.549 248.198 355.602 242.669 359.71 238.245C363.87 233.769 368.951 231.531 374.954 231.531C377.798 231.531 380.062 231.926 381.747 232.716V220.315L377.403 216.287V215.971L391.305 212.179H392.095V266.76L396.202 270.63V271.025L382.774 274.185L381.905 267.629H381.432C379.378 270.051 377.456 271.763 375.665 272.763C373.928 273.764 371.953 274.264 369.741 274.264C365.055 274.264 361.184 272.447 358.13 268.814C355.076 265.128 353.549 260.467 353.549 254.833ZM363.422 250.014C363.422 255.07 364.581 259.282 366.898 262.653C369.215 265.97 372.19 267.629 375.823 267.629C378.246 267.629 380.22 266.681 381.747 264.785V236.507C380.168 235.244 378.009 234.612 375.27 234.612C371.637 234.612 368.741 236.007 366.582 238.798C364.475 241.536 363.422 245.275 363.422 250.014ZM420.415 274.185C414.728 274.185 410.094 272.289 406.513 268.498C402.933 264.654 401.142 259.677 401.142 253.569C401.142 247.303 403.012 242.063 406.75 237.85C410.542 233.638 415.228 231.531 420.81 231.531C430.131 231.531 435.844 237.561 437.951 249.62H409.594C409.857 254.833 411.332 258.993 414.017 262.1C416.703 265.207 420.205 266.76 424.523 266.76C430.21 266.76 434.738 263.969 438.109 258.387L438.504 258.624C437.608 263.469 435.555 267.287 432.342 270.077C429.183 272.816 425.207 274.185 420.415 274.185ZM418.756 234.454C416.018 234.454 413.859 235.533 412.279 237.692C410.7 239.851 409.805 242.932 409.594 246.934H428.077C427.235 242.563 426.076 239.404 424.602 237.455C423.127 235.454 421.179 234.454 418.756 234.454Z" fill="url(#paint1_linear_1452_7831)"/>
<defs>
<linearGradient id="paint0_linear_1452_7831" x1="62.1595" y1="283.98" x2="68.976" y2="307.497" gradientUnits="userSpaceOnUse">
<stop stop-color="#8D5D14"/>
<stop offset="0.512707" stop-color="#FFD060"/>
<stop offset="1" stop-color="#8D5D14"/>
</linearGradient>
<linearGradient id="paint1_linear_1452_7831" x1="26.6302" y1="184.95" x2="171.115" y2="447.883" gradientUnits="userSpaceOnUse">
<stop stop-color="#8D5D14"/>
<stop offset="0.512707" stop-color="#FFD060"/>
<stop offset="1" stop-color="#8D5D14"/>
</linearGradient>
</defs>
</svg>
