<svg width="390" height="480" viewBox="0 0 390 480" fill="none" xmlns="http://www.w3.org/2000/svg">
<path d="M64.5127 393L60.0727 376.2H63.3607L66.3847 389.568L69.9367 376.2H73.3207L76.7767 389.568L79.8007 376.2H83.1127L78.5527 393H74.9047L71.5687 380.544L68.1367 393H64.5127ZM89.7854 393.288C88.5854 393.288 87.5214 393.032 86.5934 392.52C85.6654 392.008 84.9374 391.288 84.4094 390.36C83.8814 389.432 83.6174 388.36 83.6174 387.144C83.6174 385.912 83.8734 384.816 84.3854 383.856C84.9134 382.896 85.6334 382.152 86.5454 381.624C87.4734 381.08 88.5614 380.808 89.8094 380.808C90.9774 380.808 92.0094 381.064 92.9054 381.576C93.8014 382.088 94.4974 382.792 94.9934 383.688C95.5054 384.568 95.7614 385.552 95.7614 386.64C95.7614 386.816 95.7534 387 95.7374 387.192C95.7374 387.384 95.7294 387.584 95.7134 387.792H86.6654C86.7294 388.72 87.0494 389.448 87.6254 389.976C88.2174 390.504 88.9294 390.768 89.7614 390.768C90.3854 390.768 90.9054 390.632 91.3214 390.36C91.7534 390.072 92.0734 389.704 92.2814 389.256H95.4014C95.1774 390.008 94.8014 390.696 94.2734 391.32C93.7614 391.928 93.1214 392.408 92.3534 392.76C91.6014 393.112 90.7454 393.288 89.7854 393.288ZM89.8094 383.304C89.0574 383.304 88.3934 383.52 87.8174 383.952C87.2414 384.368 86.8734 385.008 86.7134 385.872H92.6414C92.5934 385.088 92.3054 384.464 91.7774 384C91.2494 383.536 90.5934 383.304 89.8094 383.304ZM98.3452 393V375.72H101.417V393H98.3452ZM110.388 393.288C109.172 393.288 108.1 393.024 107.172 392.496C106.244 391.968 105.508 391.232 104.964 390.288C104.436 389.344 104.172 388.264 104.172 387.048C104.172 385.832 104.436 384.752 104.964 383.808C105.508 382.864 106.244 382.128 107.172 381.6C108.1 381.072 109.172 380.808 110.388 380.808C111.908 380.808 113.188 381.208 114.228 382.008C115.268 382.792 115.932 383.88 116.22 385.272H112.98C112.82 384.696 112.5 384.248 112.02 383.928C111.556 383.592 111.004 383.424 110.364 383.424C109.516 383.424 108.796 383.744 108.204 384.384C107.612 385.024 107.316 385.912 107.316 387.048C107.316 388.184 107.612 389.072 108.204 389.712C108.796 390.352 109.516 390.672 110.364 390.672C111.004 390.672 111.556 390.512 112.02 390.192C112.5 389.872 112.82 389.416 112.98 388.824H116.22C115.932 390.168 115.268 391.248 114.228 392.064C113.188 392.88 111.908 393.288 110.388 393.288ZM124.659 393.288C123.507 393.288 122.467 393.024 121.539 392.496C120.627 391.968 119.899 391.24 119.355 390.312C118.827 389.368 118.563 388.28 118.563 387.048C118.563 385.816 118.835 384.736 119.379 383.808C119.923 382.864 120.651 382.128 121.563 381.6C122.491 381.072 123.531 380.808 124.683 380.808C125.819 380.808 126.843 381.072 127.755 381.6C128.683 382.128 129.411 382.864 129.939 383.808C130.483 384.736 130.755 385.816 130.755 387.048C130.755 388.28 130.483 389.368 129.939 390.312C129.411 391.24 128.683 391.968 127.755 392.496C126.827 393.024 125.795 393.288 124.659 393.288ZM124.659 390.624C125.459 390.624 126.155 390.328 126.747 389.736C127.339 389.128 127.635 388.232 127.635 387.048C127.635 385.864 127.339 384.976 126.747 384.384C126.155 383.776 125.467 383.472 124.683 383.472C123.867 383.472 123.163 383.776 122.571 384.384C121.995 384.976 121.707 385.864 121.707 387.048C121.707 388.232 121.995 389.128 122.571 389.736C123.163 390.328 123.859 390.624 124.659 390.624ZM133.501 393V381.096H136.213L136.477 382.704C136.861 382.128 137.365 381.672 137.989 381.336C138.629 380.984 139.365 380.808 140.197 380.808C142.037 380.808 143.341 381.52 144.109 382.944C144.541 382.288 145.117 381.768 145.837 381.384C146.573 381 147.373 380.808 148.237 380.808C149.789 380.808 150.981 381.272 151.813 382.2C152.645 383.128 153.061 384.488 153.061 386.28V393H149.989V386.568C149.989 385.544 149.789 384.76 149.389 384.216C149.005 383.672 148.405 383.4 147.589 383.4C146.757 383.4 146.085 383.704 145.573 384.312C145.077 384.92 144.829 385.768 144.829 386.856V393H141.757V386.568C141.757 385.544 141.557 384.76 141.157 384.216C140.757 383.672 140.141 383.4 139.309 383.4C138.493 383.4 137.829 383.704 137.317 384.312C136.821 384.92 136.573 385.768 136.573 386.856V393H133.501ZM161.762 393.288C160.562 393.288 159.498 393.032 158.57 392.52C157.642 392.008 156.914 391.288 156.386 390.36C155.858 389.432 155.594 388.36 155.594 387.144C155.594 385.912 155.85 384.816 156.362 383.856C156.89 382.896 157.61 382.152 158.522 381.624C159.45 381.08 160.538 380.808 161.786 380.808C162.954 380.808 163.986 381.064 164.882 381.576C165.778 382.088 166.474 382.792 166.97 383.688C167.482 384.568 167.738 385.552 167.738 386.64C167.738 386.816 167.73 387 167.714 387.192C167.714 387.384 167.706 387.584 167.69 387.792H158.642C158.706 388.72 159.026 389.448 159.602 389.976C160.194 390.504 160.906 390.768 161.738 390.768C162.362 390.768 162.882 390.632 163.298 390.36C163.73 390.072 164.05 389.704 164.258 389.256H167.378C167.154 390.008 166.778 390.696 166.25 391.32C165.738 391.928 165.098 392.408 164.33 392.76C163.578 393.112 162.722 393.288 161.762 393.288ZM161.786 383.304C161.034 383.304 160.37 383.52 159.794 383.952C159.218 384.368 158.85 385.008 158.69 385.872H164.618C164.57 385.088 164.282 384.464 163.754 384C163.226 383.536 162.57 383.304 161.786 383.304ZM181.344 393C180.096 393 179.096 392.696 178.344 392.088C177.592 391.48 177.216 390.4 177.216 388.848V383.664H175.176V381.096H177.216L177.576 377.904H180.288V381.096H183.504V383.664H180.288V388.872C180.288 389.448 180.408 389.848 180.648 390.072C180.904 390.28 181.336 390.384 181.944 390.384H183.432V393H181.344ZM191.549 393.288C190.397 393.288 189.357 393.024 188.429 392.496C187.517 391.968 186.789 391.24 186.245 390.312C185.717 389.368 185.453 388.28 185.453 387.048C185.453 385.816 185.725 384.736 186.269 383.808C186.813 382.864 187.541 382.128 188.453 381.6C189.381 381.072 190.421 380.808 191.573 380.808C192.709 380.808 193.733 381.072 194.645 381.6C195.573 382.128 196.301 382.864 196.829 383.808C197.373 384.736 197.645 385.816 197.645 387.048C197.645 388.28 197.373 389.368 196.829 390.312C196.301 391.24 195.573 391.968 194.645 392.496C193.717 393.024 192.685 393.288 191.549 393.288ZM191.549 390.624C192.349 390.624 193.045 390.328 193.637 389.736C194.229 389.128 194.525 388.232 194.525 387.048C194.525 385.864 194.229 384.976 193.637 384.384C193.045 383.776 192.357 383.472 191.573 383.472C190.757 383.472 190.053 383.776 189.461 384.384C188.885 384.976 188.597 385.864 188.597 387.048C188.597 388.232 188.885 389.128 189.461 389.736C190.053 390.328 190.749 390.624 191.549 390.624ZM205.103 393L211.247 376.2H214.703L220.847 393H217.583L216.239 389.112H209.687L208.319 393H205.103ZM210.527 386.712H215.399L212.951 379.728L210.527 386.712ZM222.939 398.28V381.096H225.675L226.011 382.8C226.395 382.272 226.899 381.808 227.523 381.408C228.163 381.008 228.987 380.808 229.995 380.808C231.115 380.808 232.115 381.08 232.995 381.624C233.875 382.168 234.571 382.912 235.083 383.856C235.595 384.8 235.851 385.872 235.851 387.072C235.851 388.272 235.595 389.344 235.083 390.288C234.571 391.216 233.875 391.952 232.995 392.496C232.115 393.024 231.115 393.288 229.995 393.288C229.099 393.288 228.315 393.12 227.643 392.784C226.971 392.448 226.427 391.976 226.011 391.368V398.28H222.939ZM229.347 390.6C230.323 390.6 231.131 390.272 231.771 389.616C232.411 388.96 232.731 388.112 232.731 387.072C232.731 386.032 232.411 385.176 231.771 384.504C231.131 383.832 230.323 383.496 229.347 383.496C228.355 383.496 227.539 383.832 226.899 384.504C226.275 385.16 225.963 386.008 225.963 387.048C225.963 388.088 226.275 388.944 226.899 389.616C227.539 390.272 228.355 390.6 229.347 390.6ZM238.595 398.28V381.096H241.331L241.667 382.8C242.051 382.272 242.555 381.808 243.179 381.408C243.819 381.008 244.643 380.808 245.651 380.808C246.771 380.808 247.771 381.08 248.651 381.624C249.531 382.168 250.227 382.912 250.739 383.856C251.251 384.8 251.507 385.872 251.507 387.072C251.507 388.272 251.251 389.344 250.739 390.288C250.227 391.216 249.531 391.952 248.651 392.496C247.771 393.024 246.771 393.288 245.651 393.288C244.755 393.288 243.971 393.12 243.299 392.784C242.627 392.448 242.083 391.976 241.667 391.368V398.28H238.595ZM245.003 390.6C245.979 390.6 246.787 390.272 247.427 389.616C248.067 388.96 248.387 388.112 248.387 387.072C248.387 386.032 248.067 385.176 247.427 384.504C246.787 383.832 245.979 383.496 245.003 383.496C244.011 383.496 243.195 383.832 242.555 384.504C241.931 385.16 241.619 386.008 241.619 387.048C241.619 388.088 241.931 388.944 242.555 389.616C243.195 390.272 244.011 390.6 245.003 390.6ZM259.087 393C257.839 393 256.839 392.696 256.087 392.088C255.335 391.48 254.959 390.4 254.959 388.848V383.664H252.919V381.096H254.959L255.319 377.904H258.031V381.096H261.247V383.664H258.031V388.872C258.031 389.448 258.151 389.848 258.391 390.072C258.647 390.28 259.079 390.384 259.687 390.384H261.175V393H259.087ZM265.54 379.248C264.98 379.248 264.516 379.08 264.148 378.744C263.796 378.408 263.62 377.984 263.62 377.472C263.62 376.96 263.796 376.544 264.148 376.224C264.516 375.888 264.98 375.72 265.54 375.72C266.1 375.72 266.556 375.888 266.908 376.224C267.276 376.544 267.46 376.96 267.46 377.472C267.46 377.984 267.276 378.408 266.908 378.744C266.556 379.08 266.1 379.248 265.54 379.248ZM264.004 393V381.096H267.076V393H264.004ZM275.587 393C274.339 393 273.339 392.696 272.587 392.088C271.835 391.48 271.459 390.4 271.459 388.848V383.664H269.419V381.096H271.459L271.819 377.904H274.531V381.096H277.747V383.664H274.531V388.872C274.531 389.448 274.651 389.848 274.891 390.072C275.147 390.28 275.579 390.384 276.187 390.384H277.675V393H275.587ZM284.848 393.288C283.36 393.288 282.208 392.824 281.392 391.896C280.592 390.968 280.192 389.608 280.192 387.816V381.096H283.24V387.528C283.24 388.552 283.448 389.336 283.864 389.88C284.28 390.424 284.936 390.696 285.832 390.696C286.68 390.696 287.376 390.392 287.92 389.784C288.48 389.176 288.76 388.328 288.76 387.24V381.096H291.832V393H289.12L288.88 390.984C288.512 391.688 287.976 392.248 287.272 392.664C286.584 393.08 285.776 393.288 284.848 393.288ZM300.458 393.288C299.338 393.288 298.338 393.016 297.458 392.472C296.578 391.928 295.882 391.184 295.37 390.24C294.858 389.296 294.602 388.224 294.602 387.024C294.602 385.824 294.858 384.76 295.37 383.832C295.882 382.888 296.578 382.152 297.458 381.624C298.338 381.08 299.338 380.808 300.458 380.808C301.354 380.808 302.138 380.976 302.81 381.312C303.482 381.648 304.026 382.12 304.442 382.728V375.72H307.514V393H304.778L304.442 391.296C304.058 391.824 303.546 392.288 302.906 392.688C302.282 393.088 301.466 393.288 300.458 393.288ZM301.106 390.6C302.098 390.6 302.906 390.272 303.53 389.616C304.17 388.944 304.49 388.088 304.49 387.048C304.49 386.008 304.17 385.16 303.53 384.504C302.906 383.832 302.098 383.496 301.106 383.496C300.13 383.496 299.322 383.824 298.682 384.48C298.042 385.136 297.722 385.984 297.722 387.024C297.722 388.064 298.042 388.92 298.682 389.592C299.322 390.264 300.13 390.6 301.106 390.6ZM316.426 393.288C315.226 393.288 314.162 393.032 313.234 392.52C312.306 392.008 311.578 391.288 311.05 390.36C310.522 389.432 310.258 388.36 310.258 387.144C310.258 385.912 310.514 384.816 311.026 383.856C311.554 382.896 312.274 382.152 313.186 381.624C314.114 381.08 315.202 380.808 316.45 380.808C317.618 380.808 318.65 381.064 319.546 381.576C320.442 382.088 321.138 382.792 321.634 383.688C322.146 384.568 322.402 385.552 322.402 386.64C322.402 386.816 322.394 387 322.378 387.192C322.378 387.384 322.37 387.584 322.354 387.792H313.306C313.37 388.72 313.69 389.448 314.266 389.976C314.858 390.504 315.57 390.768 316.402 390.768C317.026 390.768 317.546 390.632 317.962 390.36C318.394 390.072 318.714 389.704 318.922 389.256H322.042C321.818 390.008 321.442 390.696 320.914 391.32C320.402 391.928 319.762 392.408 318.994 392.76C318.242 393.112 317.386 393.288 316.426 393.288ZM316.45 383.304C315.698 383.304 315.034 383.52 314.458 383.952C313.882 384.368 313.514 385.008 313.354 385.872H319.282C319.234 385.088 318.946 384.464 318.418 384C317.89 383.536 317.234 383.304 316.45 383.304ZM325.634 387.696L325.298 376.2H328.586L328.226 387.696H325.634ZM327.002 393.168C326.426 393.168 325.954 392.992 325.586 392.64C325.234 392.288 325.058 391.864 325.058 391.368C325.058 390.856 325.234 390.424 325.586 390.072C325.954 389.72 326.426 389.544 327.002 389.544C327.546 389.544 327.994 389.72 328.346 390.072C328.714 390.424 328.898 390.856 328.898 391.368C328.898 391.864 328.714 392.288 328.346 392.64C327.994 392.992 327.546 393.168 327.002 393.168Z" fill="white"/>
<path d="M55.1439 430V419.904H51.7999V418.8H59.8319V419.904H56.4879V430H55.1439ZM63.5236 430.192C62.7662 430.192 62.0942 430.021 61.5076 429.68C60.9209 429.328 60.4569 428.843 60.1156 428.224C59.7849 427.605 59.6196 426.875 59.6196 426.032C59.6196 425.2 59.7849 424.475 60.1156 423.856C60.4462 423.227 60.9049 422.741 61.4916 422.4C62.0889 422.048 62.7769 421.872 63.5556 421.872C64.3236 421.872 64.9849 422.048 65.5396 422.4C66.1049 422.741 66.5369 423.195 66.8356 423.76C67.1342 424.325 67.2836 424.933 67.2836 425.584C67.2836 425.701 67.2782 425.819 67.2676 425.936C67.2676 426.053 67.2676 426.187 67.2676 426.336H60.9476C60.9796 426.944 61.1182 427.451 61.3636 427.856C61.6196 428.251 61.9342 428.549 62.3076 428.752C62.6916 428.955 63.0969 429.056 63.5236 429.056C64.0782 429.056 64.5422 428.928 64.9156 428.672C65.2889 428.416 65.5609 428.069 65.7316 427.632H67.0596C66.8462 428.368 66.4356 428.981 65.8276 429.472C65.2302 429.952 64.4622 430.192 63.5236 430.192ZM63.5236 423.008C62.8836 423.008 62.3129 423.205 61.8116 423.6C61.3209 423.984 61.0382 424.549 60.9636 425.296H65.9556C65.9236 424.581 65.6782 424.021 65.2196 423.616C64.7609 423.211 64.1956 423.008 63.5236 423.008ZM72.1049 430.192C71.1556 430.192 70.3663 429.952 69.7369 429.472C69.1076 428.992 68.7396 428.341 68.6329 427.52H70.0089C70.0943 427.936 70.3129 428.299 70.6649 428.608C71.0276 428.907 71.5129 429.056 72.1209 429.056C72.6863 429.056 73.1023 428.939 73.3689 428.704C73.6356 428.459 73.7689 428.171 73.7689 427.84C73.7689 427.36 73.5929 427.04 73.2409 426.88C72.8996 426.72 72.4143 426.576 71.7849 426.448C71.3583 426.363 70.9316 426.24 70.5049 426.08C70.0783 425.92 69.7209 425.696 69.4329 425.408C69.1449 425.109 69.0009 424.72 69.0009 424.24C69.0009 423.547 69.2569 422.981 69.7689 422.544C70.2916 422.096 70.9956 421.872 71.8809 421.872C72.7236 421.872 73.4116 422.085 73.9449 422.512C74.4889 422.928 74.8036 423.525 74.8889 424.304H73.5609C73.5076 423.899 73.3316 423.584 73.0329 423.36C72.7449 423.125 72.3556 423.008 71.8649 423.008C71.3849 423.008 71.0116 423.109 70.7449 423.312C70.4889 423.515 70.3609 423.781 70.3609 424.112C70.3609 424.432 70.5263 424.683 70.8569 424.864C71.1983 425.045 71.6569 425.2 72.2329 425.328C72.7236 425.435 73.1876 425.568 73.6249 425.728C74.0729 425.877 74.4356 426.107 74.7129 426.416C75.0009 426.715 75.1449 427.152 75.1449 427.728C75.1556 428.443 74.8836 429.035 74.3289 429.504C73.7849 429.963 73.0436 430.192 72.1049 430.192ZM79.8416 430C79.1162 430 78.5456 429.824 78.1296 429.472C77.7136 429.12 77.5056 428.485 77.5056 427.568V423.2H76.1296V422.064H77.5056L77.6816 420.16H78.8496V422.064H81.1856V423.2H78.8496V427.568C78.8496 428.069 78.9509 428.411 79.1536 428.592C79.3562 428.763 79.7136 428.848 80.2256 428.848H81.0576V430H79.8416ZM87.9914 433.52L89.9594 429.232H89.4954L86.3434 422.064H87.7994L90.4234 428.24L93.2074 422.064H94.5994L89.3994 433.52H87.9914ZM98.8841 430.192C98.1374 430.192 97.4654 430.021 96.8681 429.68C96.2707 429.339 95.7961 428.859 95.4441 428.24C95.1027 427.611 94.9321 426.875 94.9321 426.032C94.9321 425.189 95.1081 424.459 95.4601 423.84C95.8121 423.211 96.2867 422.725 96.8841 422.384C97.4921 422.043 98.1694 421.872 98.9161 421.872C99.6627 421.872 100.335 422.043 100.932 422.384C101.529 422.725 101.999 423.211 102.34 423.84C102.692 424.459 102.868 425.189 102.868 426.032C102.868 426.875 102.692 427.611 102.34 428.24C101.988 428.859 101.508 429.339 100.9 429.68C100.303 430.021 99.6307 430.192 98.8841 430.192ZM98.8841 429.04C99.3427 429.04 99.7694 428.928 100.164 428.704C100.559 428.48 100.879 428.144 101.124 427.696C101.369 427.248 101.492 426.693 101.492 426.032C101.492 425.371 101.369 424.816 101.124 424.368C100.889 423.92 100.575 423.584 100.18 423.36C99.7854 423.136 99.3641 423.024 98.9161 423.024C98.4574 423.024 98.0307 423.136 97.6361 423.36C97.2414 423.584 96.9214 423.92 96.6761 424.368C96.4307 424.816 96.3081 425.371 96.3081 426.032C96.3081 426.693 96.4307 427.248 96.6761 427.696C96.9214 428.144 97.2361 428.48 97.6201 428.704C98.0147 428.928 98.4361 429.04 98.8841 429.04ZM107.633 430.192C106.694 430.192 105.947 429.909 105.393 429.344C104.838 428.768 104.561 427.888 104.561 426.704V422.064H105.905V426.56C105.905 428.213 106.582 429.04 107.937 429.04C108.63 429.04 109.201 428.795 109.649 428.304C110.107 427.803 110.337 427.093 110.337 426.176V422.064H111.681V430H110.465L110.369 428.576C110.123 429.077 109.755 429.472 109.265 429.76C108.785 430.048 108.241 430.192 107.633 430.192ZM113.893 430V422.064H115.109L115.221 423.584C115.466 423.061 115.84 422.645 116.341 422.336C116.842 422.027 117.461 421.872 118.197 421.872V423.28H117.829C117.36 423.28 116.928 423.365 116.533 423.536C116.138 423.696 115.824 423.973 115.589 424.368C115.354 424.763 115.237 425.307 115.237 426V430H113.893ZM122.746 430.192C121.796 430.192 121.007 429.952 120.378 429.472C119.748 428.992 119.38 428.341 119.274 427.52H120.65C120.735 427.936 120.954 428.299 121.306 428.608C121.668 428.907 122.154 429.056 122.762 429.056C123.327 429.056 123.743 428.939 124.01 428.704C124.276 428.459 124.41 428.171 124.41 427.84C124.41 427.36 124.234 427.04 123.882 426.88C123.54 426.72 123.055 426.576 122.426 426.448C121.999 426.363 121.572 426.24 121.146 426.08C120.719 425.92 120.362 425.696 120.074 425.408C119.786 425.109 119.642 424.72 119.642 424.24C119.642 423.547 119.898 422.981 120.41 422.544C120.932 422.096 121.636 421.872 122.522 421.872C123.364 421.872 124.052 422.085 124.586 422.512C125.13 422.928 125.444 423.525 125.53 424.304H124.202C124.148 423.899 123.972 423.584 123.674 423.36C123.386 423.125 122.996 423.008 122.506 423.008C122.026 423.008 121.652 423.109 121.386 423.312C121.13 423.515 121.002 423.781 121.002 424.112C121.002 424.432 121.167 424.683 121.498 424.864C121.839 425.045 122.298 425.2 122.874 425.328C123.364 425.435 123.828 425.568 124.266 425.728C124.714 425.877 125.076 426.107 125.354 426.416C125.642 426.715 125.786 427.152 125.786 427.728C125.796 428.443 125.524 429.035 124.97 429.504C124.426 429.963 123.684 430.192 122.746 430.192ZM131.274 430.192C130.516 430.192 129.844 430.021 129.258 429.68C128.671 429.328 128.207 428.843 127.866 428.224C127.535 427.605 127.37 426.875 127.37 426.032C127.37 425.2 127.535 424.475 127.866 423.856C128.196 423.227 128.655 422.741 129.242 422.4C129.839 422.048 130.527 421.872 131.306 421.872C132.074 421.872 132.735 422.048 133.29 422.4C133.855 422.741 134.287 423.195 134.586 423.76C134.884 424.325 135.034 424.933 135.034 425.584C135.034 425.701 135.028 425.819 135.018 425.936C135.018 426.053 135.018 426.187 135.018 426.336H128.698C128.73 426.944 128.868 427.451 129.114 427.856C129.37 428.251 129.684 428.549 130.058 428.752C130.442 428.955 130.847 429.056 131.274 429.056C131.828 429.056 132.292 428.928 132.666 428.672C133.039 428.416 133.311 428.069 133.482 427.632H134.81C134.596 428.368 134.186 428.981 133.578 429.472C132.98 429.952 132.212 430.192 131.274 430.192ZM131.274 423.008C130.634 423.008 130.063 423.205 129.562 423.6C129.071 423.984 128.788 424.549 128.714 425.296H133.706C133.674 424.581 133.428 424.021 132.97 423.616C132.511 423.211 131.946 423.008 131.274 423.008ZM136.815 430V418.48H138.159V430H136.815ZM140.794 430V423.2H139.594V422.064H140.794V420.688C140.794 419.92 140.986 419.36 141.37 419.008C141.754 418.656 142.314 418.48 143.05 418.48H143.85V419.632H143.258C142.852 419.632 142.564 419.717 142.394 419.888C142.223 420.048 142.138 420.325 142.138 420.72V422.064H144.09V423.2H142.138V430H140.794ZM152.564 430.192C151.903 430.192 151.354 430.08 150.916 429.856C150.479 429.632 150.154 429.333 149.94 428.96C149.727 428.587 149.62 428.181 149.62 427.744C149.62 426.933 149.93 426.309 150.548 425.872C151.167 425.435 152.01 425.216 153.076 425.216H155.22V425.12C155.22 424.427 155.039 423.904 154.676 423.552C154.314 423.189 153.828 423.008 153.22 423.008C152.698 423.008 152.244 423.141 151.86 423.408C151.487 423.664 151.252 424.043 151.156 424.544H149.78C149.834 423.968 150.026 423.483 150.356 423.088C150.698 422.693 151.119 422.395 151.62 422.192C152.122 421.979 152.655 421.872 153.22 421.872C154.33 421.872 155.162 422.171 155.716 422.768C156.282 423.355 156.564 424.139 156.564 425.12V430H155.364L155.284 428.576C155.06 429.024 154.73 429.408 154.292 429.728C153.866 430.037 153.29 430.192 152.564 430.192ZM152.772 429.056C153.284 429.056 153.722 428.923 154.084 428.656C154.458 428.389 154.74 428.043 154.932 427.616C155.124 427.189 155.22 426.741 155.22 426.272V426.256H153.188C152.399 426.256 151.839 426.395 151.508 426.672C151.188 426.939 151.028 427.275 151.028 427.68C151.028 428.096 151.178 428.432 151.476 428.688C151.786 428.933 152.218 429.056 152.772 429.056ZM161.717 427.504C161.269 427.504 160.858 427.445 160.485 427.328L159.685 428.08C159.802 428.165 159.946 428.24 160.117 428.304C160.298 428.357 160.554 428.411 160.885 428.464C161.215 428.507 161.679 428.555 162.277 428.608C163.343 428.683 164.106 428.928 164.565 429.344C165.023 429.76 165.253 430.304 165.253 430.976C165.253 431.435 165.125 431.872 164.869 432.288C164.623 432.704 164.239 433.045 163.717 433.312C163.205 433.579 162.543 433.712 161.733 433.712C161.018 433.712 160.383 433.616 159.829 433.424C159.274 433.243 158.842 432.96 158.533 432.576C158.223 432.203 158.069 431.728 158.069 431.152C158.069 430.853 158.149 430.528 158.309 430.176C158.469 429.835 158.767 429.509 159.205 429.2C158.97 429.104 158.767 429.003 158.597 428.896C158.437 428.779 158.287 428.651 158.149 428.512V428.144L159.509 426.8C158.879 426.267 158.565 425.563 158.565 424.688C158.565 424.165 158.687 423.691 158.933 423.264C159.178 422.837 159.535 422.501 160.005 422.256C160.474 422 161.045 421.872 161.717 421.872C162.175 421.872 162.591 421.936 162.965 422.064H165.893V423.072L164.405 423.136C164.714 423.584 164.869 424.101 164.869 424.688C164.869 425.211 164.741 425.685 164.485 426.112C164.239 426.539 163.882 426.88 163.413 427.136C162.954 427.381 162.389 427.504 161.717 427.504ZM161.717 426.4C162.282 426.4 162.73 426.256 163.061 425.968C163.402 425.669 163.573 425.243 163.573 424.688C163.573 424.144 163.402 423.728 163.061 423.44C162.73 423.141 162.282 422.992 161.717 422.992C161.141 422.992 160.682 423.141 160.341 423.44C160.01 423.728 159.845 424.144 159.845 424.688C159.845 425.243 160.01 425.669 160.341 425.968C160.682 426.256 161.141 426.4 161.717 426.4ZM159.381 431.024C159.381 431.557 159.605 431.952 160.053 432.208C160.501 432.475 161.061 432.608 161.733 432.608C162.394 432.608 162.922 432.464 163.317 432.176C163.722 431.888 163.925 431.504 163.925 431.024C163.925 430.683 163.786 430.384 163.509 430.128C163.231 429.883 162.719 429.739 161.973 429.696C161.386 429.653 160.879 429.6 160.453 429.536C160.015 429.771 159.727 430.021 159.589 430.288C159.45 430.565 159.381 430.811 159.381 431.024ZM170.049 430.192C169.387 430.192 168.838 430.08 168.401 429.856C167.963 429.632 167.638 429.333 167.425 428.96C167.211 428.587 167.105 428.181 167.105 427.744C167.105 426.933 167.414 426.309 168.033 425.872C168.651 425.435 169.494 425.216 170.561 425.216H172.705V425.12C172.705 424.427 172.523 423.904 172.161 423.552C171.798 423.189 171.313 423.008 170.705 423.008C170.182 423.008 169.729 423.141 169.345 423.408C168.971 423.664 168.737 424.043 168.641 424.544H167.265C167.318 423.968 167.51 423.483 167.841 423.088C168.182 422.693 168.603 422.395 169.105 422.192C169.606 421.979 170.139 421.872 170.705 421.872C171.814 421.872 172.646 422.171 173.201 422.768C173.766 423.355 174.049 424.139 174.049 425.12V430H172.849L172.769 428.576C172.545 429.024 172.214 429.408 171.777 429.728C171.35 430.037 170.774 430.192 170.049 430.192ZM170.257 429.056C170.769 429.056 171.206 428.923 171.569 428.656C171.942 428.389 172.225 428.043 172.417 427.616C172.609 427.189 172.705 426.741 172.705 426.272V426.256H170.673C169.883 426.256 169.323 426.395 168.993 426.672C168.673 426.939 168.513 427.275 168.513 427.68C168.513 428.096 168.662 428.432 168.961 428.688C169.27 428.933 169.702 429.056 170.257 429.056ZM176.881 420.304C176.614 420.304 176.39 420.219 176.209 420.048C176.038 419.867 175.953 419.643 175.953 419.376C175.953 419.12 176.038 418.907 176.209 418.736C176.39 418.565 176.614 418.48 176.881 418.48C177.137 418.48 177.356 418.565 177.537 418.736C177.718 418.907 177.809 419.12 177.809 419.376C177.809 419.643 177.718 419.867 177.537 420.048C177.356 420.219 177.137 420.304 176.881 420.304ZM176.209 430V422.064H177.553V430H176.209ZM179.893 430V422.064H181.109L181.189 423.488C181.445 422.987 181.813 422.592 182.293 422.304C182.773 422.016 183.317 421.872 183.925 421.872C184.864 421.872 185.61 422.16 186.165 422.736C186.73 423.301 187.013 424.176 187.013 425.36V430H185.669V425.504C185.669 423.851 184.986 423.024 183.621 423.024C182.938 423.024 182.368 423.275 181.909 423.776C181.461 424.267 181.237 424.971 181.237 425.888V430H179.893ZM192.089 430.192C191.14 430.192 190.351 429.952 189.721 429.472C189.092 428.992 188.724 428.341 188.617 427.52H189.993C190.079 427.936 190.297 428.299 190.649 428.608C191.012 428.907 191.497 429.056 192.105 429.056C192.671 429.056 193.087 428.939 193.353 428.704C193.62 428.459 193.753 428.171 193.753 427.84C193.753 427.36 193.577 427.04 193.225 426.88C192.884 426.72 192.399 426.576 191.769 426.448C191.343 426.363 190.916 426.24 190.489 426.08C190.063 425.92 189.705 425.696 189.417 425.408C189.129 425.109 188.985 424.72 188.985 424.24C188.985 423.547 189.241 422.981 189.753 422.544C190.276 422.096 190.98 421.872 191.865 421.872C192.708 421.872 193.396 422.085 193.929 422.512C194.473 422.928 194.788 423.525 194.873 424.304H193.545C193.492 423.899 193.316 423.584 193.017 423.36C192.729 423.125 192.34 423.008 191.849 423.008C191.369 423.008 190.996 423.109 190.729 423.312C190.473 423.515 190.345 423.781 190.345 424.112C190.345 424.432 190.511 424.683 190.841 424.864C191.183 425.045 191.641 425.2 192.217 425.328C192.708 425.435 193.172 425.568 193.609 425.728C194.057 425.877 194.42 426.107 194.697 426.416C194.985 426.715 195.129 427.152 195.129 427.728C195.14 428.443 194.868 429.035 194.313 429.504C193.769 429.963 193.028 430.192 192.089 430.192ZM199.826 430C199.101 430 198.53 429.824 198.114 429.472C197.698 429.12 197.49 428.485 197.49 427.568V423.2H196.114V422.064H197.49L197.666 420.16H198.834V422.064H201.17V423.2H198.834V427.568C198.834 428.069 198.935 428.411 199.138 428.592C199.341 428.763 199.698 428.848 200.21 428.848H201.042V430H199.826ZM210.248 430C209.522 430 208.952 429.824 208.536 429.472C208.12 429.12 207.912 428.485 207.912 427.568V423.2H206.536V422.064H207.912L208.088 420.16H209.256V422.064H211.592V423.2H209.256V427.568C209.256 428.069 209.357 428.411 209.56 428.592C209.762 428.763 210.12 428.848 210.632 428.848H211.464V430H210.248ZM213.299 430V418.48H214.643V423.424C214.91 422.933 215.289 422.555 215.779 422.288C216.27 422.011 216.803 421.872 217.379 421.872C218.297 421.872 219.033 422.16 219.587 422.736C220.142 423.301 220.419 424.176 220.419 425.36V430H219.091V425.504C219.091 423.851 218.425 423.024 217.091 423.024C216.398 423.024 215.817 423.275 215.347 423.776C214.878 424.267 214.643 424.971 214.643 425.888V430H213.299ZM226.024 430.192C225.266 430.192 224.594 430.021 224.008 429.68C223.421 429.328 222.957 428.843 222.616 428.224C222.285 427.605 222.12 426.875 222.12 426.032C222.12 425.2 222.285 424.475 222.616 423.856C222.946 423.227 223.405 422.741 223.992 422.4C224.589 422.048 225.277 421.872 226.056 421.872C226.824 421.872 227.485 422.048 228.04 422.4C228.605 422.741 229.037 423.195 229.336 423.76C229.634 424.325 229.784 424.933 229.784 425.584C229.784 425.701 229.778 425.819 229.768 425.936C229.768 426.053 229.768 426.187 229.768 426.336H223.448C223.48 426.944 223.618 427.451 223.864 427.856C224.12 428.251 224.434 428.549 224.808 428.752C225.192 428.955 225.597 429.056 226.024 429.056C226.578 429.056 227.042 428.928 227.416 428.672C227.789 428.416 228.061 428.069 228.232 427.632H229.56C229.346 428.368 228.936 428.981 228.328 429.472C227.73 429.952 226.962 430.192 226.024 430.192ZM226.024 423.008C225.384 423.008 224.813 423.205 224.312 423.6C223.821 423.984 223.538 424.549 223.464 425.296H228.456C228.424 424.581 228.178 424.021 227.72 423.616C227.261 423.211 226.696 423.008 226.024 423.008ZM240.039 430.192C239.389 430.192 238.807 430.059 238.295 429.792C237.794 429.525 237.41 429.152 237.143 428.672L237.015 430H235.799V418.48H237.143V423.376C237.399 422.992 237.762 422.645 238.231 422.336C238.711 422.027 239.319 421.872 240.055 421.872C240.845 421.872 241.533 422.053 242.119 422.416C242.706 422.779 243.159 423.275 243.479 423.904C243.81 424.533 243.975 425.248 243.975 426.048C243.975 426.848 243.81 427.563 243.479 428.192C243.159 428.811 242.701 429.301 242.103 429.664C241.517 430.016 240.829 430.192 240.039 430.192ZM239.895 429.024C240.429 429.024 240.898 428.901 241.303 428.656C241.709 428.4 242.029 428.048 242.263 427.6C242.498 427.152 242.615 426.629 242.615 426.032C242.615 425.435 242.498 424.912 242.263 424.464C242.029 424.016 241.709 423.669 241.303 423.424C240.898 423.168 240.429 423.04 239.895 423.04C239.362 423.04 238.893 423.168 238.487 423.424C238.082 423.669 237.762 424.016 237.527 424.464C237.293 424.912 237.175 425.435 237.175 426.032C237.175 426.629 237.293 427.152 237.527 427.6C237.762 428.048 238.082 428.4 238.487 428.656C238.893 428.901 239.362 429.024 239.895 429.024ZM249.414 430.192C248.657 430.192 247.985 430.021 247.398 429.68C246.812 429.328 246.348 428.843 246.006 428.224C245.676 427.605 245.51 426.875 245.51 426.032C245.51 425.2 245.676 424.475 246.006 423.856C246.337 423.227 246.796 422.741 247.382 422.4C247.98 422.048 248.668 421.872 249.446 421.872C250.214 421.872 250.876 422.048 251.43 422.4C251.996 422.741 252.428 423.195 252.726 423.76C253.025 424.325 253.174 424.933 253.174 425.584C253.174 425.701 253.169 425.819 253.158 425.936C253.158 426.053 253.158 426.187 253.158 426.336H246.838C246.87 426.944 247.009 427.451 247.254 427.856C247.51 428.251 247.825 428.549 248.198 428.752C248.582 428.955 248.988 429.056 249.414 429.056C249.969 429.056 250.433 428.928 250.806 428.672C251.18 428.416 251.452 428.069 251.622 427.632H252.95C252.737 428.368 252.326 428.981 251.718 429.472C251.121 429.952 250.353 430.192 249.414 430.192ZM249.414 423.008C248.774 423.008 248.204 423.205 247.702 423.6C247.212 423.984 246.929 424.549 246.854 425.296H251.846C251.814 424.581 251.569 424.021 251.11 423.616C250.652 423.211 250.086 423.008 249.414 423.008ZM257.996 430.192C257.046 430.192 256.257 429.952 255.628 429.472C254.998 428.992 254.63 428.341 254.524 427.52H255.9C255.985 427.936 256.204 428.299 256.556 428.608C256.918 428.907 257.404 429.056 258.012 429.056C258.577 429.056 258.993 428.939 259.26 428.704C259.526 428.459 259.66 428.171 259.66 427.84C259.66 427.36 259.484 427.04 259.132 426.88C258.79 426.72 258.305 426.576 257.676 426.448C257.249 426.363 256.822 426.24 256.396 426.08C255.969 425.92 255.612 425.696 255.324 425.408C255.036 425.109 254.892 424.72 254.892 424.24C254.892 423.547 255.148 422.981 255.66 422.544C256.182 422.096 256.886 421.872 257.772 421.872C258.614 421.872 259.302 422.085 259.836 422.512C260.38 422.928 260.694 423.525 260.78 424.304H259.452C259.398 423.899 259.222 423.584 258.924 423.36C258.636 423.125 258.246 423.008 257.756 423.008C257.276 423.008 256.902 423.109 256.636 423.312C256.38 423.515 256.252 423.781 256.252 424.112C256.252 424.432 256.417 424.683 256.748 424.864C257.089 425.045 257.548 425.2 258.124 425.328C258.614 425.435 259.078 425.568 259.516 425.728C259.964 425.877 260.326 426.107 260.604 426.416C260.892 426.715 261.036 427.152 261.036 427.728C261.046 428.443 260.774 429.035 260.22 429.504C259.676 429.963 258.934 430.192 257.996 430.192ZM265.732 430C265.007 430 264.436 429.824 264.02 429.472C263.604 429.12 263.396 428.485 263.396 427.568V423.2H262.02V422.064H263.396L263.572 420.16H264.74V422.064H267.076V423.2H264.74V427.568C264.74 428.069 264.842 428.411 265.044 428.592C265.247 428.763 265.604 428.848 266.116 428.848H266.948V430H265.732ZM275.658 430.192C274.997 430.192 274.447 430.08 274.01 429.856C273.573 429.632 273.247 429.333 273.034 428.96C272.821 428.587 272.714 428.181 272.714 427.744C272.714 426.933 273.023 426.309 273.642 425.872C274.261 425.435 275.103 425.216 276.17 425.216H278.314V425.12C278.314 424.427 278.133 423.904 277.77 423.552C277.407 423.189 276.922 423.008 276.314 423.008C275.791 423.008 275.338 423.141 274.954 423.408C274.581 423.664 274.346 424.043 274.25 424.544H272.874C272.927 423.968 273.119 423.483 273.45 423.088C273.791 422.693 274.213 422.395 274.714 422.192C275.215 421.979 275.749 421.872 276.314 421.872C277.423 421.872 278.255 422.171 278.81 422.768C279.375 423.355 279.658 424.139 279.658 425.12V430H278.458L278.378 428.576C278.154 429.024 277.823 429.408 277.386 429.728C276.959 430.037 276.383 430.192 275.658 430.192ZM275.866 429.056C276.378 429.056 276.815 428.923 277.178 428.656C277.551 428.389 277.834 428.043 278.026 427.616C278.218 427.189 278.314 426.741 278.314 426.272V426.256H276.282C275.493 426.256 274.933 426.395 274.602 426.672C274.282 426.939 274.122 427.275 274.122 427.68C274.122 428.096 274.271 428.432 274.57 428.688C274.879 428.933 275.311 429.056 275.866 429.056ZM281.674 433.52V422.064H282.89L283.018 423.376C283.274 422.992 283.637 422.645 284.106 422.336C284.586 422.027 285.194 421.872 285.93 421.872C286.72 421.872 287.408 422.053 287.994 422.416C288.581 422.779 289.034 423.275 289.354 423.904C289.685 424.533 289.85 425.248 289.85 426.048C289.85 426.848 289.685 427.563 289.354 428.192C289.034 428.811 288.576 429.301 287.978 429.664C287.392 430.016 286.704 430.192 285.914 430.192C285.264 430.192 284.682 430.059 284.17 429.792C283.669 429.525 283.285 429.152 283.018 428.672V433.52H281.674ZM285.77 429.024C286.304 429.024 286.773 428.901 287.178 428.656C287.584 428.4 287.904 428.048 288.138 427.6C288.373 427.152 288.49 426.629 288.49 426.032C288.49 425.435 288.373 424.912 288.138 424.464C287.904 424.016 287.584 423.669 287.178 423.424C286.773 423.168 286.304 423.04 285.77 423.04C285.237 423.04 284.768 423.168 284.362 423.424C283.957 423.669 283.637 424.016 283.402 424.464C283.168 424.912 283.05 425.435 283.05 426.032C283.05 426.629 283.168 427.152 283.402 427.6C283.637 428.048 283.957 428.4 284.362 428.656C284.768 428.901 285.237 429.024 285.77 429.024ZM291.721 433.52V422.064H292.937L293.065 423.376C293.321 422.992 293.684 422.645 294.153 422.336C294.633 422.027 295.241 421.872 295.977 421.872C296.767 421.872 297.455 422.053 298.041 422.416C298.628 422.779 299.081 423.275 299.401 423.904C299.732 424.533 299.897 425.248 299.897 426.048C299.897 426.848 299.732 427.563 299.401 428.192C299.081 428.811 298.623 429.301 298.025 429.664C297.439 430.016 296.751 430.192 295.961 430.192C295.311 430.192 294.729 430.059 294.217 429.792C293.716 429.525 293.332 429.152 293.065 428.672V433.52H291.721ZM295.817 429.024C296.351 429.024 296.82 428.901 297.225 428.656C297.631 428.4 297.951 428.048 298.185 427.6C298.42 427.152 298.537 426.629 298.537 426.032C298.537 425.435 298.42 424.912 298.185 424.464C297.951 424.016 297.631 423.669 297.225 423.424C296.82 423.168 296.351 423.04 295.817 423.04C295.284 423.04 294.815 423.168 294.409 423.424C294.004 423.669 293.684 424.016 293.449 424.464C293.215 424.912 293.097 425.435 293.097 426.032C293.097 426.629 293.215 427.152 293.449 427.6C293.684 428.048 294.004 428.4 294.409 428.656C294.815 428.901 295.284 429.024 295.817 429.024ZM309.602 430.192C308.813 430.192 308.12 430.011 307.522 429.648C306.936 429.285 306.477 428.789 306.146 428.16C305.826 427.531 305.666 426.816 305.666 426.016C305.666 425.216 305.832 424.507 306.162 423.888C306.493 423.259 306.952 422.768 307.538 422.416C308.125 422.053 308.818 421.872 309.618 421.872C310.269 421.872 310.845 422.005 311.346 422.272C311.848 422.539 312.237 422.912 312.514 423.392V418.48H313.858V430H312.642L312.514 428.688C312.258 429.072 311.89 429.419 311.41 429.728C310.93 430.037 310.328 430.192 309.602 430.192ZM309.746 429.024C310.28 429.024 310.749 428.901 311.154 428.656C311.57 428.4 311.89 428.048 312.114 427.6C312.349 427.152 312.466 426.629 312.466 426.032C312.466 425.435 312.349 424.912 312.114 424.464C311.89 424.016 311.57 423.669 311.154 423.424C310.749 423.168 310.28 423.04 309.746 423.04C309.224 423.04 308.754 423.168 308.338 423.424C307.933 423.669 307.613 424.016 307.378 424.464C307.154 424.912 307.042 425.435 307.042 426.032C307.042 426.629 307.154 427.152 307.378 427.6C307.613 428.048 307.933 428.4 308.338 428.656C308.754 428.901 309.224 429.024 309.746 429.024ZM319.617 430.192C318.86 430.192 318.188 430.021 317.601 429.68C317.015 429.328 316.551 428.843 316.209 428.224C315.879 427.605 315.713 426.875 315.713 426.032C315.713 425.2 315.879 424.475 316.209 423.856C316.54 423.227 316.999 422.741 317.585 422.4C318.183 422.048 318.871 421.872 319.649 421.872C320.417 421.872 321.079 422.048 321.633 422.4C322.199 422.741 322.631 423.195 322.929 423.76C323.228 424.325 323.377 424.933 323.377 425.584C323.377 425.701 323.372 425.819 323.361 425.936C323.361 426.053 323.361 426.187 323.361 426.336H317.041C317.073 426.944 317.212 427.451 317.457 427.856C317.713 428.251 318.028 428.549 318.401 428.752C318.785 428.955 319.191 429.056 319.617 429.056C320.172 429.056 320.636 428.928 321.009 428.672C321.383 428.416 321.655 428.069 321.825 427.632H323.153C322.94 428.368 322.529 428.981 321.921 429.472C321.324 429.952 320.556 430.192 319.617 430.192ZM319.617 423.008C318.977 423.008 318.407 423.205 317.905 423.6C317.415 423.984 317.132 424.549 317.057 425.296H322.049C322.017 424.581 321.772 424.021 321.313 423.616C320.855 423.211 320.289 423.008 319.617 423.008ZM327.134 430L324.126 422.064H325.534L327.918 428.704L330.318 422.064H331.694L328.686 430H327.134ZM335.808 430.192C334.859 430.192 334.069 429.952 333.44 429.472C332.811 428.992 332.443 428.341 332.336 427.52H333.712C333.797 427.936 334.016 428.299 334.368 428.608C334.731 428.907 335.216 429.056 335.824 429.056C336.389 429.056 336.805 428.939 337.072 428.704C337.339 428.459 337.472 428.171 337.472 427.84C337.472 427.36 337.296 427.04 336.944 426.88C336.603 426.72 336.117 426.576 335.488 426.448C335.061 426.363 334.635 426.24 334.208 426.08C333.781 425.92 333.424 425.696 333.136 425.408C332.848 425.109 332.704 424.72 332.704 424.24C332.704 423.547 332.96 422.981 333.472 422.544C333.995 422.096 334.699 421.872 335.584 421.872C336.427 421.872 337.115 422.085 337.648 422.512C338.192 422.928 338.507 423.525 338.592 424.304H337.264C337.211 423.899 337.035 423.584 336.736 423.36C336.448 423.125 336.059 423.008 335.568 423.008C335.088 423.008 334.715 423.109 334.448 423.312C334.192 423.515 334.064 423.781 334.064 424.112C334.064 424.432 334.229 424.683 334.56 424.864C334.901 425.045 335.36 425.2 335.936 425.328C336.427 425.435 336.891 425.568 337.328 425.728C337.776 425.877 338.139 426.107 338.416 426.416C338.704 426.715 338.848 427.152 338.848 427.728C338.859 428.443 338.587 429.035 338.032 429.504C337.488 429.963 336.747 430.192 335.808 430.192ZM164.173 451.192C163.426 451.192 162.754 451.021 162.157 450.68C161.56 450.339 161.085 449.859 160.733 449.24C160.392 448.611 160.221 447.875 160.221 447.032C160.221 446.189 160.397 445.459 160.749 444.84C161.101 444.211 161.576 443.725 162.173 443.384C162.781 443.043 163.458 442.872 164.205 442.872C164.952 442.872 165.624 443.043 166.221 443.384C166.818 443.725 167.288 444.211 167.629 444.84C167.981 445.459 168.157 446.189 168.157 447.032C168.157 447.875 167.981 448.611 167.629 449.24C167.277 449.859 166.797 450.339 166.189 450.68C165.592 451.021 164.92 451.192 164.173 451.192ZM164.173 450.04C164.632 450.04 165.058 449.928 165.453 449.704C165.848 449.48 166.168 449.144 166.413 448.696C166.658 448.248 166.781 447.693 166.781 447.032C166.781 446.371 166.658 445.816 166.413 445.368C166.178 444.92 165.864 444.584 165.469 444.36C165.074 444.136 164.653 444.024 164.205 444.024C163.746 444.024 163.32 444.136 162.925 444.36C162.53 444.584 162.21 444.92 161.965 445.368C161.72 445.816 161.597 446.371 161.597 447.032C161.597 447.693 161.72 448.248 161.965 448.696C162.21 449.144 162.525 449.48 162.909 449.704C163.304 449.928 163.725 450.04 164.173 450.04ZM172.922 451.192C171.983 451.192 171.237 450.909 170.682 450.344C170.127 449.768 169.85 448.888 169.85 447.704V443.064H171.194V447.56C171.194 449.213 171.871 450.04 173.226 450.04C173.919 450.04 174.49 449.795 174.938 449.304C175.397 448.803 175.626 448.093 175.626 447.176V443.064H176.97V451H175.754L175.658 449.576C175.413 450.077 175.045 450.472 174.554 450.76C174.074 451.048 173.53 451.192 172.922 451.192ZM182.318 451C181.593 451 181.022 450.824 180.606 450.472C180.19 450.12 179.982 449.485 179.982 448.568V444.2H178.606V443.064H179.982L180.158 441.16H181.326V443.064H183.662V444.2H181.326V448.568C181.326 449.069 181.427 449.411 181.63 449.592C181.833 449.763 182.19 449.848 182.702 449.848H183.534V451H182.318ZM192.74 451C192.015 451 191.444 450.824 191.028 450.472C190.612 450.12 190.404 449.485 190.404 448.568V444.2H189.028V443.064H190.404L190.58 441.16H191.748V443.064H194.084V444.2H191.748V448.568C191.748 449.069 191.849 449.411 192.052 449.592C192.255 449.763 192.612 449.848 193.124 449.848H193.956V451H192.74ZM195.792 451V439.48H197.136V444.424C197.402 443.933 197.781 443.555 198.272 443.288C198.762 443.011 199.296 442.872 199.872 442.872C200.789 442.872 201.525 443.16 202.08 443.736C202.634 444.301 202.911 445.176 202.911 446.36V451H201.584V446.504C201.584 444.851 200.917 444.024 199.584 444.024C198.89 444.024 198.309 444.275 197.84 444.776C197.37 445.267 197.136 445.971 197.136 446.888V451H195.792ZM208.516 451.192C207.758 451.192 207.086 451.021 206.5 450.68C205.913 450.328 205.449 449.843 205.108 449.224C204.777 448.605 204.612 447.875 204.612 447.032C204.612 446.2 204.777 445.475 205.108 444.856C205.438 444.227 205.897 443.741 206.484 443.4C207.081 443.048 207.769 442.872 208.548 442.872C209.316 442.872 209.977 443.048 210.532 443.4C211.097 443.741 211.529 444.195 211.828 444.76C212.126 445.325 212.276 445.933 212.276 446.584C212.276 446.701 212.27 446.819 212.26 446.936C212.26 447.053 212.26 447.187 212.26 447.336H205.94C205.972 447.944 206.11 448.451 206.356 448.856C206.612 449.251 206.926 449.549 207.3 449.752C207.684 449.955 208.089 450.056 208.516 450.056C209.07 450.056 209.534 449.928 209.908 449.672C210.281 449.416 210.553 449.069 210.724 448.632H212.052C211.838 449.368 211.428 449.981 210.82 450.472C210.222 450.952 209.454 451.192 208.516 451.192ZM208.516 444.008C207.876 444.008 207.305 444.205 206.804 444.6C206.313 444.984 206.03 445.549 205.956 446.296H210.948C210.916 445.581 210.67 445.021 210.212 444.616C209.753 444.211 209.188 444.008 208.516 444.008ZM214.057 451V443.064H215.273L215.385 444.584C215.63 444.061 216.004 443.645 216.505 443.336C217.006 443.027 217.625 442.872 218.361 442.872V444.28H217.993C217.524 444.28 217.092 444.365 216.697 444.536C216.302 444.696 215.988 444.973 215.753 445.368C215.518 445.763 215.401 446.307 215.401 447V451H214.057ZM223.141 451.192C222.383 451.192 221.711 451.021 221.125 450.68C220.538 450.328 220.074 449.843 219.733 449.224C219.402 448.605 219.237 447.875 219.237 447.032C219.237 446.2 219.402 445.475 219.733 444.856C220.063 444.227 220.522 443.741 221.109 443.4C221.706 443.048 222.394 442.872 223.173 442.872C223.941 442.872 224.602 443.048 225.157 443.4C225.722 443.741 226.154 444.195 226.453 444.76C226.751 445.325 226.901 445.933 226.901 446.584C226.901 446.701 226.895 446.819 226.885 446.936C226.885 447.053 226.885 447.187 226.885 447.336H220.565C220.597 447.944 220.735 448.451 220.981 448.856C221.237 449.251 221.551 449.549 221.925 449.752C222.309 449.955 222.714 450.056 223.141 450.056C223.695 450.056 224.159 449.928 224.533 449.672C224.906 449.416 225.178 449.069 225.349 448.632H226.677C226.463 449.368 226.053 449.981 225.445 450.472C224.847 450.952 224.079 451.192 223.141 451.192ZM223.141 444.008C222.501 444.008 221.93 444.205 221.429 444.6C220.938 444.984 220.655 445.549 220.581 446.296H225.573C225.541 445.581 225.295 445.021 224.837 444.616C224.378 444.211 223.813 444.008 223.141 444.008ZM228.97 447.896L228.81 439.8H230.266L230.106 447.896H228.97ZM229.578 451.08C229.311 451.08 229.087 450.995 228.906 450.824C228.735 450.643 228.65 450.424 228.65 450.168C228.65 449.912 228.735 449.699 228.906 449.528C229.087 449.347 229.311 449.256 229.578 449.256C229.834 449.256 230.047 449.347 230.218 449.528C230.399 449.699 230.49 449.912 230.49 450.168C230.49 450.424 230.399 450.643 230.218 450.824C230.047 450.995 229.834 451.08 229.578 451.08Z" fill="#828282"/>
<path d="M74.8824 195.192L72 200.237H106.588L104.426 195.192H74.8824Z" fill="url(#paint0_linear_1526_8143)"/>
<path d="M107.021 187.741V188H94.1024V187.741L96.904 184.835L94.2061 177.883H79.8866L77.6038 183.901L81.8062 187.741V188H72.2599V187.741L74.7503 183.901L85.4899 156.404L83.6221 151.942V151.682H91.9233L104.946 184.835L107.021 187.741ZM93.376 175.756L86.8907 159.153L80.6648 175.756H93.376ZM137.2 173.525C137.2 177.848 135.834 181.48 133.102 184.42C130.404 187.36 127.049 188.83 123.036 188.83C121.134 188.83 119.664 188.553 118.626 188V195.782L121.895 198.117V198.376H109.443V198.117L111.83 195.782V165.95L108.976 163.408V163.148L117.693 160.762H118.211L118.575 165.068H118.886C120.2 163.512 121.428 162.405 122.57 161.748C123.746 161.09 125.06 160.762 126.513 160.762C129.626 160.762 132.185 161.955 134.191 164.342C136.197 166.728 137.2 169.789 137.2 173.525ZM130.715 176.638C130.715 173.283 129.937 170.516 128.38 168.337C126.824 166.158 124.87 165.068 122.518 165.068C120.857 165.068 119.56 165.691 118.626 166.936V185.51C119.664 186.34 121.065 186.755 122.829 186.755C125.216 186.755 127.118 185.856 128.536 184.057C129.989 182.224 130.715 179.751 130.715 176.638ZM168.917 173.525C168.917 177.848 167.551 181.48 164.819 184.42C162.121 187.36 158.766 188.83 154.754 188.83C152.851 188.83 151.381 188.553 150.344 188V195.782L153.612 198.117V198.376H141.16V198.117L143.547 195.782V165.95L140.694 163.408V163.148L149.41 160.762H149.929L150.292 165.068H150.603C151.917 163.512 153.145 162.405 154.287 161.748C155.463 161.09 156.777 160.762 158.23 160.762C161.343 160.762 163.902 161.955 165.908 164.342C167.914 166.728 168.917 169.789 168.917 173.525ZM162.432 176.638C162.432 173.283 161.654 170.516 160.097 168.337C158.541 166.158 156.587 165.068 154.235 165.068C152.575 165.068 151.277 165.691 150.344 166.936V185.51C151.381 186.34 152.782 186.755 154.546 186.755C156.933 186.755 158.835 185.856 160.253 184.057C161.706 182.224 162.432 179.751 162.432 176.638ZM181.542 188.778C179.985 188.778 178.602 188.398 177.391 187.637C176.215 186.841 175.437 185.683 175.057 184.161V164.134H171.477V163.875L180.971 156.248H181.853V161.54H188.961L188.598 164.134H181.853V181.048C181.853 182.362 182.182 183.365 182.839 184.057C183.531 184.714 184.43 185.043 185.537 185.043C187.024 185.043 188.373 184.507 189.584 183.434L189.791 183.59C189.03 185.181 187.906 186.444 186.419 187.377C184.966 188.311 183.34 188.778 181.542 188.778ZM201.149 154.38C200.457 155.037 199.523 155.366 198.347 155.366C197.171 155.366 196.22 155.037 195.493 154.38C194.767 153.723 194.404 152.824 194.404 151.682C194.404 150.541 194.767 149.659 195.493 149.036C196.22 148.379 197.171 148.051 198.347 148.051C199.523 148.051 200.457 148.379 201.149 149.036C201.875 149.659 202.238 150.541 202.238 151.682C202.238 152.824 201.875 153.723 201.149 154.38ZM204.158 187.792V188H192.536V187.792L194.923 185.406V166.054L192.069 163.46V163.252L201.2 160.762H201.719V185.406L204.158 187.792ZM217.11 188.778C215.553 188.778 214.17 188.398 212.959 187.637C211.783 186.841 211.005 185.683 210.624 184.161V164.134H207.045V163.875L216.539 156.248H217.421V161.54H224.529L224.166 164.134H217.421V181.048C217.421 182.362 217.75 183.365 218.407 184.057C219.098 184.714 219.998 185.043 221.105 185.043C222.592 185.043 223.941 184.507 225.151 183.434L225.359 183.59C224.598 185.181 223.474 186.444 221.987 187.377C220.534 188.311 218.908 188.778 217.11 188.778ZM237.183 188.778C235.004 188.778 233.223 188.138 231.839 186.859C230.49 185.544 229.816 183.849 229.816 181.774V166.054L226.962 163.46V163.2L236.094 160.71H236.613V180.27C236.613 181.653 236.976 182.743 237.702 183.538C238.463 184.299 239.501 184.68 240.815 184.68C242.579 184.68 244.447 183.849 246.418 182.189V166.106L243.565 163.512V163.252L252.696 160.762H253.215V183.953L255.861 186.392V186.651L247.197 188.778L246.574 184.057H246.263C243.426 187.204 240.4 188.778 237.183 188.778ZM259.559 176.067C259.559 171.709 260.908 168.077 263.606 165.172C266.338 162.232 269.676 160.762 273.619 160.762C275.487 160.762 276.974 161.021 278.081 161.54V153.394L275.228 150.748V150.541L284.359 148.051H284.878V183.901L287.576 186.444V186.703L278.756 188.778L278.185 184.472H277.874C276.525 186.063 275.262 187.187 274.086 187.844C272.945 188.502 271.648 188.83 270.195 188.83C267.117 188.83 264.574 187.637 262.568 185.25C260.562 182.829 259.559 179.768 259.559 176.067ZM266.044 172.902C266.044 176.223 266.805 178.99 268.327 181.203C269.849 183.382 271.803 184.472 274.19 184.472C275.781 184.472 277.078 183.849 278.081 182.604V164.03C277.043 163.2 275.625 162.785 273.827 162.785C271.44 162.785 269.538 163.702 268.12 165.535C266.736 167.334 266.044 169.789 266.044 172.902ZM303.48 188.778C299.744 188.778 296.7 187.533 294.348 185.043C291.996 182.518 290.82 179.249 290.82 175.237C290.82 171.121 292.048 167.679 294.504 164.912C296.994 162.145 300.073 160.762 303.739 160.762C309.861 160.762 313.614 164.722 314.997 172.643H296.372C296.545 176.067 297.513 178.8 299.277 180.84C301.041 182.881 303.341 183.901 306.177 183.901C309.913 183.901 312.888 182.068 315.101 178.402L315.361 178.557C314.773 181.74 313.424 184.247 311.314 186.08C309.239 187.879 306.627 188.778 303.48 188.778ZM302.39 162.681C300.591 162.681 299.173 163.39 298.136 164.809C297.098 166.227 296.51 168.25 296.372 170.879H308.512C307.959 168.008 307.198 165.933 306.229 164.653C305.261 163.339 303.981 162.681 302.39 162.681Z" fill="url(#paint1_linear_1526_8143)"/>
<defs>
<linearGradient id="paint0_linear_1526_8143" x1="68.1637" y1="195.043" x2="72.6411" y2="210.49" gradientUnits="userSpaceOnUse">
<stop stop-color="#8D5D14"/>
<stop offset="0.512707" stop-color="#FFD060"/>
<stop offset="1" stop-color="#8D5D14"/>
</linearGradient>
<linearGradient id="paint1_linear_1526_8143" x1="44.827" y1="129.996" x2="139.73" y2="302.701" gradientUnits="userSpaceOnUse">
<stop stop-color="#8D5D14"/>
<stop offset="0.512707" stop-color="#FFD060"/>
<stop offset="1" stop-color="#8D5D14"/>
</linearGradient>
</defs>
</svg>
