<svg width="324" height="310" viewBox="0 0 324 310" fill="none" xmlns="http://www.w3.org/2000/svg">
<path d="M15.1456 233.544C16.4043 233.779 17.439 234.408 18.2496 235.432C19.0603 236.456 19.4656 237.629 19.4656 238.952C19.4656 240.147 19.167 241.203 18.5696 242.12C17.9936 243.016 17.151 243.72 16.0416 244.232C14.9323 244.744 13.6203 245 12.1056 245H2.47363V222.664H11.6896C13.2043 222.664 14.5056 222.909 15.5936 223.4C16.703 223.891 17.535 224.573 18.0896 225.448C18.6656 226.323 18.9536 227.315 18.9536 228.424C18.9536 229.725 18.6016 230.813 17.8976 231.688C17.215 232.563 16.2976 233.181 15.1456 233.544ZM6.95363 231.88H11.0496C12.1163 231.88 12.9376 231.645 13.5136 231.176C14.0896 230.685 14.3776 229.992 14.3776 229.096C14.3776 228.2 14.0896 227.507 13.5136 227.016C12.9376 226.525 12.1163 226.28 11.0496 226.28H6.95363V231.88ZM11.4656 241.352C12.5536 241.352 13.3963 241.096 13.9936 240.584C14.6123 240.072 14.9216 239.347 14.9216 238.408C14.9216 237.448 14.6016 236.701 13.9616 236.168C13.3216 235.613 12.4576 235.336 11.3696 235.336H6.95363V241.352H11.4656ZM39.5161 235.752C39.5161 236.392 39.4735 236.968 39.3881 237.48H26.4281C26.5348 238.76 26.9828 239.763 27.7721 240.488C28.5615 241.213 29.5321 241.576 30.6841 241.576C32.3481 241.576 33.5321 240.861 34.2361 239.432H39.0681C38.5561 241.139 37.5748 242.547 36.1241 243.656C34.6735 244.744 32.8921 245.288 30.7801 245.288C29.0735 245.288 27.5375 244.915 26.1721 244.168C24.8281 243.4 23.7721 242.323 23.0041 240.936C22.2575 239.549 21.8841 237.949 21.8841 236.136C21.8841 234.301 22.2575 232.691 23.0041 231.304C23.7508 229.917 24.7961 228.851 26.1401 228.104C27.4841 227.357 29.0308 226.984 30.7801 226.984C32.4655 226.984 33.9695 227.347 35.2921 228.072C36.6361 228.797 37.6708 229.832 38.3961 231.176C39.1428 232.499 39.5161 234.024 39.5161 235.752ZM34.8761 234.472C34.8548 233.32 34.4388 232.403 33.6281 231.72C32.8175 231.016 31.8255 230.664 30.6521 230.664C29.5428 230.664 28.6041 231.005 27.8361 231.688C27.0895 232.349 26.6308 233.277 26.4601 234.472H34.8761ZM49.5701 245.288C48.1195 245.288 46.8181 245.032 45.6661 244.52C44.5141 243.987 43.5968 243.272 42.9141 242.376C42.2528 241.48 41.8901 240.488 41.8261 239.4H46.3381C46.4235 240.083 46.7541 240.648 47.3301 241.096C47.9275 241.544 48.6635 241.768 49.5381 241.768C50.3915 241.768 51.0528 241.597 51.5221 241.256C52.0128 240.915 52.2581 240.477 52.2581 239.944C52.2581 239.368 51.9595 238.941 51.3621 238.664C50.7861 238.365 49.8581 238.045 48.5781 237.704C47.2555 237.384 46.1675 237.053 45.3141 236.712C44.4821 236.371 43.7568 235.848 43.1381 235.144C42.5408 234.44 42.2421 233.491 42.2421 232.296C42.2421 231.315 42.5195 230.419 43.0741 229.608C43.6501 228.797 44.4608 228.157 45.5061 227.688C46.5728 227.219 47.8208 226.984 49.2501 226.984C51.3621 226.984 53.0475 227.517 54.3061 228.584C55.5648 229.629 56.2581 231.048 56.3861 232.84H52.0981C52.0341 232.136 51.7355 231.581 51.2021 231.176C50.6901 230.749 49.9968 230.536 49.1221 230.536C48.3115 230.536 47.6821 230.685 47.2341 230.984C46.8075 231.283 46.5941 231.699 46.5941 232.232C46.5941 232.829 46.8928 233.288 47.4901 233.608C48.0875 233.907 49.0155 234.216 50.2741 234.536C51.5541 234.856 52.6101 235.187 53.4421 235.528C54.2741 235.869 54.9888 236.403 55.5861 237.128C56.2048 237.832 56.5248 238.771 56.5461 239.944C56.5461 240.968 56.2581 241.885 55.6821 242.696C55.1275 243.507 54.3168 244.147 53.2501 244.616C52.2048 245.064 50.9781 245.288 49.5701 245.288ZM65.4396 230.952V239.528C65.4396 240.125 65.5783 240.563 65.8556 240.84C66.1543 241.096 66.645 241.224 67.3276 241.224H69.4076V245H66.5916C62.8156 245 60.9276 243.165 60.9276 239.496V230.952H58.8156V227.272H60.9276V222.888H65.4396V227.272H69.4076V230.952H65.4396ZM94.0469 222.664V226.28H84.7349V232.008H91.8709V235.56H84.7349V245H80.2549V222.664H94.0469ZM101.704 230.024C102.28 229.085 103.026 228.349 103.944 227.816C104.882 227.283 105.949 227.016 107.144 227.016V231.72H105.96C104.552 231.72 103.485 232.051 102.76 232.712C102.056 233.373 101.704 234.525 101.704 236.168V245H97.2236V227.272H101.704V230.024ZM126.641 235.752C126.641 236.392 126.598 236.968 126.513 237.48H113.553C113.66 238.76 114.108 239.763 114.897 240.488C115.686 241.213 116.657 241.576 117.809 241.576C119.473 241.576 120.657 240.861 121.361 239.432H126.193C125.681 241.139 124.7 242.547 123.249 243.656C121.798 244.744 120.017 245.288 117.905 245.288C116.198 245.288 114.662 244.915 113.297 244.168C111.953 243.4 110.897 242.323 110.129 240.936C109.382 239.549 109.009 237.949 109.009 236.136C109.009 234.301 109.382 232.691 110.129 231.304C110.876 229.917 111.921 228.851 113.265 228.104C114.609 227.357 116.156 226.984 117.905 226.984C119.59 226.984 121.094 227.347 122.417 228.072C123.761 228.797 124.796 229.832 125.521 231.176C126.268 232.499 126.641 234.024 126.641 235.752ZM122.001 234.472C121.98 233.32 121.564 232.403 120.753 231.72C119.942 231.016 118.95 230.664 117.777 230.664C116.668 230.664 115.729 231.005 114.961 231.688C114.214 232.349 113.756 233.277 113.585 234.472H122.001ZM136.695 245.288C135.244 245.288 133.943 245.032 132.791 244.52C131.639 243.987 130.722 243.272 130.039 242.376C129.378 241.48 129.015 240.488 128.951 239.4H133.463C133.548 240.083 133.879 240.648 134.455 241.096C135.052 241.544 135.788 241.768 136.663 241.768C137.516 241.768 138.178 241.597 138.647 241.256C139.138 240.915 139.383 240.477 139.383 239.944C139.383 239.368 139.084 238.941 138.487 238.664C137.911 238.365 136.983 238.045 135.703 237.704C134.38 237.384 133.292 237.053 132.439 236.712C131.607 236.371 130.882 235.848 130.263 235.144C129.666 234.44 129.367 233.491 129.367 232.296C129.367 231.315 129.644 230.419 130.199 229.608C130.775 228.797 131.586 228.157 132.631 227.688C133.698 227.219 134.946 226.984 136.375 226.984C138.487 226.984 140.172 227.517 141.431 228.584C142.69 229.629 143.383 231.048 143.511 232.84H139.223C139.159 232.136 138.86 231.581 138.327 231.176C137.815 230.749 137.122 230.536 136.247 230.536C135.436 230.536 134.807 230.685 134.359 230.984C133.932 231.283 133.719 231.699 133.719 232.232C133.719 232.829 134.018 233.288 134.615 233.608C135.212 233.907 136.14 234.216 137.399 234.536C138.679 234.856 139.735 235.187 140.567 235.528C141.399 235.869 142.114 236.403 142.711 237.128C143.33 237.832 143.65 238.771 143.671 239.944C143.671 240.968 143.383 241.885 142.807 242.696C142.252 243.507 141.442 244.147 140.375 244.616C139.33 245.064 138.103 245.288 136.695 245.288ZM157.333 227.016C158.677 227.016 159.871 227.315 160.917 227.912C161.962 228.488 162.773 229.352 163.349 230.504C163.946 231.635 164.245 233 164.245 234.6V245H159.765V235.208C159.765 233.8 159.413 232.723 158.709 231.976C158.005 231.208 157.045 230.824 155.829 230.824C154.591 230.824 153.61 231.208 152.885 231.976C152.181 232.723 151.829 233.8 151.829 235.208V245H147.349V221.32H151.829V229.48C152.405 228.712 153.173 228.115 154.133 227.688C155.093 227.24 156.159 227.016 157.333 227.016ZM184.985 235.752C184.985 236.392 184.942 236.968 184.857 237.48H171.897C172.004 238.76 172.452 239.763 173.241 240.488C174.03 241.213 175.001 241.576 176.153 241.576C177.817 241.576 179.001 240.861 179.705 239.432H184.537C184.025 241.139 183.044 242.547 181.593 243.656C180.142 244.744 178.361 245.288 176.249 245.288C174.542 245.288 173.006 244.915 171.641 244.168C170.297 243.4 169.241 242.323 168.473 240.936C167.726 239.549 167.353 237.949 167.353 236.136C167.353 234.301 167.726 232.691 168.473 231.304C169.22 229.917 170.265 228.851 171.609 228.104C172.953 227.357 174.5 226.984 176.249 226.984C177.934 226.984 179.438 227.347 180.761 228.072C182.105 228.797 183.14 229.832 183.865 231.176C184.612 232.499 184.985 234.024 184.985 235.752ZM180.345 234.472C180.324 233.32 179.908 232.403 179.097 231.72C178.286 231.016 177.294 230.664 176.121 230.664C175.012 230.664 174.073 231.005 173.305 231.688C172.558 232.349 172.1 233.277 171.929 234.472H180.345ZM192.735 230.024C193.311 229.085 194.058 228.349 194.975 227.816C195.914 227.283 196.98 227.016 198.175 227.016V231.72H196.991C195.583 231.72 194.516 232.051 193.791 232.712C193.087 233.373 192.735 234.525 192.735 236.168V245H188.255V227.272H192.735V230.024ZM207.976 245.288C206.526 245.288 205.224 245.032 204.072 244.52C202.92 243.987 202.003 243.272 201.32 242.376C200.659 241.48 200.296 240.488 200.232 239.4H204.744C204.83 240.083 205.16 240.648 205.736 241.096C206.334 241.544 207.07 241.768 207.944 241.768C208.798 241.768 209.459 241.597 209.928 241.256C210.419 240.915 210.664 240.477 210.664 239.944C210.664 239.368 210.366 238.941 209.768 238.664C209.192 238.365 208.264 238.045 206.984 237.704C205.662 237.384 204.574 237.053 203.72 236.712C202.888 236.371 202.163 235.848 201.544 235.144C200.947 234.44 200.648 233.491 200.648 232.296C200.648 231.315 200.926 230.419 201.48 229.608C202.056 228.797 202.867 228.157 203.912 227.688C204.979 227.219 206.227 226.984 207.656 226.984C209.768 226.984 211.454 227.517 212.712 228.584C213.971 229.629 214.664 231.048 214.792 232.84H210.504C210.44 232.136 210.142 231.581 209.608 231.176C209.096 230.749 208.403 230.536 207.528 230.536C206.718 230.536 206.088 230.685 205.64 230.984C205.214 231.283 205 231.699 205 232.232C205 232.829 205.299 233.288 205.896 233.608C206.494 233.907 207.422 234.216 208.68 234.536C209.96 234.856 211.016 235.187 211.848 235.528C212.68 235.869 213.395 236.403 213.992 237.128C214.611 237.832 214.931 238.771 214.952 239.944C214.952 240.968 214.664 241.885 214.088 242.696C213.534 243.507 212.723 244.147 211.656 244.616C210.611 245.064 209.384 245.288 207.976 245.288ZM221.446 219.464L221.062 226.248H218.022L217.606 219.464H221.446ZM247.705 222.664V226.28H241.753V245H237.273V226.28H231.321V222.664H247.705ZM267.454 235.752C267.454 236.392 267.411 236.968 267.326 237.48H254.366C254.472 238.76 254.92 239.763 255.71 240.488C256.499 241.213 257.47 241.576 258.622 241.576C260.286 241.576 261.47 240.861 262.174 239.432H267.006C266.494 241.139 265.512 242.547 264.062 243.656C262.611 244.744 260.83 245.288 258.718 245.288C257.011 245.288 255.475 244.915 254.11 244.168C252.766 243.4 251.71 242.323 250.942 240.936C250.195 239.549 249.822 237.949 249.822 236.136C249.822 234.301 250.195 232.691 250.942 231.304C251.688 229.917 252.734 228.851 254.078 228.104C255.422 227.357 256.968 226.984 258.718 226.984C260.403 226.984 261.907 227.347 263.23 228.072C264.574 228.797 265.608 229.832 266.334 231.176C267.08 232.499 267.454 234.024 267.454 235.752ZM262.814 234.472C262.792 233.32 262.376 232.403 261.566 231.72C260.755 231.016 259.763 230.664 258.59 230.664C257.48 230.664 256.542 231.005 255.774 231.688C255.027 232.349 254.568 233.277 254.398 234.472H262.814ZM269.572 236.072C269.572 234.28 269.924 232.691 270.628 231.304C271.353 229.917 272.324 228.851 273.54 228.104C274.777 227.357 276.153 226.984 277.668 226.984C278.99 226.984 280.142 227.251 281.124 227.784C282.126 228.317 282.926 228.989 283.524 229.8V227.272H288.036V245H283.524V242.408C282.948 243.24 282.148 243.933 281.124 244.488C280.121 245.021 278.958 245.288 277.636 245.288C276.142 245.288 274.777 244.904 273.54 244.136C272.324 243.368 271.353 242.291 270.628 240.904C269.924 239.496 269.572 237.885 269.572 236.072ZM283.524 236.136C283.524 235.048 283.31 234.12 282.884 233.352C282.457 232.563 281.881 231.965 281.156 231.56C280.43 231.133 279.652 230.92 278.82 230.92C277.988 230.92 277.22 231.123 276.516 231.528C275.812 231.933 275.236 232.531 274.788 233.32C274.361 234.088 274.148 235.005 274.148 236.072C274.148 237.139 274.361 238.077 274.788 238.888C275.236 239.677 275.812 240.285 276.516 240.712C277.241 241.139 278.009 241.352 278.82 241.352C279.652 241.352 280.43 241.149 281.156 240.744C281.881 240.317 282.457 239.72 282.884 238.952C283.31 238.163 283.524 237.224 283.524 236.136ZM314.427 227.016C316.603 227.016 318.352 227.688 319.675 229.032C321.019 230.355 321.691 232.211 321.691 234.6V245H317.211V235.208C317.211 233.821 316.859 232.765 316.155 232.04C315.451 231.293 314.491 230.92 313.275 230.92C312.059 230.92 311.088 231.293 310.363 232.04C309.659 232.765 309.307 233.821 309.307 235.208V245H304.827V235.208C304.827 233.821 304.475 232.765 303.771 232.04C303.067 231.293 302.107 230.92 300.891 230.92C299.654 230.92 298.672 231.293 297.947 232.04C297.243 232.765 296.891 233.821 296.891 235.208V245H292.411V227.272H296.891V229.416C297.467 228.669 298.203 228.083 299.099 227.656C300.016 227.229 301.019 227.016 302.107 227.016C303.494 227.016 304.731 227.315 305.819 227.912C306.907 228.488 307.75 229.32 308.347 230.408C308.923 229.384 309.755 228.563 310.843 227.944C311.952 227.325 313.147 227.016 314.427 227.016Z" fill="white"/>
<path d="M103.4 297L98.4719 288.296H96.3599V297H91.8799V274.664H100.264C101.992 274.664 103.464 274.973 104.68 275.592C105.896 276.189 106.803 277.011 107.4 278.056C108.019 279.08 108.328 280.232 108.328 281.512C108.328 282.984 107.901 284.317 107.048 285.512C106.195 286.685 104.925 287.496 103.24 287.944L108.584 297H103.4ZM96.3599 284.936H100.104C101.32 284.936 102.227 284.648 102.824 284.072C103.421 283.475 103.72 282.653 103.72 281.608C103.72 280.584 103.421 279.795 102.824 279.24C102.227 278.664 101.32 278.376 100.104 278.376H96.3599V284.936ZM119.164 297.288C117.713 297.288 116.412 297.032 115.26 296.52C114.108 295.987 113.191 295.272 112.508 294.376C111.847 293.48 111.484 292.488 111.42 291.4H115.932C116.017 292.083 116.348 292.648 116.924 293.096C117.521 293.544 118.257 293.768 119.132 293.768C119.985 293.768 120.647 293.597 121.116 293.256C121.607 292.915 121.852 292.477 121.852 291.944C121.852 291.368 121.553 290.941 120.956 290.664C120.38 290.365 119.452 290.045 118.172 289.704C116.849 289.384 115.761 289.053 114.908 288.712C114.076 288.371 113.351 287.848 112.732 287.144C112.135 286.44 111.836 285.491 111.836 284.296C111.836 283.315 112.113 282.419 112.668 281.608C113.244 280.797 114.055 280.157 115.1 279.688C116.167 279.219 117.415 278.984 118.844 278.984C120.956 278.984 122.641 279.517 123.9 280.584C125.159 281.629 125.852 283.048 125.98 284.84H121.692C121.628 284.136 121.329 283.581 120.796 283.176C120.284 282.749 119.591 282.536 118.716 282.536C117.905 282.536 117.276 282.685 116.828 282.984C116.401 283.283 116.188 283.699 116.188 284.232C116.188 284.829 116.487 285.288 117.084 285.608C117.681 285.907 118.609 286.216 119.868 286.536C121.148 286.856 122.204 287.187 123.036 287.528C123.868 287.869 124.583 288.403 125.18 289.128C125.799 289.832 126.119 290.771 126.14 291.944C126.14 292.968 125.852 293.885 125.276 294.696C124.721 295.507 123.911 296.147 122.844 296.616C121.799 297.064 120.572 297.288 119.164 297.288ZM131.801 297.224C130.991 297.224 130.319 296.979 129.785 296.488C129.273 295.976 129.017 295.347 129.017 294.6C129.017 293.853 129.273 293.235 129.785 292.744C130.319 292.232 130.991 291.976 131.801 291.976C132.591 291.976 133.241 292.232 133.753 292.744C134.265 293.235 134.521 293.853 134.521 294.6C134.521 295.347 134.265 295.976 133.753 296.488C133.241 296.979 132.591 297.224 131.801 297.224ZM160.923 277.544H150.555V283.016C151.003 282.461 151.643 282.013 152.475 281.672C153.307 281.309 154.192 281.128 155.131 281.128C156.838 281.128 158.235 281.501 159.323 282.248C160.411 282.995 161.2 283.955 161.691 285.128C162.182 286.28 162.427 287.517 162.427 288.84C162.427 291.293 161.723 293.267 160.315 294.76C158.928 296.253 156.944 297 154.363 297C151.931 297 149.99 296.392 148.539 295.176C147.088 293.96 146.267 292.371 146.075 290.408H150.427C150.619 291.261 151.046 291.944 151.707 292.456C152.39 292.968 153.254 293.224 154.299 293.224C155.558 293.224 156.507 292.829 157.147 292.04C157.787 291.251 158.107 290.205 158.107 288.904C158.107 287.581 157.776 286.579 157.115 285.896C156.475 285.192 155.526 284.84 154.267 284.84C153.371 284.84 152.624 285.064 152.027 285.512C151.43 285.96 151.003 286.557 150.747 287.304H146.459V273.608H160.923V277.544ZM171.245 292.296L167.501 301.288H164.621L166.701 292.296H171.245ZM173.962 285.032C173.962 281.341 174.623 278.451 175.946 276.36C177.29 274.269 179.508 273.224 182.602 273.224C185.695 273.224 187.903 274.269 189.226 276.36C190.57 278.451 191.242 281.341 191.242 285.032C191.242 288.744 190.57 291.656 189.226 293.768C187.903 295.88 185.695 296.936 182.602 296.936C179.508 296.936 177.29 295.88 175.946 293.768C174.623 291.656 173.962 288.744 173.962 285.032ZM186.826 285.032C186.826 283.453 186.719 282.131 186.506 281.064C186.314 279.976 185.908 279.091 185.29 278.408C184.692 277.725 183.796 277.384 182.602 277.384C181.407 277.384 180.5 277.725 179.882 278.408C179.284 279.091 178.879 279.976 178.666 281.064C178.474 282.131 178.378 283.453 178.378 285.032C178.378 286.653 178.474 288.019 178.666 289.128C178.858 290.216 179.263 291.101 179.882 291.784C180.5 292.445 181.407 292.776 182.602 292.776C183.796 292.776 184.703 292.445 185.322 291.784C185.94 291.101 186.346 290.216 186.538 289.128C186.73 288.019 186.826 286.653 186.826 285.032ZM194.649 285.032C194.649 281.341 195.31 278.451 196.633 276.36C197.977 274.269 200.196 273.224 203.289 273.224C206.382 273.224 208.59 274.269 209.913 276.36C211.257 278.451 211.929 281.341 211.929 285.032C211.929 288.744 211.257 291.656 209.913 293.768C208.59 295.88 206.382 296.936 203.289 296.936C200.196 296.936 197.977 295.88 196.633 293.768C195.31 291.656 194.649 288.744 194.649 285.032ZM207.513 285.032C207.513 283.453 207.406 282.131 207.193 281.064C207.001 279.976 206.596 279.091 205.977 278.408C205.38 277.725 204.484 277.384 203.289 277.384C202.094 277.384 201.188 277.725 200.569 278.408C199.972 279.091 199.566 279.976 199.353 281.064C199.161 282.131 199.065 283.453 199.065 285.032C199.065 286.653 199.161 288.019 199.353 289.128C199.545 290.216 199.95 291.101 200.569 291.784C201.188 292.445 202.094 292.776 203.289 292.776C204.484 292.776 205.39 292.445 206.009 291.784C206.628 291.101 207.033 290.216 207.225 289.128C207.417 288.019 207.513 286.653 207.513 285.032ZM215.337 285.032C215.337 281.341 215.998 278.451 217.321 276.36C218.665 274.269 220.883 273.224 223.977 273.224C227.07 273.224 229.278 274.269 230.601 276.36C231.945 278.451 232.617 281.341 232.617 285.032C232.617 288.744 231.945 291.656 230.601 293.768C229.278 295.88 227.07 296.936 223.977 296.936C220.883 296.936 218.665 295.88 217.321 293.768C215.998 291.656 215.337 288.744 215.337 285.032ZM228.201 285.032C228.201 283.453 228.094 282.131 227.881 281.064C227.689 279.976 227.283 279.091 226.665 278.408C226.067 277.725 225.171 277.384 223.977 277.384C222.782 277.384 221.875 277.725 221.257 278.408C220.659 279.091 220.254 279.976 220.041 281.064C219.849 282.131 219.753 283.453 219.753 285.032C219.753 286.653 219.849 288.019 220.041 289.128C220.233 290.216 220.638 291.101 221.257 291.784C221.875 292.445 222.782 292.776 223.977 292.776C225.171 292.776 226.078 292.445 226.697 291.784C227.315 291.101 227.721 290.216 227.913 289.128C228.105 288.019 228.201 286.653 228.201 285.032Z" fill="url(#paint0_linear_355_448)"/>
<path d="M238.977 44.0705L163.977 19.0705C162.693 18.6432 161.307 18.6432 160.023 19.0705L85.1438 44.0314L85.1359 44.0338L85.0234 44.0713C85.0016 44.0791 84.982 44.0908 84.9609 44.0986C84.69 44.1916 84.4258 44.3033 84.1703 44.433C84.1414 44.4486 84.1109 44.4603 84.082 44.4759C83.8294 44.6109 83.5864 44.7631 83.3547 44.9314C83.3039 44.9682 83.2536 45.0057 83.2039 45.0439C82.9782 45.2145 82.7641 45.4001 82.5633 45.5994C82.5453 45.6189 82.5289 45.6392 82.5109 45.658C82.326 45.8507 82.1535 46.055 81.9945 46.2697C81.9617 46.3134 81.9281 46.3556 81.8969 46.4002C81.7329 46.632 81.5849 46.8747 81.4539 47.1267C81.4336 47.1658 81.4164 47.2049 81.3969 47.2439C81.2747 47.4911 81.169 47.7461 81.0805 48.0072C81.0727 48.0314 81.0617 48.0549 81.0539 48.0799C80.9657 48.3573 80.897 48.6405 80.8484 48.9275C80.8383 48.9877 80.8297 49.0478 80.8211 49.1072C80.7761 49.4028 80.7524 49.7012 80.75 50.0002V112.5C80.75 114.158 81.4085 115.747 82.5806 116.92C83.7527 118.092 85.3424 118.75 87 118.75C88.6576 118.75 90.2473 118.092 91.4194 116.92C92.5915 115.747 93.25 114.158 93.25 112.5V58.672L119.488 67.4181C112.533 78.6498 110.307 92.1786 113.298 105.047C116.289 117.915 124.253 129.075 135.449 136.088C120.54 141.725 107.818 151.971 99.1328 165.336C98.6733 166.023 98.3548 166.795 98.1956 167.607C98.0365 168.418 98.0399 169.253 98.2057 170.063C98.3715 170.873 98.6963 171.642 99.1615 172.325C99.6266 173.009 100.223 173.593 100.915 174.045C101.608 174.497 102.383 174.806 103.196 174.956C104.009 175.106 104.844 175.093 105.652 174.918C106.46 174.743 107.226 174.409 107.904 173.936C108.582 173.463 109.16 172.86 109.603 172.163C115.281 163.44 123.047 156.272 132.197 151.31C141.347 146.349 151.59 143.75 161.999 143.75C172.407 143.75 182.651 146.349 191.801 151.31C200.95 156.272 208.716 163.44 214.395 172.163C214.841 172.855 215.419 173.452 216.097 173.92C216.775 174.388 217.538 174.717 218.343 174.889C219.149 175.061 219.98 175.072 220.79 174.921C221.599 174.771 222.371 174.462 223.061 174.012C223.751 173.563 224.345 172.981 224.81 172.301C225.274 171.621 225.599 170.856 225.767 170.049C225.935 169.243 225.941 168.412 225.787 167.603C225.632 166.794 225.319 166.024 224.866 165.336C216.18 151.971 203.459 141.726 188.55 136.088C199.746 129.076 207.711 117.915 210.702 105.047C213.693 92.1789 211.467 78.6499 204.511 67.4181L238.977 55.9299C240.221 55.5152 241.304 54.7194 242.071 53.6551C242.839 52.5909 243.251 51.3122 243.251 50.0002C243.251 48.6882 242.839 47.4095 242.071 46.3452C241.304 45.2809 240.221 44.4851 238.977 44.0705ZM199.5 93.7502C199.502 99.6786 198.097 105.523 195.403 110.804C192.708 116.084 188.8 120.651 183.999 124.129C179.198 127.607 173.641 129.897 167.783 130.811C161.926 131.725 155.935 131.238 150.302 129.388C144.669 127.539 139.556 124.381 135.38 120.172C131.204 115.964 128.086 110.825 126.281 105.178C124.476 99.5315 124.035 93.537 124.995 87.6868C125.955 81.8366 128.289 76.2974 131.804 71.5236L160.023 80.9299C161.307 81.3572 162.693 81.3572 163.977 80.9299L192.196 71.5236C196.946 77.9603 199.506 85.7507 199.5 93.7502ZM192.236 58.3338C192.22 58.3392 192.205 58.3431 192.189 58.3494L162 68.4119L131.81 58.3494C131.795 58.3431 131.779 58.3384 131.763 58.3338L106.765 50.0002L162 31.5884L217.236 50.0002L192.236 58.3338Z" fill="url(#paint1_linear_355_448)"/>
<defs>
<linearGradient id="paint0_linear_355_448" x1="73.4177" y1="260.58" x2="146.584" y2="371.781" gradientUnits="userSpaceOnUse">
<stop stop-color="#8D5D14"/>
<stop offset="0.512707" stop-color="#FFD060"/>
<stop offset="1" stop-color="#8D5D14"/>
</linearGradient>
<linearGradient id="paint1_linear_355_448" x1="62.7266" y1="14.1266" x2="275.83" y2="125.59" gradientUnits="userSpaceOnUse">
<stop stop-color="#8D5D14"/>
<stop offset="0.512707" stop-color="#FFD060"/>
<stop offset="1" stop-color="#8D5D14"/>
</linearGradient>
</defs>
</svg>
