<svg width="296" height="153" viewBox="0 0 296 153" fill="none" xmlns="http://www.w3.org/2000/svg">
<g opacity="0.9">
<path d="M0 16C0 7.16346 7.16344 0 16 0H97.8233V152.094H16C7.16346 152.094 0 144.93 0 136.094V16Z" fill="#2C2C2C" fill-opacity="0.6"/>
<path d="M38.7786 63.7722V56.4042H36.2946V55.3722H42.5226V56.4042H40.0506V63.7722H38.7786ZM43.713 63.7722V55.3722H44.985V58.9722H49.053V55.3722H50.325V63.7722H49.053V60.0162H44.985V63.7722H43.713ZM55.1773 63.9162C54.5773 63.9162 54.0333 63.8002 53.5453 63.5682C53.0653 63.3282 52.6813 62.9642 52.3933 62.4762C52.1133 61.9882 51.9733 61.3682 51.9733 60.6162V55.3722H53.2453V60.6282C53.2453 61.3642 53.4213 61.9042 53.7733 62.2482C54.1253 62.5922 54.6013 62.7642 55.2013 62.7642C55.7933 62.7642 56.2653 62.5922 56.6173 62.2482C56.9693 61.9042 57.1453 61.3642 57.1453 60.6282V55.3722H58.4173V60.6162C58.4173 61.3682 58.2693 61.9882 57.9733 62.4762C57.6853 62.9642 57.2933 63.3282 56.7973 63.5682C56.3093 63.8002 55.7693 63.9162 55.1773 63.9162Z" fill="white"/>
<path d="M23.1357 93.3215V91.0895C24.1597 90.2415 25.1517 89.4015 26.1117 88.5695C27.0877 87.7375 27.9517 86.9135 28.7037 86.0975C29.4717 85.2815 30.0797 84.4895 30.5277 83.7215C30.9917 82.9375 31.2237 82.1775 31.2237 81.4415C31.2237 80.7535 31.0317 80.1455 30.6477 79.6175C30.2797 79.0895 29.6637 78.8255 28.7997 78.8255C27.9197 78.8255 27.2557 79.1135 26.8077 79.6895C26.3597 80.2655 26.1357 80.9615 26.1357 81.7775H23.1597C23.1917 80.5455 23.4637 79.5215 23.9757 78.7055C24.4877 77.8735 25.1677 77.2575 26.0157 76.8575C26.8637 76.4415 27.8157 76.2335 28.8717 76.2335C30.5837 76.2335 31.9117 76.7055 32.8557 77.6495C33.8157 78.5775 34.2957 79.7855 34.2957 81.2735C34.2957 82.2015 34.0797 83.1055 33.6477 83.9855C33.2317 84.8655 32.6797 85.7135 31.9917 86.5295C31.3037 87.3455 30.5597 88.1135 29.7597 88.8335C28.9597 89.5375 28.1837 90.1935 27.4317 90.8015H34.7037V93.3215H23.1357ZM43.2786 93.6095C42.0466 93.6095 40.9826 93.3935 40.0866 92.9615C39.2066 92.5295 38.5106 91.9375 37.9986 91.1855C37.5026 90.4175 37.2146 89.5535 37.1346 88.5935H40.1346C40.2786 89.2815 40.6306 89.8575 41.1906 90.3215C41.7506 90.7695 42.4466 90.9935 43.2786 90.9935C44.1746 90.9935 44.9026 90.6655 45.4626 90.0095C46.0386 89.3535 46.3266 88.5375 46.3266 87.5615C46.3266 86.5535 46.0386 85.7535 45.4626 85.1615C44.9026 84.5695 44.1906 84.2735 43.3266 84.2735C42.6066 84.2735 41.9826 84.4495 41.4546 84.8015C40.9266 85.1535 40.5506 85.5935 40.3266 86.1215H37.3746L38.8146 76.5215H48.1266V79.2095H41.1186L40.3506 83.0975C40.7026 82.7135 41.1826 82.4015 41.7906 82.1615C42.3986 81.9055 43.0786 81.7775 43.8306 81.7775C45.0306 81.7775 46.0306 82.0495 46.8306 82.5935C47.6306 83.1215 48.2386 83.8255 48.6546 84.7055C49.0706 85.5695 49.2786 86.5135 49.2786 87.5375C49.2786 88.7055 49.0226 89.7455 48.5106 90.6575C48.0146 91.5695 47.3106 92.2895 46.3986 92.8175C45.5026 93.3455 44.4626 93.6095 43.2786 93.6095ZM57.3694 93.3215C56.1214 93.3215 55.1214 93.0175 54.3694 92.4095C53.6174 91.8015 53.2414 90.7215 53.2414 89.1695V83.9855H51.2014V81.4175H53.2414L53.6014 78.2255H56.3134V81.4175H59.5294V83.9855H56.3134V89.1935C56.3134 89.7695 56.4334 90.1695 56.6734 90.3935C56.9294 90.6015 57.3614 90.7055 57.9694 90.7055H59.4574V93.3215H57.3694ZM62.167 93.3215V76.0415H65.239V83.2415C65.639 82.5855 66.175 82.0735 66.847 81.7055C67.535 81.3215 68.319 81.1295 69.199 81.1295C70.671 81.1295 71.807 81.5935 72.607 82.5215C73.423 83.4495 73.831 84.8095 73.831 86.6015V93.3215H70.783V86.8895C70.783 85.8655 70.575 85.0815 70.159 84.5375C69.759 83.9935 69.119 83.7215 68.239 83.7215C67.375 83.7215 66.655 84.0255 66.079 84.6335C65.519 85.2415 65.239 86.0895 65.239 87.1775V93.3215H62.167Z" fill="white"/>
</g>
<path d="M97.8234 0H280C288.837 0 296 7.16344 296 16V136.094C296 144.93 288.837 152.094 280 152.094H97.8234V0Z" fill="#48BA86"/>
</svg>
