<svg width="314" height="240" viewBox="0 0 314 240" fill="none" xmlns="http://www.w3.org/2000/svg">
<path d="M169.751 81.437C188.807 81.437 204.251 65.9921 204.251 46.9366C204.251 27.8812 188.807 12.4362 169.751 12.4362C150.696 12.4362 135.251 27.8812 135.251 46.9366C135.317 65.9921 150.762 81.437 169.751 81.437ZM169.751 94.007C143.809 94.007 122.748 72.9456 122.748 47.0035C122.748 21.0613 143.809 0 169.751 0C195.693 0 216.755 21.0613 216.755 47.0035C216.821 72.9456 195.76 94.007 169.751 94.007Z" fill="#35D07F"/>
<path d="M144.677 106.509C163.733 106.509 179.178 91.0644 179.178 72.0089C179.178 52.9534 163.733 37.5085 144.677 37.5085C125.622 37.5085 110.177 52.9534 110.177 72.0089C110.177 91.0644 125.689 106.509 144.677 106.509ZM144.677 119.079C118.735 119.079 97.6738 98.0179 97.6738 72.0757C97.6738 46.1336 118.735 25.0723 144.677 25.0723C170.619 25.0723 191.681 46.1336 191.681 72.0757C191.681 98.0179 170.686 119.079 144.677 119.079Z" fill="#FBCC5C"/>
<path d="M171.288 93.9403C174.565 89.9955 176.905 85.3821 178.108 80.4343C183.056 79.164 187.669 76.8907 191.614 73.6145C191.414 79.3646 190.21 85.0478 187.937 90.3298C182.722 92.5363 177.038 93.8066 171.288 93.9403ZM136.32 38.5792C131.372 39.8496 126.759 42.1228 122.814 45.399C123.015 39.649 124.218 33.9658 126.491 28.6837C131.773 26.4773 137.457 25.2069 143.207 25.0063C139.93 29.018 137.59 33.6315 136.32 38.5792Z" fill="#5EA33B"/>
<path d="M1.40125 163.8C1.40125 161.603 1.89192 159.64 2.87325 157.912C3.87592 156.163 5.23058 154.808 6.93725 153.848C8.66525 152.867 10.5959 152.376 12.7293 152.376C15.2253 152.376 17.4119 153.016 19.2893 154.296C21.1666 155.576 22.4786 157.347 23.2253 159.608H18.0733C17.5613 158.541 16.8359 157.741 15.8973 157.208C14.9799 156.675 13.9133 156.408 12.6973 156.408C11.3959 156.408 10.2333 156.717 9.20925 157.336C8.20658 157.933 7.41725 158.787 6.84125 159.896C6.28658 161.005 6.00925 162.307 6.00925 163.8C6.00925 165.272 6.28658 166.573 6.84125 167.704C7.41725 168.813 8.20658 169.677 9.20925 170.296C10.2333 170.893 11.3959 171.192 12.6973 171.192C13.9133 171.192 14.9799 170.925 15.8973 170.392C16.8359 169.837 17.5613 169.027 18.0733 167.96H23.2253C22.4786 170.243 21.1666 172.024 19.2893 173.304C17.4333 174.563 15.2466 175.192 12.7293 175.192C10.5959 175.192 8.66525 174.712 6.93725 173.752C5.23058 172.771 3.87592 171.416 2.87325 169.688C1.89192 167.96 1.40125 165.997 1.40125 163.8ZM43.5318 165.752C43.5318 166.392 43.4891 166.968 43.4038 167.48H30.4438C30.5504 168.76 30.9984 169.763 31.7878 170.488C32.5771 171.213 33.5478 171.576 34.6998 171.576C36.3638 171.576 37.5478 170.861 38.2518 169.432H43.0838C42.5718 171.139 41.5904 172.547 40.1398 173.656C38.6891 174.744 36.9078 175.288 34.7958 175.288C33.0891 175.288 31.5531 174.915 30.1878 174.168C28.8438 173.4 27.7878 172.323 27.0198 170.936C26.2731 169.549 25.8997 167.949 25.8997 166.136C25.8997 164.301 26.2731 162.691 27.0198 161.304C27.7664 159.917 28.8118 158.851 30.1558 158.104C31.4998 157.357 33.0464 156.984 34.7958 156.984C36.4811 156.984 37.9851 157.347 39.3078 158.072C40.6518 158.797 41.6864 159.832 42.4118 161.176C43.1584 162.499 43.5318 164.024 43.5318 165.752ZM38.8918 164.472C38.8704 163.32 38.4544 162.403 37.6438 161.72C36.8331 161.016 35.8411 160.664 34.6678 160.664C33.5584 160.664 32.6198 161.005 31.8518 161.688C31.1051 162.349 30.6464 163.277 30.4758 164.472H38.8918ZM51.2818 151.32V175H46.8018V151.32H51.2818ZM63.58 175.288C61.8733 175.288 60.3373 174.915 58.972 174.168C57.6067 173.4 56.5293 172.323 55.74 170.936C54.972 169.549 54.588 167.949 54.588 166.136C54.588 164.323 54.9827 162.723 55.772 161.336C56.5827 159.949 57.6813 158.883 59.068 158.136C60.4547 157.368 62.0013 156.984 63.708 156.984C65.4147 156.984 66.9613 157.368 68.348 158.136C69.7347 158.883 70.8227 159.949 71.612 161.336C72.4227 162.723 72.828 164.323 72.828 166.136C72.828 167.949 72.412 169.549 71.58 170.936C70.7693 172.323 69.66 173.4 68.252 174.168C66.8653 174.915 65.308 175.288 63.58 175.288ZM63.58 171.384C64.3907 171.384 65.148 171.192 65.852 170.808C66.5773 170.403 67.1533 169.805 67.58 169.016C68.0067 168.227 68.22 167.267 68.22 166.136C68.22 164.451 67.772 163.16 66.876 162.264C66.0013 161.347 64.924 160.888 63.644 160.888C62.364 160.888 61.2867 161.347 60.412 162.264C59.5587 163.16 59.132 164.451 59.132 166.136C59.132 167.821 59.548 169.123 60.38 170.04C61.2333 170.936 62.3 171.384 63.58 171.384ZM91.4513 175.224C89.8939 175.224 88.4859 174.957 87.2273 174.424C85.9899 173.891 85.0086 173.123 84.2833 172.12C83.5579 171.117 83.1846 169.933 83.1633 168.568H87.9633C88.0273 169.485 88.3473 170.211 88.9233 170.744C89.5206 171.277 90.3313 171.544 91.3553 171.544C92.4006 171.544 93.2219 171.299 93.8193 170.808C94.4166 170.296 94.7153 169.635 94.7153 168.824C94.7153 168.163 94.5126 167.619 94.1073 167.192C93.7019 166.765 93.1899 166.435 92.5713 166.2C91.9739 165.944 91.1419 165.667 90.0753 165.368C88.6246 164.941 87.4406 164.525 86.5233 164.12C85.6273 163.693 84.8486 163.064 84.1873 162.232C83.5473 161.379 83.2273 160.248 83.2273 158.84C83.2273 157.517 83.5579 156.365 84.2193 155.384C84.8806 154.403 85.8086 153.656 87.0033 153.144C88.1979 152.611 89.5633 152.344 91.0993 152.344C93.4033 152.344 95.2699 152.909 96.6993 154.04C98.1499 155.149 98.9499 156.707 99.0993 158.712H94.1713C94.1286 157.944 93.7979 157.315 93.1793 156.824C92.5819 156.312 91.7819 156.056 90.7793 156.056C89.9046 156.056 89.2006 156.28 88.6673 156.728C88.1553 157.176 87.8993 157.827 87.8993 158.68C87.8993 159.277 88.0913 159.779 88.4753 160.184C88.8806 160.568 89.3713 160.888 89.9473 161.144C90.5446 161.379 91.3766 161.656 92.4433 161.976C93.8939 162.403 95.0779 162.829 95.9953 163.256C96.9126 163.683 97.7019 164.323 98.3633 165.176C99.0246 166.029 99.3553 167.149 99.3553 168.536C99.3553 169.731 99.0459 170.84 98.4272 171.864C97.8086 172.888 96.9019 173.709 95.7073 174.328C94.5126 174.925 93.0939 175.224 91.4513 175.224ZM107.719 159.832C108.295 159.021 109.085 158.349 110.087 157.816C111.111 157.261 112.274 156.984 113.575 156.984C115.09 156.984 116.455 157.357 117.671 158.104C118.909 158.851 119.879 159.917 120.583 161.304C121.309 162.669 121.671 164.259 121.671 166.072C121.671 167.885 121.309 169.496 120.583 170.904C119.879 172.291 118.909 173.368 117.671 174.136C116.455 174.904 115.09 175.288 113.575 175.288C112.274 175.288 111.122 175.021 110.119 174.488C109.138 173.955 108.338 173.283 107.719 172.472V183.448H103.239V157.272H107.719V159.832ZM117.095 166.072C117.095 165.005 116.871 164.088 116.423 163.32C115.997 162.531 115.421 161.933 114.695 161.528C113.991 161.123 113.223 160.92 112.391 160.92C111.581 160.92 110.813 161.133 110.087 161.56C109.383 161.965 108.807 162.563 108.359 163.352C107.933 164.141 107.719 165.069 107.719 166.136C107.719 167.203 107.933 168.131 108.359 168.92C108.807 169.709 109.383 170.317 110.087 170.744C110.813 171.149 111.581 171.352 112.391 171.352C113.223 171.352 113.991 171.139 114.695 170.712C115.421 170.285 115.997 169.677 116.423 168.888C116.871 168.099 117.095 167.16 117.095 166.072ZM132.799 175.288C131.092 175.288 129.556 174.915 128.191 174.168C126.825 173.4 125.748 172.323 124.959 170.936C124.191 169.549 123.807 167.949 123.807 166.136C123.807 164.323 124.201 162.723 124.991 161.336C125.801 159.949 126.9 158.883 128.287 158.136C129.673 157.368 131.22 156.984 132.927 156.984C134.633 156.984 136.18 157.368 137.567 158.136C138.953 158.883 140.041 159.949 140.831 161.336C141.641 162.723 142.047 164.323 142.047 166.136C142.047 167.949 141.631 169.549 140.799 170.936C139.988 172.323 138.879 173.4 137.471 174.168C136.084 174.915 134.527 175.288 132.799 175.288ZM132.799 171.384C133.609 171.384 134.367 171.192 135.071 170.808C135.796 170.403 136.372 169.805 136.799 169.016C137.225 168.227 137.439 167.267 137.439 166.136C137.439 164.451 136.991 163.16 136.095 162.264C135.22 161.347 134.143 160.888 132.863 160.888C131.583 160.888 130.505 161.347 129.631 162.264C128.777 163.16 128.351 164.451 128.351 166.136C128.351 167.821 128.767 169.123 129.599 170.04C130.452 170.936 131.519 171.384 132.799 171.384ZM155.157 157.016C157.269 157.016 158.976 157.688 160.277 159.032C161.578 160.355 162.229 162.211 162.229 164.6V175H157.749V165.208C157.749 163.8 157.397 162.723 156.693 161.976C155.989 161.208 155.029 160.824 153.813 160.824C152.576 160.824 151.594 161.208 150.869 161.976C150.165 162.723 149.813 163.8 149.813 165.208V175H145.333V157.272H149.813V159.48C150.41 158.712 151.168 158.115 152.085 157.688C153.024 157.24 154.048 157.016 155.157 157.016ZM173.273 175.288C171.823 175.288 170.521 175.032 169.369 174.52C168.217 173.987 167.3 173.272 166.617 172.376C165.956 171.48 165.593 170.488 165.529 169.4H170.041C170.127 170.083 170.457 170.648 171.033 171.096C171.631 171.544 172.367 171.768 173.241 171.768C174.095 171.768 174.756 171.597 175.225 171.256C175.716 170.915 175.961 170.477 175.961 169.944C175.961 169.368 175.663 168.941 175.065 168.664C174.489 168.365 173.561 168.045 172.281 167.704C170.959 167.384 169.871 167.053 169.017 166.712C168.185 166.371 167.46 165.848 166.841 165.144C166.244 164.44 165.945 163.491 165.945 162.296C165.945 161.315 166.223 160.419 166.777 159.608C167.353 158.797 168.164 158.157 169.209 157.688C170.276 157.219 171.524 156.984 172.953 156.984C175.065 156.984 176.751 157.517 178.009 158.584C179.268 159.629 179.961 161.048 180.089 162.84H175.801C175.737 162.136 175.439 161.581 174.905 161.176C174.393 160.749 173.7 160.536 172.825 160.536C172.015 160.536 171.385 160.685 170.937 160.984C170.511 161.283 170.297 161.699 170.297 162.232C170.297 162.829 170.596 163.288 171.193 163.608C171.791 163.907 172.719 164.216 173.977 164.536C175.257 164.856 176.313 165.187 177.145 165.528C177.977 165.869 178.692 166.403 179.289 167.128C179.908 167.832 180.228 168.771 180.249 169.944C180.249 170.968 179.961 171.885 179.385 172.696C178.831 173.507 178.02 174.147 176.953 174.616C175.908 175.064 174.681 175.288 173.273 175.288ZM191.799 175.288C190.092 175.288 188.556 174.915 187.191 174.168C185.825 173.4 184.748 172.323 183.959 170.936C183.191 169.549 182.807 167.949 182.807 166.136C182.807 164.323 183.201 162.723 183.991 161.336C184.801 159.949 185.9 158.883 187.287 158.136C188.673 157.368 190.22 156.984 191.927 156.984C193.633 156.984 195.18 157.368 196.567 158.136C197.953 158.883 199.041 159.949 199.831 161.336C200.641 162.723 201.047 164.323 201.047 166.136C201.047 167.949 200.631 169.549 199.799 170.936C198.988 172.323 197.879 173.4 196.471 174.168C195.084 174.915 193.527 175.288 191.799 175.288ZM191.799 171.384C192.609 171.384 193.367 171.192 194.071 170.808C194.796 170.403 195.372 169.805 195.799 169.016C196.225 168.227 196.439 167.267 196.439 166.136C196.439 164.451 195.991 163.16 195.095 162.264C194.22 161.347 193.143 160.888 191.863 160.888C190.583 160.888 189.505 161.347 188.631 162.264C187.777 163.16 187.351 164.451 187.351 166.136C187.351 167.821 187.767 169.123 188.599 170.04C189.452 170.936 190.519 171.384 191.799 171.384ZM208.813 160.024C209.389 159.085 210.136 158.349 211.053 157.816C211.992 157.283 213.058 157.016 214.253 157.016V161.72H213.069C211.661 161.72 210.594 162.051 209.869 162.712C209.165 163.373 208.813 164.525 208.813 166.168V175H204.333V157.272H208.813V160.024ZM240.096 152.664V156.28H234.144V175H229.664V156.28H223.712V152.664H240.096ZM247.844 160.024C248.42 159.085 249.167 158.349 250.084 157.816C251.023 157.283 252.09 157.016 253.284 157.016V161.72H252.1C250.692 161.72 249.626 162.051 248.9 162.712C248.196 163.373 247.844 164.525 247.844 166.168V175H243.364V157.272H247.844V160.024ZM255.15 166.072C255.15 164.28 255.502 162.691 256.206 161.304C256.931 159.917 257.902 158.851 259.118 158.104C260.355 157.357 261.731 156.984 263.246 156.984C264.568 156.984 265.72 157.251 266.702 157.784C267.704 158.317 268.504 158.989 269.102 159.8V157.272H273.614V175H269.102V172.408C268.526 173.24 267.726 173.933 266.702 174.488C265.699 175.021 264.536 175.288 263.214 175.288C261.72 175.288 260.355 174.904 259.118 174.136C257.902 173.368 256.931 172.291 256.206 170.904C255.502 169.496 255.15 167.885 255.15 166.072ZM269.102 166.136C269.102 165.048 268.888 164.12 268.462 163.352C268.035 162.563 267.459 161.965 266.734 161.56C266.008 161.133 265.23 160.92 264.398 160.92C263.566 160.92 262.798 161.123 262.094 161.528C261.39 161.933 260.814 162.531 260.366 163.32C259.939 164.088 259.726 165.005 259.726 166.072C259.726 167.139 259.939 168.077 260.366 168.888C260.814 169.677 261.39 170.285 262.094 170.712C262.819 171.139 263.587 171.352 264.398 171.352C265.23 171.352 266.008 171.149 266.734 170.744C267.459 170.317 268.035 169.72 268.462 168.952C268.888 168.163 269.102 167.224 269.102 166.136ZM276.837 166.136C276.837 164.301 277.211 162.701 277.957 161.336C278.704 159.949 279.739 158.883 281.061 158.136C282.384 157.368 283.899 156.984 285.605 156.984C287.803 156.984 289.616 157.539 291.045 158.648C292.496 159.736 293.467 161.272 293.957 163.256H289.125C288.869 162.488 288.432 161.891 287.813 161.464C287.216 161.016 286.469 160.792 285.573 160.792C284.293 160.792 283.28 161.261 282.533 162.2C281.787 163.117 281.413 164.429 281.413 166.136C281.413 167.821 281.787 169.133 282.533 170.072C283.28 170.989 284.293 171.448 285.573 171.448C287.387 171.448 288.571 170.637 289.125 169.016H293.957C293.467 170.936 292.496 172.461 291.045 173.592C289.595 174.723 287.781 175.288 285.605 175.288C283.899 175.288 282.384 174.915 281.061 174.168C279.739 173.4 278.704 172.333 277.957 170.968C277.211 169.581 276.837 167.971 276.837 166.136ZM307.735 175L301.719 167.448V175H297.239V151.32H301.719V164.792L307.671 157.272H313.495L305.687 166.168L313.559 175H307.735Z" fill="white"/>
<path d="M92.5561 227L87.6281 218.296H85.5161V227H81.0361V204.664H89.4201C91.1481 204.664 92.6201 204.973 93.8361 205.592C95.0521 206.189 95.9588 207.011 96.5561 208.056C97.1748 209.08 97.4841 210.232 97.4841 211.512C97.4841 212.984 97.0575 214.317 96.2041 215.512C95.3508 216.685 94.0815 217.496 92.3961 217.944L97.7401 227H92.5561ZM85.5161 214.936H89.2601C90.4761 214.936 91.3828 214.648 91.9801 214.072C92.5775 213.475 92.8761 212.653 92.8761 211.608C92.8761 210.584 92.5775 209.795 91.9801 209.24C91.3828 208.664 90.4761 208.376 89.2601 208.376H85.5161V214.936ZM108.32 227.288C106.869 227.288 105.568 227.032 104.416 226.52C103.264 225.987 102.347 225.272 101.664 224.376C101.003 223.48 100.64 222.488 100.576 221.4H105.088C105.173 222.083 105.504 222.648 106.08 223.096C106.677 223.544 107.413 223.768 108.288 223.768C109.141 223.768 109.803 223.597 110.272 223.256C110.763 222.915 111.008 222.477 111.008 221.944C111.008 221.368 110.709 220.941 110.112 220.664C109.536 220.365 108.608 220.045 107.328 219.704C106.005 219.384 104.917 219.053 104.064 218.712C103.232 218.371 102.507 217.848 101.888 217.144C101.291 216.44 100.992 215.491 100.992 214.296C100.992 213.315 101.269 212.419 101.824 211.608C102.4 210.797 103.211 210.157 104.256 209.688C105.323 209.219 106.571 208.984 108 208.984C110.112 208.984 111.797 209.517 113.056 210.584C114.315 211.629 115.008 213.048 115.136 214.84H110.848C110.784 214.136 110.485 213.581 109.952 213.176C109.44 212.749 108.747 212.536 107.872 212.536C107.061 212.536 106.432 212.685 105.984 212.984C105.557 213.283 105.344 213.699 105.344 214.232C105.344 214.829 105.643 215.288 106.24 215.608C106.837 215.907 107.765 216.216 109.024 216.536C110.304 216.856 111.36 217.187 112.192 217.528C113.024 217.869 113.739 218.403 114.336 219.128C114.955 219.832 115.275 220.771 115.296 221.944C115.296 222.968 115.008 223.885 114.432 224.696C113.877 225.507 113.067 226.147 112 226.616C110.955 227.064 109.728 227.288 108.32 227.288ZM120.958 227.224C120.147 227.224 119.475 226.979 118.942 226.488C118.43 225.976 118.174 225.347 118.174 224.6C118.174 223.853 118.43 223.235 118.942 222.744C119.475 222.232 120.147 221.976 120.958 221.976C121.747 221.976 122.398 222.232 122.91 222.744C123.422 223.235 123.678 223.853 123.678 224.6C123.678 225.347 123.422 225.976 122.91 226.488C122.398 226.979 121.747 227.224 120.958 227.224ZM133.855 207.8V203.672H141.567V227H136.959V207.8H133.855ZM145.993 215.032C145.993 211.341 146.654 208.451 147.977 206.36C149.321 204.269 151.54 203.224 154.633 203.224C157.726 203.224 159.934 204.269 161.257 206.36C162.601 208.451 163.273 211.341 163.273 215.032C163.273 218.744 162.601 221.656 161.257 223.768C159.934 225.88 157.726 226.936 154.633 226.936C151.54 226.936 149.321 225.88 147.977 223.768C146.654 221.656 145.993 218.744 145.993 215.032ZM158.857 215.032C158.857 213.453 158.75 212.131 158.537 211.064C158.345 209.976 157.94 209.091 157.321 208.408C156.724 207.725 155.828 207.384 154.633 207.384C153.438 207.384 152.532 207.725 151.913 208.408C151.316 209.091 150.91 209.976 150.697 211.064C150.505 212.131 150.409 213.453 150.409 215.032C150.409 216.653 150.505 218.019 150.697 219.128C150.889 220.216 151.294 221.101 151.913 221.784C152.532 222.445 153.438 222.776 154.633 222.776C155.828 222.776 156.734 222.445 157.353 221.784C157.972 221.101 158.377 220.216 158.569 219.128C158.761 218.019 158.857 216.653 158.857 215.032ZM172.088 222.296L168.344 231.288H165.464L167.544 222.296H172.088ZM174.805 215.032C174.805 211.341 175.467 208.451 176.789 206.36C178.133 204.269 180.352 203.224 183.445 203.224C186.539 203.224 188.747 204.269 190.069 206.36C191.413 208.451 192.085 211.341 192.085 215.032C192.085 218.744 191.413 221.656 190.069 223.768C188.747 225.88 186.539 226.936 183.445 226.936C180.352 226.936 178.133 225.88 176.789 223.768C175.467 221.656 174.805 218.744 174.805 215.032ZM187.669 215.032C187.669 213.453 187.563 212.131 187.349 211.064C187.157 209.976 186.752 209.091 186.133 208.408C185.536 207.725 184.64 207.384 183.445 207.384C182.251 207.384 181.344 207.725 180.725 208.408C180.128 209.091 179.723 209.976 179.509 211.064C179.317 212.131 179.221 213.453 179.221 215.032C179.221 216.653 179.317 218.019 179.509 219.128C179.701 220.216 180.107 221.101 180.725 221.784C181.344 222.445 182.251 222.776 183.445 222.776C184.64 222.776 185.547 222.445 186.165 221.784C186.784 221.101 187.189 220.216 187.381 219.128C187.573 218.019 187.669 216.653 187.669 215.032ZM195.493 215.032C195.493 211.341 196.154 208.451 197.477 206.36C198.821 204.269 201.04 203.224 204.133 203.224C207.226 203.224 209.434 204.269 210.757 206.36C212.101 208.451 212.773 211.341 212.773 215.032C212.773 218.744 212.101 221.656 210.757 223.768C209.434 225.88 207.226 226.936 204.133 226.936C201.04 226.936 198.821 225.88 197.477 223.768C196.154 221.656 195.493 218.744 195.493 215.032ZM208.357 215.032C208.357 213.453 208.25 212.131 208.037 211.064C207.845 209.976 207.44 209.091 206.821 208.408C206.224 207.725 205.328 207.384 204.133 207.384C202.938 207.384 202.032 207.725 201.413 208.408C200.816 209.091 200.41 209.976 200.197 211.064C200.005 212.131 199.909 213.453 199.909 215.032C199.909 216.653 200.005 218.019 200.197 219.128C200.389 220.216 200.794 221.101 201.413 221.784C202.032 222.445 202.938 222.776 204.133 222.776C205.328 222.776 206.234 222.445 206.853 221.784C207.472 221.101 207.877 220.216 208.069 219.128C208.261 218.019 208.357 216.653 208.357 215.032ZM216.18 215.032C216.18 211.341 216.842 208.451 218.164 206.36C219.508 204.269 221.727 203.224 224.82 203.224C227.914 203.224 230.122 204.269 231.444 206.36C232.788 208.451 233.46 211.341 233.46 215.032C233.46 218.744 232.788 221.656 231.444 223.768C230.122 225.88 227.914 226.936 224.82 226.936C221.727 226.936 219.508 225.88 218.164 223.768C216.842 221.656 216.18 218.744 216.18 215.032ZM229.044 215.032C229.044 213.453 228.938 212.131 228.724 211.064C228.532 209.976 228.127 209.091 227.508 208.408C226.911 207.725 226.015 207.384 224.82 207.384C223.626 207.384 222.719 207.725 222.1 208.408C221.503 209.091 221.098 209.976 220.884 211.064C220.692 212.131 220.596 213.453 220.596 215.032C220.596 216.653 220.692 218.019 220.884 219.128C221.076 220.216 221.482 221.101 222.1 221.784C222.719 222.445 223.626 222.776 224.82 222.776C226.015 222.776 226.922 222.445 227.54 221.784C228.159 221.101 228.564 220.216 228.756 219.128C228.948 218.019 229.044 216.653 229.044 215.032Z" fill="url(#paint0_linear_355_448)"/>
<defs>
<linearGradient id="paint0_linear_355_448" x1="61.0868" y1="190.58" x2="131.802" y2="306.95" gradientUnits="userSpaceOnUse">
<stop stop-color="#8D5D14"/>
<stop offset="0.512707" stop-color="#FFD060"/>
<stop offset="1" stop-color="#8D5D14"/>
</linearGradient>
</defs>
</svg>
