<svg width="315" height="315" viewBox="0 0 315 315" fill="none" xmlns="http://www.w3.org/2000/svg">
<path d="M233.931 190.015L241.709 187.551V123.053L233.931 125.517V190.015ZM144.069 150.833C148.949 150.833 153.49 153.007 156.389 156.63L159.578 149.287C155.423 145.277 149.867 143.393 144.069 143.393C130.638 143.393 121.41 153.973 121.507 165.665C121.604 178.323 131.556 188.662 144.069 188.662C150.398 188.662 155.229 186.778 158.853 184.12V175.134C155.036 178.951 149.528 181.222 144.745 181.222C137.499 181.222 129.334 175.328 129.334 165.665C129.334 156.727 136.387 150.833 144.069 150.833ZM195.909 143.441C182.526 143.441 174.699 154.022 174.699 165.713C174.699 178.371 184.749 188.71 197.262 188.71C203.591 188.71 208.422 186.826 212.045 184.169V175.183C208.229 178.999 202.721 181.27 197.89 181.27C191.464 181.27 184.41 177.26 182.961 168.854H217.118V165.858C217.07 153.393 208.857 143.441 195.909 143.441ZM280.07 143.441C267.557 143.441 257.411 153.587 257.411 166.1C257.411 178.613 267.557 188.759 280.07 188.759C292.583 188.759 302.729 178.613 302.729 166.1C302.729 153.587 292.535 143.441 280.07 143.441ZM196.005 150.833C202.093 150.833 208.518 154.65 209.05 161.993H182.961C183.492 154.65 189.918 150.833 196.005 150.833ZM280.07 181.27C271.663 181.27 264.851 174.458 264.851 166.051C264.851 157.645 271.663 150.833 280.07 150.833C288.476 150.833 295.288 157.645 295.288 166.051C295.288 174.506 288.476 181.27 280.07 181.27Z" fill="white"/>
<path d="M64.8842 172.864C78.6534 172.864 89.8137 161.703 89.8137 147.934C89.8137 134.165 78.6534 123.005 64.8842 123.005C51.1151 123.005 39.9548 134.165 39.9548 147.934C40.0031 161.703 51.1634 172.864 64.8842 172.864ZM64.8842 181.946C46.1388 181.946 30.9203 166.728 30.9203 147.982C30.9203 129.237 46.1388 114.018 64.8842 114.018C83.6296 114.018 98.8482 129.237 98.8482 147.982C98.8965 166.728 83.678 181.946 64.8842 181.946Z" fill="#35D07F"/>
<path d="M46.7668 190.981C60.536 190.981 71.6963 179.821 71.6963 166.051C71.6963 152.282 60.536 141.122 46.7668 141.122C32.9976 141.122 21.8374 152.282 21.8374 166.051C21.8374 179.821 33.046 190.981 46.7668 190.981ZM46.7668 200.064C28.0214 200.064 12.8029 184.845 12.8029 166.1C12.8029 147.354 28.0214 132.136 46.7668 132.136C65.5122 132.136 80.7308 147.354 80.7308 166.1C80.7308 184.845 65.5605 200.064 46.7668 200.064Z" fill="#FBCC5C"/>
<path d="M65.9953 181.898C68.3627 179.048 70.0536 175.714 70.9233 172.139C74.4984 171.221 77.832 169.578 80.6825 167.211C80.5375 171.366 79.6679 175.472 78.0253 179.289C74.2569 180.883 70.1503 181.801 65.9953 181.898ZM40.7277 141.895C37.1526 142.813 33.819 144.455 30.9685 146.823C31.1134 142.668 31.9831 138.561 33.6257 134.745C37.4424 133.15 41.549 132.232 45.7039 132.087C43.3366 134.986 41.6457 138.32 40.7277 141.895Z" fill="#5EA33B"/>
</svg>
