<svg width="24" height="24" viewBox="0 0 24 24" fill="none" xmlns="http://www.w3.org/2000/svg">
<path fill-rule="evenodd" clip-rule="evenodd" d="M12 0.298248C5.37 0.298248 0 5.66825 0 12.2982C0 17.6082 3.435 22.0932 8.205 23.6832C8.805 23.7882 9.03 23.4282 9.03 23.1132C9.03 22.8282 9.015 21.8832 9.015 20.8782C6 21.4332 5.22 20.1432 4.98 19.4682C4.845 19.1232 4.26 18.0582 3.75 17.7732C3.33 17.5482 2.73 16.9932 3.735 16.9782C4.68 16.9632 5.355 17.8482 5.58 18.2082C6.66 20.0232 8.385 19.5132 9.075 19.1982C9.18 18.4182 9.495 17.8932 9.84 17.5932C7.17 17.2932 4.38 16.2582 4.38 11.6682C4.38 10.3632 4.845 9.28325 5.61 8.44325C5.49 8.14325 5.07 6.91325 5.73 5.26325C5.73 5.26325 6.735 4.94825 9.03 6.49325C9.99 6.22325 11.01 6.08825 12.03 6.08825C13.05 6.08825 14.07 6.22325 15.03 6.49325C17.325 4.93325 18.33 5.26325 18.33 5.26325C18.99 6.91325 18.57 8.14325 18.45 8.44325C19.215 9.28325 19.68 10.3482 19.68 11.6682C19.68 16.2732 16.875 17.2932 14.205 17.5932C14.64 17.9682 15.015 18.6882 15.015 19.8132C15.015 21.4182 15 22.7082 15 23.1132C15 23.4282 15.225 23.8032 15.825 23.6832C18.2072 22.879 20.2772 21.3479 21.7437 19.3056C23.2101 17.2633 23.9993 14.8125 24 12.2982C24 5.66825 18.63 0.298248 12 0.298248Z" fill="#787878"/>
</svg>
