<svg width="227" height="279" viewBox="0 0 227 279" fill="none" xmlns="http://www.w3.org/2000/svg">
<path d="M6.8755 191.664V214H2.3955V191.664H6.8755ZM21.1258 196.016C23.2378 196.016 24.9444 196.688 26.2458 198.032C27.5471 199.355 28.1978 201.211 28.1978 203.6V214H23.7178V204.208C23.7178 202.8 23.3658 201.723 22.6618 200.976C21.9578 200.208 20.9978 199.824 19.7818 199.824C18.5444 199.824 17.5631 200.208 16.8378 200.976C16.1338 201.723 15.7818 202.8 15.7818 204.208V214H11.3018V196.272H15.7818V198.48C16.3791 197.712 17.1364 197.115 18.0538 196.688C18.9924 196.24 20.0164 196.016 21.1258 196.016ZM46.09 200.688V204.464H32.522V200.688H46.09ZM61.0983 196.016C62.4423 196.016 63.6369 196.315 64.6823 196.912C65.7276 197.488 66.5383 198.352 67.1143 199.504C67.7116 200.635 68.0103 202 68.0103 203.6V214H63.5303V204.208C63.5303 202.8 63.1783 201.723 62.4743 200.976C61.7703 200.208 60.8103 199.824 59.5943 199.824C58.3569 199.824 57.3756 200.208 56.6503 200.976C55.9463 201.723 55.5943 202.8 55.5943 204.208V214H51.1143V190.32H55.5943V198.48C56.1703 197.712 56.9383 197.115 57.8983 196.688C58.8583 196.24 59.9249 196.016 61.0983 196.016ZM71.1185 205.072C71.1185 203.28 71.4705 201.691 72.1745 200.304C72.8998 198.917 73.8705 197.851 75.0865 197.104C76.3238 196.357 77.6998 195.984 79.2145 195.984C80.5372 195.984 81.6892 196.251 82.6705 196.784C83.6732 197.317 84.4732 197.989 85.0705 198.8V196.272H89.5825V214H85.0705V211.408C84.4945 212.24 83.6945 212.933 82.6705 213.488C81.6678 214.021 80.5052 214.288 79.1825 214.288C77.6892 214.288 76.3238 213.904 75.0865 213.136C73.8705 212.368 72.8998 211.291 72.1745 209.904C71.4705 208.496 71.1185 206.885 71.1185 205.072ZM85.0705 205.136C85.0705 204.048 84.8572 203.12 84.4305 202.352C84.0038 201.563 83.4278 200.965 82.7025 200.56C81.9772 200.133 81.1985 199.92 80.3665 199.92C79.5345 199.92 78.7665 200.123 78.0625 200.528C77.3585 200.933 76.7825 201.531 76.3345 202.32C75.9078 203.088 75.6945 204.005 75.6945 205.072C75.6945 206.139 75.9078 207.077 76.3345 207.888C76.7825 208.677 77.3585 209.285 78.0625 209.712C78.7878 210.139 79.5558 210.352 80.3665 210.352C81.1985 210.352 81.9772 210.149 82.7025 209.744C83.4278 209.317 84.0038 208.72 84.4305 207.952C84.8572 207.163 85.0705 206.224 85.0705 205.136ZM92.806 205.136C92.806 203.301 93.1793 201.701 93.926 200.336C94.6727 198.949 95.7073 197.883 97.03 197.136C98.3527 196.368 99.8673 195.984 101.574 195.984C103.771 195.984 105.585 196.539 107.014 197.648C108.465 198.736 109.435 200.272 109.926 202.256H105.094C104.838 201.488 104.401 200.891 103.782 200.464C103.185 200.016 102.438 199.792 101.542 199.792C100.262 199.792 99.2487 200.261 98.502 201.2C97.7553 202.117 97.382 203.429 97.382 205.136C97.382 206.821 97.7553 208.133 98.502 209.072C99.2487 209.989 100.262 210.448 101.542 210.448C103.355 210.448 104.539 209.637 105.094 208.016H109.926C109.435 209.936 108.465 211.461 107.014 212.592C105.563 213.723 103.75 214.288 101.574 214.288C99.8673 214.288 98.3527 213.915 97.03 213.168C95.7073 212.4 94.6727 211.333 93.926 209.968C93.1793 208.581 92.806 206.971 92.806 205.136ZM123.704 214L117.688 206.448V214H113.208V190.32H117.688V203.792L123.64 196.272H129.464L121.656 205.168L129.528 214H123.704ZM144.001 195.28V200.88H151.521V204.432H144.001V210.352H152.481V214H139.521V191.632H152.481V195.28H144.001ZM163.944 209.872L168.424 196.272H173.192L166.632 214H161.192L154.664 196.272H159.464L163.944 209.872ZM192.188 204.752C192.188 205.392 192.145 205.968 192.06 206.48H179.1C179.207 207.76 179.655 208.763 180.444 209.488C181.233 210.213 182.204 210.576 183.356 210.576C185.02 210.576 186.204 209.861 186.908 208.432H191.74C191.228 210.139 190.247 211.547 188.796 212.656C187.345 213.744 185.564 214.288 183.452 214.288C181.745 214.288 180.209 213.915 178.844 213.168C177.5 212.4 176.444 211.323 175.676 209.936C174.929 208.549 174.556 206.949 174.556 205.136C174.556 203.301 174.929 201.691 175.676 200.304C176.423 198.917 177.468 197.851 178.812 197.104C180.156 196.357 181.703 195.984 183.452 195.984C185.137 195.984 186.641 196.347 187.964 197.072C189.308 197.797 190.343 198.832 191.068 200.176C191.815 201.499 192.188 203.024 192.188 204.752ZM187.548 203.472C187.527 202.32 187.111 201.403 186.3 200.72C185.489 200.016 184.497 199.664 183.324 199.664C182.215 199.664 181.276 200.005 180.508 200.688C179.761 201.349 179.303 202.277 179.132 203.472H187.548ZM205.282 196.016C207.394 196.016 209.101 196.688 210.402 198.032C211.703 199.355 212.354 201.211 212.354 203.6V214H207.874V204.208C207.874 202.8 207.522 201.723 206.818 200.976C206.114 200.208 205.154 199.824 203.938 199.824C202.701 199.824 201.719 200.208 200.994 200.976C200.29 201.723 199.938 202.8 199.938 204.208V214H195.458V196.272H199.938V198.48C200.535 197.712 201.293 197.115 202.21 196.688C203.149 196.24 204.173 196.016 205.282 196.016ZM221.83 199.952V208.528C221.83 209.125 221.969 209.563 222.246 209.84C222.545 210.096 223.036 210.224 223.718 210.224H225.798V214H222.982C219.206 214 217.318 212.165 217.318 208.496V199.952H215.206V196.272H217.318V191.888H221.83V196.272H225.798V199.952H221.83Z" fill="white"/>
<path d="M54.8999 266L49.9719 257.296H47.8599V266H43.3799V243.664H51.7639C53.4919 243.664 54.9639 243.973 56.1799 244.592C57.3959 245.189 58.3025 246.011 58.8999 247.056C59.5185 248.08 59.8279 249.232 59.8279 250.512C59.8279 251.984 59.4012 253.317 58.5479 254.512C57.6945 255.685 56.4252 256.496 54.7399 256.944L60.0839 266H54.8999ZM47.8599 253.936H51.6039C52.8199 253.936 53.7265 253.648 54.3239 253.072C54.9212 252.475 55.2199 251.653 55.2199 250.608C55.2199 249.584 54.9212 248.795 54.3239 248.24C53.7265 247.664 52.8199 247.376 51.6039 247.376H47.8599V253.936ZM70.6639 266.288C69.2132 266.288 67.9119 266.032 66.7599 265.52C65.6079 264.987 64.6905 264.272 64.0079 263.376C63.3465 262.48 62.9839 261.488 62.9199 260.4H67.4319C67.5172 261.083 67.8479 261.648 68.4239 262.096C69.0212 262.544 69.7572 262.768 70.6319 262.768C71.4852 262.768 72.1465 262.597 72.6159 262.256C73.1065 261.915 73.3519 261.477 73.3519 260.944C73.3519 260.368 73.0532 259.941 72.4559 259.664C71.8799 259.365 70.9519 259.045 69.6719 258.704C68.3492 258.384 67.2612 258.053 66.4079 257.712C65.5759 257.371 64.8505 256.848 64.2319 256.144C63.6345 255.44 63.3359 254.491 63.3359 253.296C63.3359 252.315 63.6132 251.419 64.1679 250.608C64.7439 249.797 65.5545 249.157 66.5999 248.688C67.6665 248.219 68.9145 247.984 70.3439 247.984C72.4559 247.984 74.1412 248.517 75.3999 249.584C76.6585 250.629 77.3519 252.048 77.4799 253.84H73.1919C73.1279 253.136 72.8292 252.581 72.2959 252.176C71.7839 251.749 71.0905 251.536 70.2159 251.536C69.4052 251.536 68.7759 251.685 68.3279 251.984C67.9012 252.283 67.6879 252.699 67.6879 253.232C67.6879 253.829 67.9865 254.288 68.5839 254.608C69.1812 254.907 70.1092 255.216 71.3679 255.536C72.6479 255.856 73.7039 256.187 74.5359 256.528C75.3679 256.869 76.0825 257.403 76.6799 258.128C77.2985 258.832 77.6185 259.771 77.6399 260.944C77.6399 261.968 77.3519 262.885 76.7759 263.696C76.2212 264.507 75.4105 265.147 74.3439 265.616C73.2985 266.064 72.0719 266.288 70.6639 266.288ZM83.3014 266.224C82.4907 266.224 81.8187 265.979 81.2854 265.488C80.7734 264.976 80.5174 264.347 80.5174 263.6C80.5174 262.853 80.7734 262.235 81.2854 261.744C81.8187 261.232 82.4907 260.976 83.3014 260.976C84.0907 260.976 84.7414 261.232 85.2534 261.744C85.7654 262.235 86.0214 262.853 86.0214 263.6C86.0214 264.347 85.7654 264.976 85.2534 265.488C84.7414 265.979 84.0907 266.224 83.3014 266.224ZM112.423 246.544H102.055V252.016C102.503 251.461 103.143 251.013 103.975 250.672C104.807 250.309 105.692 250.128 106.631 250.128C108.338 250.128 109.735 250.501 110.823 251.248C111.911 251.995 112.7 252.955 113.191 254.128C113.682 255.28 113.927 256.517 113.927 257.84C113.927 260.293 113.223 262.267 111.815 263.76C110.428 265.253 108.444 266 105.863 266C103.431 266 101.49 265.392 100.039 264.176C98.5882 262.96 97.7669 261.371 97.5749 259.408H101.927C102.119 260.261 102.546 260.944 103.207 261.456C103.89 261.968 104.754 262.224 105.799 262.224C107.058 262.224 108.007 261.829 108.647 261.04C109.287 260.251 109.607 259.205 109.607 257.904C109.607 256.581 109.276 255.579 108.615 254.896C107.975 254.192 107.026 253.84 105.767 253.84C104.871 253.84 104.124 254.064 103.527 254.512C102.93 254.96 102.503 255.557 102.247 256.304H97.9589V242.608H112.423V246.544ZM122.745 261.296L119.001 270.288H116.121L118.201 261.296H122.745ZM125.462 254.032C125.462 250.341 126.123 247.451 127.446 245.36C128.79 243.269 131.008 242.224 134.102 242.224C137.195 242.224 139.403 243.269 140.726 245.36C142.07 247.451 142.742 250.341 142.742 254.032C142.742 257.744 142.07 260.656 140.726 262.768C139.403 264.88 137.195 265.936 134.102 265.936C131.008 265.936 128.79 264.88 127.446 262.768C126.123 260.656 125.462 257.744 125.462 254.032ZM138.326 254.032C138.326 252.453 138.219 251.131 138.006 250.064C137.814 248.976 137.408 248.091 136.79 247.408C136.192 246.725 135.296 246.384 134.102 246.384C132.907 246.384 132 246.725 131.382 247.408C130.784 248.091 130.379 248.976 130.166 250.064C129.974 251.131 129.878 252.453 129.878 254.032C129.878 255.653 129.974 257.019 130.166 258.128C130.358 259.216 130.763 260.101 131.382 260.784C132 261.445 132.907 261.776 134.102 261.776C135.296 261.776 136.203 261.445 136.822 260.784C137.44 260.101 137.846 259.216 138.038 258.128C138.23 257.019 138.326 255.653 138.326 254.032ZM146.149 254.032C146.149 250.341 146.81 247.451 148.133 245.36C149.477 243.269 151.696 242.224 154.789 242.224C157.882 242.224 160.09 243.269 161.413 245.36C162.757 247.451 163.429 250.341 163.429 254.032C163.429 257.744 162.757 260.656 161.413 262.768C160.09 264.88 157.882 265.936 154.789 265.936C151.696 265.936 149.477 264.88 148.133 262.768C146.81 260.656 146.149 257.744 146.149 254.032ZM159.013 254.032C159.013 252.453 158.906 251.131 158.693 250.064C158.501 248.976 158.096 248.091 157.477 247.408C156.88 246.725 155.984 246.384 154.789 246.384C153.594 246.384 152.688 246.725 152.069 247.408C151.472 248.091 151.066 248.976 150.853 250.064C150.661 251.131 150.565 252.453 150.565 254.032C150.565 255.653 150.661 257.019 150.853 258.128C151.045 259.216 151.45 260.101 152.069 260.784C152.688 261.445 153.594 261.776 154.789 261.776C155.984 261.776 156.89 261.445 157.509 260.784C158.128 260.101 158.533 259.216 158.725 258.128C158.917 257.019 159.013 255.653 159.013 254.032ZM166.837 254.032C166.837 250.341 167.498 247.451 168.821 245.36C170.165 243.269 172.383 242.224 175.477 242.224C178.57 242.224 180.778 243.269 182.101 245.36C183.445 247.451 184.117 250.341 184.117 254.032C184.117 257.744 183.445 260.656 182.101 262.768C180.778 264.88 178.57 265.936 175.477 265.936C172.383 265.936 170.165 264.88 168.821 262.768C167.498 260.656 166.837 257.744 166.837 254.032ZM179.701 254.032C179.701 252.453 179.594 251.131 179.381 250.064C179.189 248.976 178.783 248.091 178.165 247.408C177.567 246.725 176.671 246.384 175.477 246.384C174.282 246.384 173.375 246.725 172.757 247.408C172.159 248.091 171.754 248.976 171.541 250.064C171.349 251.131 171.253 252.453 171.253 254.032C171.253 255.653 171.349 257.019 171.541 258.128C171.733 259.216 172.138 260.101 172.757 260.784C173.375 261.445 174.282 261.776 175.477 261.776C176.671 261.776 177.578 261.445 178.197 260.784C178.815 260.101 179.221 259.216 179.413 258.128C179.605 257.019 179.701 255.653 179.701 254.032Z" fill="url(#paint0_linear_355_448)"/>
<path d="M50.5 19C50.5 14.0272 52.4754 9.25806 55.9917 5.74175C59.5081 2.22544 64.2772 0.25 69.25 0.25H169.25C174.223 0.25 178.992 2.22544 182.508 5.74175C186.025 9.25806 188 14.0272 188 19V81.5C188 86.4728 186.025 91.242 182.508 94.7583C178.992 98.2746 174.223 100.25 169.25 100.25H119.25V87.75H169.25C170.908 87.75 172.497 87.0915 173.669 85.9194C174.842 84.7473 175.5 83.1576 175.5 81.5V19C175.5 17.3424 174.842 15.7527 173.669 14.5806C172.497 13.4085 170.908 12.75 169.25 12.75H69.25C67.5924 12.75 66.0027 13.4085 64.8306 14.5806C63.6585 15.7527 63 17.3424 63 19H56.75C54.5875 19 52.5 19.275 50.5 19.7875V19ZM194.25 125.25H119.25V112.75H194.25C195.908 112.75 197.497 113.408 198.669 114.581C199.842 115.753 200.5 117.342 200.5 119C200.5 120.658 199.842 122.247 198.669 123.419C197.497 124.592 195.908 125.25 194.25 125.25ZM69.25 125.25C70.9076 125.25 72.4973 124.592 73.6694 123.419C74.8415 122.247 75.5 120.658 75.5 119C75.5 117.342 74.8415 115.753 73.6694 114.581C72.4973 113.408 70.9076 112.75 69.25 112.75C67.5924 112.75 66.0027 113.408 64.8306 114.581C63.6585 115.753 63 117.342 63 119C63 120.658 63.6585 122.247 64.8306 123.419C66.0027 124.592 67.5924 125.25 69.25 125.25ZM31.75 50.25C31.75 45.2772 33.7254 40.5081 37.2417 36.9917C40.7581 33.4754 45.5272 31.5 50.5 31.5H88C92.9728 31.5 97.742 33.4754 101.258 36.9917C104.775 40.5081 106.75 45.2772 106.75 50.25V125.25C106.75 130.223 104.775 134.992 101.258 138.508C97.742 142.025 92.9728 144 88 144H50.5C45.5272 144 40.7581 142.025 37.2417 138.508C33.7254 134.992 31.75 130.223 31.75 125.25V50.25ZM50.5 44C48.8424 44 47.2527 44.6585 46.0806 45.8306C44.9085 47.0027 44.25 48.5924 44.25 50.25V125.25C44.25 126.908 44.9085 128.497 46.0806 129.669C47.2527 130.842 48.8424 131.5 50.5 131.5H88C89.6576 131.5 91.2473 130.842 92.4194 129.669C93.5915 128.497 94.25 126.908 94.25 125.25V50.25C94.25 48.5924 93.5915 47.0027 92.4194 45.8306C91.2473 44.6585 89.6576 44 88 44H50.5Z" fill="url(#paint1_linear_355_448)"/>
<defs>
<linearGradient id="paint0_linear_355_448" x1="24.9177" y1="229.58" x2="98.0838" y2="340.781" gradientUnits="userSpaceOnUse">
<stop stop-color="#8D5D14"/>
<stop offset="0.512707" stop-color="#FFD060"/>
<stop offset="1" stop-color="#8D5D14"/>
</linearGradient>
<linearGradient id="paint1_linear_355_448" x1="13.0335" y1="-4.00193" x2="221.985" y2="119.409" gradientUnits="userSpaceOnUse">
<stop stop-color="#8D5D14"/>
<stop offset="0.512707" stop-color="#FFD060"/>
<stop offset="1" stop-color="#8D5D14"/>
</linearGradient>
</defs>
</svg>
