<svg width="527" height="187" viewBox="0 0 527 187" fill="none" xmlns="http://www.w3.org/2000/svg">
<path d="M48.1765 113.488L43 122.547H105.118L101.235 113.488H48.1765Z" fill="url(#paint0_linear_1532_8098)" stroke="url(#paint1_linear_1532_8098)" stroke-width="2.58823"/>
<path d="M105.894 100.534V101H82.6934V100.534L87.7249 95.3162L82.8798 82.8306H57.1631L53.0633 93.6391L60.6106 100.534V101H43.4661V100.534L47.9386 93.6391L67.2261 44.2556L63.8718 36.2424V35.7765H78.78L102.167 95.3162L105.894 100.534ZM81.3889 79.0104L69.7419 49.1939L58.5607 79.0104H81.3889ZM160.094 75.0038C160.094 82.7685 157.64 89.2908 152.733 94.5708C147.888 99.8508 141.862 102.491 134.657 102.491C131.24 102.491 128.6 101.994 126.737 101V114.976L132.607 119.169V119.635H110.245V119.169L114.531 114.976V61.4L109.406 56.8344V56.3685L125.06 52.0824H125.991L126.644 59.816H127.203C129.563 57.0207 131.768 55.033 133.818 53.8527C135.93 52.6725 138.291 52.0824 140.9 52.0824C146.49 52.0824 151.087 54.2254 154.69 58.5115C158.292 62.7977 160.094 68.2951 160.094 75.0038ZM148.447 80.5944C148.447 74.569 147.049 69.5995 144.254 65.6861C141.459 61.7727 137.949 59.816 133.725 59.816C130.743 59.816 128.414 60.9341 126.737 63.1704V96.5275C128.6 98.0184 131.116 98.7638 134.284 98.7638C138.57 98.7638 141.987 97.1487 144.533 93.9186C147.142 90.6264 148.447 86.1849 148.447 80.5944ZM217.055 75.0038C217.055 82.7685 214.602 89.2908 209.694 94.5708C204.849 99.8508 198.824 102.491 191.618 102.491C188.202 102.491 185.562 101.994 183.698 101V114.976L189.568 119.169V119.635H167.206V119.169L171.492 114.976V61.4L166.367 56.8344V56.3685L182.021 52.0824H182.953L183.605 59.816H184.164C186.524 57.0207 188.73 55.033 190.78 53.8527C192.892 52.6725 195.252 52.0824 197.861 52.0824C203.452 52.0824 208.048 54.2254 211.651 58.5115C215.254 62.7977 217.055 68.2951 217.055 75.0038ZM205.408 80.5944C205.408 74.569 204.011 69.5995 201.215 65.6861C198.42 61.7727 194.91 59.816 190.686 59.816C187.705 59.816 185.375 60.9341 183.698 63.1704V96.5275C185.562 98.0184 188.077 98.7638 191.245 98.7638C195.532 98.7638 198.948 97.1487 201.495 93.9186C204.104 90.6264 205.408 86.1849 205.408 80.5944ZM239.728 102.398C236.932 102.398 234.448 101.714 232.274 100.348C230.162 98.9191 228.764 96.8381 228.081 94.1049V58.1388H221.651V57.673L238.703 43.976H240.287V53.48H253.052L252.4 58.1388H240.287V88.5144C240.287 90.8748 240.877 92.6762 242.057 93.9186C243.299 95.0988 244.915 95.6889 246.902 95.6889C249.573 95.6889 251.996 94.7261 254.17 92.8005L254.543 93.08C253.176 95.9374 251.157 98.2047 248.486 99.8819C245.877 101.559 242.958 102.398 239.728 102.398ZM274.94 40.6217C273.697 41.8019 272.02 42.392 269.908 42.392C267.796 42.392 266.088 41.8019 264.783 40.6217C263.479 39.4414 262.827 37.8264 262.827 35.7765C262.827 33.7266 263.479 32.1426 264.783 31.0245C266.088 29.8443 267.796 29.2542 269.908 29.2542C272.02 29.2542 273.697 29.8443 274.94 31.0245C276.244 32.1426 276.896 33.7266 276.896 35.7765C276.896 37.8264 276.244 39.4414 274.94 40.6217ZM280.344 100.627V101H259.472V100.627L263.758 96.3412V61.5864L258.634 56.9276V56.5548L275.033 52.0824H275.965V96.3412L280.344 100.627ZM303.605 102.398C300.809 102.398 298.325 101.714 296.15 100.348C294.038 98.9191 292.641 96.8381 291.957 94.1049V58.1388H285.528V57.673L302.58 43.976H304.164V53.48H316.929L316.276 58.1388H304.164V88.5144C304.164 90.8748 304.754 92.6762 305.934 93.9186C307.176 95.0988 308.791 95.6889 310.779 95.6889C313.45 95.6889 315.873 94.7261 318.047 92.8005L318.42 93.08C317.053 95.9374 315.034 98.2047 312.363 99.8819C309.754 101.559 306.835 102.398 303.605 102.398ZM339.655 102.398C335.742 102.398 332.543 101.248 330.058 98.9501C327.635 96.5896 326.424 93.5459 326.424 89.8188V61.5864L321.299 56.9276V56.4617L337.698 51.9892H338.63V87.1167C338.63 89.6014 339.282 91.5581 340.587 92.9868C341.953 94.3534 343.817 95.0367 346.177 95.0367C349.345 95.0367 352.7 93.5459 356.24 90.5642V61.6795L351.116 57.0207V56.5548L367.515 52.0824H368.447V93.7322L373.199 98.1115V98.5774L357.638 102.398L356.52 93.9186H355.961C350.867 99.5713 345.432 102.398 339.655 102.398ZM379.84 79.5694C379.84 71.7426 382.263 65.2203 387.108 60.0024C392.015 54.7224 398.01 52.0824 405.091 52.0824C408.445 52.0824 411.117 52.5483 413.104 53.48V38.8513L407.98 34.0993V33.7266L424.379 29.2542H425.31V93.6391L430.156 98.2047V98.6706L414.316 102.398L413.291 94.664H412.732C410.309 97.5214 408.042 99.5402 405.93 100.72C403.88 101.901 401.55 102.491 398.941 102.491C393.413 102.491 388.847 100.348 385.245 96.0616C381.642 91.7134 379.84 86.216 379.84 79.5694ZM391.487 73.8857C391.487 79.849 392.854 84.8184 395.587 88.7939C398.32 92.7073 401.83 94.664 406.116 94.664C408.973 94.664 411.303 93.5459 413.104 91.3097V57.9525C411.241 56.4617 408.694 55.7163 405.464 55.7163C401.178 55.7163 397.761 57.3624 395.214 60.6546C392.73 63.8847 391.487 68.2951 391.487 73.8857ZM458.718 102.398C452.009 102.398 446.543 100.161 442.319 95.6889C438.095 91.1544 435.983 85.2842 435.983 78.0786C435.983 70.6866 438.188 64.5059 442.598 59.5365C447.071 54.5671 452.599 52.0824 459.184 52.0824C470.178 52.0824 476.918 59.1948 479.403 73.4198H445.953C446.263 79.5694 448.002 84.4767 451.17 88.1417C454.338 91.8066 458.469 93.6391 463.563 93.6391C470.272 93.6391 475.614 90.3468 479.589 83.7624L480.055 84.0419C478.999 89.7567 476.577 94.2602 472.787 97.5525C469.06 100.783 464.37 102.398 458.718 102.398ZM456.761 55.5299C453.531 55.5299 450.984 56.8033 449.121 59.3501C447.257 61.897 446.201 65.5308 445.953 70.2518H467.756C466.762 65.096 465.395 61.369 463.656 59.0706C461.917 56.7101 459.618 55.5299 456.761 55.5299Z" fill="url(#paint2_linear_1532_8098)"/>
<path d="M2.176 177V154.6H10.464C12.256 154.6 13.7387 154.899 14.912 155.496C16.0853 156.093 16.96 156.915 17.536 157.96C18.112 159.005 18.4 160.179 18.4 161.48C18.4 162.717 18.1227 163.859 17.568 164.904C17.0133 165.928 16.1493 166.76 14.976 167.4C13.8027 168.019 12.2987 168.328 10.464 168.328H6.272V177H2.176ZM6.272 165H10.208C11.6373 165 12.6613 164.691 13.28 164.072C13.92 163.432 14.24 162.568 14.24 161.48C14.24 160.371 13.92 159.507 13.28 158.888C12.6613 158.248 11.6373 157.928 10.208 157.928H6.272V165ZM21.5175 177V153.96H25.6135V177H21.5175ZM37.5108 177.384C35.9108 177.384 34.4921 177.043 33.2548 176.36C32.0174 175.677 31.0468 174.717 30.3428 173.48C29.6388 172.243 29.2868 170.813 29.2868 169.192C29.2868 167.549 29.6281 166.088 30.3108 164.808C31.0148 163.528 31.9748 162.536 33.1908 161.832C34.4281 161.107 35.8788 160.744 37.5428 160.744C39.1001 160.744 40.4761 161.085 41.6708 161.768C42.8654 162.451 43.7934 163.389 44.4548 164.584C45.1374 165.757 45.4788 167.069 45.4788 168.52C45.4788 168.755 45.4681 169 45.4468 169.256C45.4468 169.512 45.4361 169.779 45.4148 170.056H33.3508C33.4361 171.293 33.8628 172.264 34.6308 172.968C35.4201 173.672 36.3694 174.024 37.4788 174.024C38.3108 174.024 39.0041 173.843 39.5588 173.48C40.1348 173.096 40.5614 172.605 40.8388 172.008H44.9988C44.7001 173.011 44.1988 173.928 43.4948 174.76C42.8121 175.571 41.9588 176.211 40.9348 176.68C39.9321 177.149 38.7908 177.384 37.5108 177.384ZM37.5428 164.072C36.5401 164.072 35.6548 164.36 34.8868 164.936C34.1188 165.491 33.6281 166.344 33.4148 167.496H41.3188C41.2548 166.451 40.8708 165.619 40.1668 165C39.4628 164.381 38.5881 164.072 37.5428 164.072ZM54.3958 177.384C53.0304 177.384 51.9104 177.171 51.0358 176.744C50.1611 176.296 49.5104 175.709 49.0838 174.984C48.6571 174.259 48.4438 173.459 48.4438 172.584C48.4438 171.112 49.0198 169.917 50.1718 169C51.3238 168.083 53.0518 167.624 55.3558 167.624H59.3878V167.24C59.3878 166.152 59.0784 165.352 58.4598 164.84C57.8411 164.328 57.0731 164.072 56.1558 164.072C55.3238 164.072 54.5984 164.275 53.9798 164.68C53.3611 165.064 52.9771 165.64 52.8278 166.408H48.8278C48.9344 165.256 49.3184 164.253 49.9798 163.4C50.6624 162.547 51.5371 161.896 52.6038 161.448C53.6704 160.979 54.8651 160.744 56.1878 160.744C58.4491 160.744 60.2304 161.309 61.5318 162.44C62.8331 163.571 63.4838 165.171 63.4838 167.24V177H59.9958L59.6118 174.44C59.1424 175.293 58.4811 175.997 57.6278 176.552C56.7958 177.107 55.7184 177.384 54.3958 177.384ZM55.3238 174.184C56.4971 174.184 57.4038 173.8 58.0438 173.032C58.7051 172.264 59.1211 171.315 59.2918 170.184H55.8038C54.7158 170.184 53.9371 170.387 53.4678 170.792C52.9984 171.176 52.7638 171.656 52.7638 172.232C52.7638 172.851 52.9984 173.331 53.4678 173.672C53.9371 174.013 54.5558 174.184 55.3238 174.184ZM73.9525 177.384C72.5445 177.384 71.3072 177.16 70.2405 176.712C69.1738 176.243 68.3205 175.603 67.6805 174.792C67.0405 173.981 66.6565 173.043 66.5285 171.976H70.6565C70.7845 172.595 71.1258 173.128 71.6805 173.576C72.2565 174.003 72.9925 174.216 73.8885 174.216C74.7845 174.216 75.4352 174.035 75.8405 173.672C76.2672 173.309 76.4805 172.893 76.4805 172.424C76.4805 171.741 76.1818 171.283 75.5845 171.048C74.9872 170.792 74.1552 170.547 73.0885 170.312C72.4058 170.163 71.7125 169.981 71.0085 169.768C70.3045 169.555 69.6538 169.288 69.0565 168.968C68.4805 168.627 68.0112 168.2 67.6485 167.688C67.2858 167.155 67.1045 166.504 67.1045 165.736C67.1045 164.328 67.6592 163.144 68.7685 162.184C69.8992 161.224 71.4778 160.744 73.5045 160.744C75.3818 160.744 76.8752 161.181 77.9845 162.056C79.1152 162.931 79.7872 164.136 80.0005 165.672H76.1285C75.8938 164.499 75.0085 163.912 73.4725 163.912C72.7045 163.912 72.1072 164.061 71.6805 164.36C71.2752 164.659 71.0725 165.032 71.0725 165.48C71.0725 165.949 71.3818 166.323 72.0005 166.6C72.6192 166.877 73.4405 167.133 74.4645 167.368C75.5738 167.624 76.5872 167.912 77.5045 168.232C78.4432 168.531 79.1898 168.989 79.7445 169.608C80.2992 170.205 80.5765 171.069 80.5765 172.2C80.5978 173.181 80.3418 174.067 79.8085 174.856C79.2752 175.645 78.5072 176.264 77.5045 176.712C76.5018 177.16 75.3178 177.384 73.9525 177.384ZM91.917 177.384C90.317 177.384 88.8983 177.043 87.661 176.36C86.4237 175.677 85.453 174.717 84.749 173.48C84.045 172.243 83.693 170.813 83.693 169.192C83.693 167.549 84.0343 166.088 84.717 164.808C85.421 163.528 86.381 162.536 87.597 161.832C88.8343 161.107 90.285 160.744 91.949 160.744C93.5063 160.744 94.8823 161.085 96.077 161.768C97.2717 162.451 98.1997 163.389 98.861 164.584C99.5437 165.757 99.885 167.069 99.885 168.52C99.885 168.755 99.8743 169 99.853 169.256C99.853 169.512 99.8423 169.779 99.821 170.056H87.757C87.8423 171.293 88.269 172.264 89.037 172.968C89.8263 173.672 90.7757 174.024 91.885 174.024C92.717 174.024 93.4103 173.843 93.965 173.48C94.541 173.096 94.9677 172.605 95.245 172.008H99.405C99.1063 173.011 98.605 173.928 97.901 174.76C97.2183 175.571 96.365 176.211 95.341 176.68C94.3383 177.149 93.197 177.384 91.917 177.384ZM91.949 164.072C90.9463 164.072 90.061 164.36 89.293 164.936C88.525 165.491 88.0343 166.344 87.821 167.496H95.725C95.661 166.451 95.277 165.619 94.573 165C93.869 164.381 92.9943 164.072 91.949 164.072ZM118.571 177.384C117.035 177.384 115.648 177.032 114.411 176.328C113.195 175.624 112.224 174.653 111.499 173.416C110.795 172.157 110.443 170.707 110.443 169.064C110.443 167.421 110.806 165.981 111.531 164.744C112.256 163.485 113.227 162.504 114.443 161.8C115.68 161.096 117.067 160.744 118.603 160.744C120.118 160.744 121.483 161.096 122.699 161.8C123.936 162.504 124.907 163.485 125.611 164.744C126.336 165.981 126.699 167.421 126.699 169.064C126.699 170.707 126.336 172.157 125.611 173.416C124.907 174.653 123.936 175.624 122.699 176.328C121.462 177.032 120.086 177.384 118.571 177.384ZM118.571 173.832C119.638 173.832 120.566 173.437 121.355 172.648C122.144 171.837 122.539 170.643 122.539 169.064C122.539 167.485 122.144 166.301 121.355 165.512C120.566 164.701 119.648 164.296 118.603 164.296C117.515 164.296 116.576 164.701 115.787 165.512C115.019 166.301 114.635 167.485 114.635 169.064C114.635 170.643 115.019 171.837 115.787 172.648C116.576 173.437 117.504 173.832 118.571 173.832ZM130.361 184.04V161.128H134.009L134.457 163.4C134.969 162.696 135.641 162.077 136.473 161.544C137.327 161.011 138.425 160.744 139.769 160.744C141.263 160.744 142.596 161.107 143.769 161.832C144.943 162.557 145.871 163.549 146.553 164.808C147.236 166.067 147.577 167.496 147.577 169.096C147.577 170.696 147.236 172.125 146.553 173.384C145.871 174.621 144.943 175.603 143.769 176.328C142.596 177.032 141.263 177.384 139.769 177.384C138.575 177.384 137.529 177.16 136.633 176.712C135.737 176.264 135.012 175.635 134.457 174.824V184.04H130.361ZM138.905 173.8C140.207 173.8 141.284 173.363 142.137 172.488C142.991 171.613 143.417 170.483 143.417 169.096C143.417 167.709 142.991 166.568 142.137 165.672C141.284 164.776 140.207 164.328 138.905 164.328C137.583 164.328 136.495 164.776 135.641 165.672C134.809 166.547 134.393 167.677 134.393 169.064C134.393 170.451 134.809 171.592 135.641 172.488C136.495 173.363 137.583 173.8 138.905 173.8ZM158.948 177.384C157.348 177.384 155.93 177.043 154.692 176.36C153.455 175.677 152.484 174.717 151.78 173.48C151.076 172.243 150.724 170.813 150.724 169.192C150.724 167.549 151.066 166.088 151.748 164.808C152.452 163.528 153.412 162.536 154.628 161.832C155.866 161.107 157.316 160.744 158.98 160.744C160.538 160.744 161.914 161.085 163.108 161.768C164.303 162.451 165.231 163.389 165.892 164.584C166.575 165.757 166.916 167.069 166.916 168.52C166.916 168.755 166.906 169 166.884 169.256C166.884 169.512 166.874 169.779 166.852 170.056H154.788C154.874 171.293 155.3 172.264 156.068 172.968C156.858 173.672 157.807 174.024 158.916 174.024C159.748 174.024 160.442 173.843 160.996 173.48C161.572 173.096 161.999 172.605 162.276 172.008H166.436C166.138 173.011 165.636 173.928 164.932 174.76C164.25 175.571 163.396 176.211 162.372 176.68C161.37 177.149 160.228 177.384 158.948 177.384ZM158.98 164.072C157.978 164.072 157.092 164.36 156.324 164.936C155.556 165.491 155.066 166.344 154.852 167.496H162.756C162.692 166.451 162.308 165.619 161.604 165C160.9 164.381 160.026 164.072 158.98 164.072ZM170.361 177V161.128H173.977L174.297 163.816C174.788 162.877 175.492 162.131 176.409 161.576C177.348 161.021 178.447 160.744 179.705 160.744C181.668 160.744 183.193 161.363 184.281 162.6C185.369 163.837 185.913 165.651 185.913 168.04V177H181.817V168.424C181.817 167.059 181.54 166.013 180.985 165.288C180.431 164.563 179.567 164.2 178.393 164.2C177.241 164.2 176.292 164.605 175.545 165.416C174.82 166.227 174.457 167.357 174.457 168.808V177H170.361ZM205.071 177.384C203.535 177.384 202.148 177.032 200.911 176.328C199.695 175.624 198.724 174.653 197.999 173.416C197.295 172.157 196.943 170.707 196.943 169.064C196.943 167.421 197.306 165.981 198.031 164.744C198.756 163.485 199.727 162.504 200.943 161.8C202.18 161.096 203.567 160.744 205.103 160.744C206.618 160.744 207.983 161.096 209.199 161.8C210.436 162.504 211.407 163.485 212.111 164.744C212.836 165.981 213.199 167.421 213.199 169.064C213.199 170.707 212.836 172.157 212.111 173.416C211.407 174.653 210.436 175.624 209.199 176.328C207.962 177.032 206.586 177.384 205.071 177.384ZM205.071 173.832C206.138 173.832 207.066 173.437 207.855 172.648C208.644 171.837 209.039 170.643 209.039 169.064C209.039 167.485 208.644 166.301 207.855 165.512C207.066 164.701 206.148 164.296 205.103 164.296C204.015 164.296 203.076 164.701 202.287 165.512C201.519 166.301 201.135 167.485 201.135 169.064C201.135 170.643 201.519 171.837 202.287 172.648C203.076 173.437 204.004 173.832 205.071 173.832ZM216.861 177V161.128H220.477L220.797 163.816C221.288 162.877 221.992 162.131 222.909 161.576C223.848 161.021 224.947 160.744 226.205 160.744C228.168 160.744 229.693 161.363 230.781 162.6C231.869 163.837 232.413 165.651 232.413 168.04V177H228.317V168.424C228.317 167.059 228.04 166.013 227.485 165.288C226.931 164.563 226.067 164.2 224.893 164.2C223.741 164.2 222.792 164.605 222.045 165.416C221.32 166.227 220.957 167.357 220.957 168.808V177H216.861ZM249.427 177.384C248.062 177.384 246.942 177.171 246.067 176.744C245.192 176.296 244.542 175.709 244.115 174.984C243.688 174.259 243.475 173.459 243.475 172.584C243.475 171.112 244.051 169.917 245.203 169C246.355 168.083 248.083 167.624 250.387 167.624H254.419V167.24C254.419 166.152 254.11 165.352 253.491 164.84C252.872 164.328 252.104 164.072 251.187 164.072C250.355 164.072 249.63 164.275 249.011 164.68C248.392 165.064 248.008 165.64 247.859 166.408H243.859C243.966 165.256 244.35 164.253 245.011 163.4C245.694 162.547 246.568 161.896 247.635 161.448C248.702 160.979 249.896 160.744 251.219 160.744C253.48 160.744 255.262 161.309 256.563 162.44C257.864 163.571 258.515 165.171 258.515 167.24V177H255.027L254.643 174.44C254.174 175.293 253.512 175.997 252.659 176.552C251.827 177.107 250.75 177.384 249.427 177.384ZM250.355 174.184C251.528 174.184 252.435 173.8 253.075 173.032C253.736 172.264 254.152 171.315 254.323 170.184H250.835C249.747 170.184 248.968 170.387 248.499 170.792C248.03 171.176 247.795 171.656 247.795 172.232C247.795 172.851 248.03 173.331 248.499 173.672C248.968 174.013 249.587 174.184 250.355 174.184ZM276.609 177.384C275.201 177.384 273.963 177.16 272.897 176.712C271.83 176.243 270.977 175.603 270.337 174.792C269.697 173.981 269.313 173.043 269.185 171.976H273.313C273.441 172.595 273.782 173.128 274.337 173.576C274.913 174.003 275.649 174.216 276.545 174.216C277.441 174.216 278.091 174.035 278.497 173.672C278.923 173.309 279.137 172.893 279.137 172.424C279.137 171.741 278.838 171.283 278.241 171.048C277.643 170.792 276.811 170.547 275.745 170.312C275.062 170.163 274.369 169.981 273.665 169.768C272.961 169.555 272.31 169.288 271.713 168.968C271.137 168.627 270.667 168.2 270.305 167.688C269.942 167.155 269.761 166.504 269.761 165.736C269.761 164.328 270.315 163.144 271.425 162.184C272.555 161.224 274.134 160.744 276.161 160.744C278.038 160.744 279.531 161.181 280.641 162.056C281.771 162.931 282.443 164.136 282.657 165.672H278.785C278.55 164.499 277.665 163.912 276.129 163.912C275.361 163.912 274.763 164.061 274.337 164.36C273.931 164.659 273.729 165.032 273.729 165.48C273.729 165.949 274.038 166.323 274.657 166.6C275.275 166.877 276.097 167.133 277.121 167.368C278.23 167.624 279.243 167.912 280.161 168.232C281.099 168.531 281.846 168.989 282.401 169.608C282.955 170.205 283.233 171.069 283.233 172.2C283.254 173.181 282.998 174.067 282.465 174.856C281.931 175.645 281.163 176.264 280.161 176.712C279.158 177.16 277.974 177.384 276.609 177.384ZM286.861 177V161.128H290.477L290.829 163.272C291.341 162.504 292.013 161.896 292.845 161.448C293.699 160.979 294.68 160.744 295.789 160.744C298.243 160.744 299.981 161.693 301.005 163.592C301.581 162.717 302.349 162.024 303.309 161.512C304.291 161 305.357 160.744 306.509 160.744C308.579 160.744 310.168 161.363 311.277 162.6C312.387 163.837 312.941 165.651 312.941 168.04V177H308.845V168.424C308.845 167.059 308.579 166.013 308.045 165.288C307.533 164.563 306.733 164.2 305.645 164.2C304.536 164.2 303.64 164.605 302.957 165.416C302.296 166.227 301.965 167.357 301.965 168.808V177H297.869V168.424C297.869 167.059 297.603 166.013 297.069 165.288C296.536 164.563 295.715 164.2 294.605 164.2C293.517 164.2 292.632 164.605 291.949 165.416C291.288 166.227 290.957 167.357 290.957 168.808V177H286.861ZM322.302 177.384C320.937 177.384 319.817 177.171 318.942 176.744C318.067 176.296 317.417 175.709 316.99 174.984C316.563 174.259 316.35 173.459 316.35 172.584C316.35 171.112 316.926 169.917 318.078 169C319.23 168.083 320.958 167.624 323.262 167.624H327.294V167.24C327.294 166.152 326.985 165.352 326.366 164.84C325.747 164.328 324.979 164.072 324.062 164.072C323.23 164.072 322.505 164.275 321.886 164.68C321.267 165.064 320.883 165.64 320.734 166.408H316.734C316.841 165.256 317.225 164.253 317.886 163.4C318.569 162.547 319.443 161.896 320.51 161.448C321.577 160.979 322.771 160.744 324.094 160.744C326.355 160.744 328.137 161.309 329.438 162.44C330.739 163.571 331.39 165.171 331.39 167.24V177H327.902L327.518 174.44C327.049 175.293 326.387 175.997 325.534 176.552C324.702 177.107 323.625 177.384 322.302 177.384ZM323.23 174.184C324.403 174.184 325.31 173.8 325.95 173.032C326.611 172.264 327.027 171.315 327.198 170.184H323.71C322.622 170.184 321.843 170.387 321.374 170.792C320.905 171.176 320.67 171.656 320.67 172.232C320.67 172.851 320.905 173.331 321.374 173.672C321.843 174.013 322.462 174.184 323.23 174.184ZM335.299 177V153.96H339.395V177H335.299ZM343.58 177V153.96H347.676V177H343.58ZM359.573 177.384C357.973 177.384 356.555 177.043 355.317 176.36C354.08 175.677 353.109 174.717 352.405 173.48C351.701 172.243 351.349 170.813 351.349 169.192C351.349 167.549 351.691 166.088 352.373 164.808C353.077 163.528 354.037 162.536 355.253 161.832C356.491 161.107 357.941 160.744 359.605 160.744C361.163 160.744 362.539 161.085 363.733 161.768C364.928 162.451 365.856 163.389 366.517 164.584C367.2 165.757 367.541 167.069 367.541 168.52C367.541 168.755 367.531 169 367.509 169.256C367.509 169.512 367.499 169.779 367.477 170.056H355.413C355.499 171.293 355.925 172.264 356.693 172.968C357.483 173.672 358.432 174.024 359.541 174.024C360.373 174.024 361.067 173.843 361.621 173.48C362.197 173.096 362.624 172.605 362.901 172.008H367.061C366.763 173.011 366.261 173.928 365.557 174.76C364.875 175.571 364.021 176.211 362.997 176.68C361.995 177.149 360.853 177.384 359.573 177.384ZM359.605 164.072C358.603 164.072 357.717 164.36 356.949 164.936C356.181 165.491 355.691 166.344 355.477 167.496H363.381C363.317 166.451 362.933 165.619 362.229 165C361.525 164.381 360.651 164.072 359.605 164.072ZM370.986 177V161.128H374.634L375.018 164.104C375.594 163.08 376.373 162.269 377.354 161.672C378.357 161.053 379.53 160.744 380.874 160.744V165.064H379.722C378.826 165.064 378.026 165.203 377.322 165.48C376.618 165.757 376.064 166.237 375.658 166.92C375.274 167.603 375.082 168.552 375.082 169.768V177H370.986ZM395.587 177L389.763 161.128H394.051L398.083 173.128L402.115 161.128H406.403L400.547 177H395.587ZM411.194 158.664C410.448 158.664 409.829 158.44 409.338 157.992C408.869 157.544 408.634 156.979 408.634 156.296C408.634 155.613 408.869 155.059 409.338 154.632C409.829 154.184 410.448 153.96 411.194 153.96C411.941 153.96 412.549 154.184 413.018 154.632C413.509 155.059 413.754 155.613 413.754 156.296C413.754 156.979 413.509 157.544 413.018 157.992C412.549 158.44 411.941 158.664 411.194 158.664ZM409.146 177V161.128H413.242V177H409.146ZM425.23 177.384C423.63 177.384 422.211 177.043 420.974 176.36C419.736 175.677 418.766 174.717 418.062 173.48C417.358 172.243 417.006 170.813 417.006 169.192C417.006 167.549 417.347 166.088 418.03 164.808C418.734 163.528 419.694 162.536 420.91 161.832C422.147 161.107 423.598 160.744 425.262 160.744C426.819 160.744 428.195 161.085 429.39 161.768C430.584 162.451 431.512 163.389 432.174 164.584C432.856 165.757 433.198 167.069 433.198 168.52C433.198 168.755 433.187 169 433.166 169.256C433.166 169.512 433.155 169.779 433.134 170.056H421.07C421.155 171.293 421.582 172.264 422.35 172.968C423.139 173.672 424.088 174.024 425.198 174.024C426.03 174.024 426.723 173.843 427.278 173.48C427.854 173.096 428.28 172.605 428.558 172.008H432.718C432.419 173.011 431.918 173.928 431.214 174.76C430.531 175.571 429.678 176.211 428.654 176.68C427.651 177.149 426.51 177.384 425.23 177.384ZM425.262 164.072C424.259 164.072 423.374 164.36 422.606 164.936C421.838 165.491 421.347 166.344 421.134 167.496H429.038C428.974 166.451 428.59 165.619 427.886 165C427.182 164.381 426.307 164.072 425.262 164.072ZM439.122 177L434.482 161.128H438.546L441.298 172.552L444.498 161.128H449.042L452.242 172.552L455.026 161.128H459.09L454.418 177H450.162L446.77 165.128L443.378 177H439.122ZM461.674 184.04V161.128H465.322L465.77 163.4C466.282 162.696 466.954 162.077 467.786 161.544C468.639 161.011 469.738 160.744 471.082 160.744C472.575 160.744 473.908 161.107 475.082 161.832C476.255 162.557 477.183 163.549 477.866 164.808C478.548 166.067 478.89 167.496 478.89 169.096C478.89 170.696 478.548 172.125 477.866 173.384C477.183 174.621 476.255 175.603 475.082 176.328C473.908 177.032 472.575 177.384 471.082 177.384C469.887 177.384 468.842 177.16 467.946 176.712C467.05 176.264 466.324 175.635 465.77 174.824V184.04H461.674ZM470.218 173.8C471.519 173.8 472.596 173.363 473.45 172.488C474.303 171.613 474.73 170.483 474.73 169.096C474.73 167.709 474.303 166.568 473.45 165.672C472.596 164.776 471.519 164.328 470.218 164.328C468.895 164.328 467.807 164.776 466.954 165.672C466.122 166.547 465.706 167.677 465.706 169.064C465.706 170.451 466.122 171.592 466.954 172.488C467.807 173.363 468.895 173.8 470.218 173.8ZM490.165 177.384C488.629 177.384 487.242 177.032 486.005 176.328C484.789 175.624 483.818 174.653 483.093 173.416C482.389 172.157 482.037 170.707 482.037 169.064C482.037 167.421 482.399 165.981 483.125 164.744C483.85 163.485 484.821 162.504 486.037 161.8C487.274 161.096 488.661 160.744 490.197 160.744C491.711 160.744 493.077 161.096 494.293 161.8C495.53 162.504 496.501 163.485 497.205 164.744C497.93 165.981 498.293 167.421 498.293 169.064C498.293 170.707 497.93 172.157 497.205 173.416C496.501 174.653 495.53 175.624 494.293 176.328C493.055 177.032 491.679 177.384 490.165 177.384ZM490.165 173.832C491.231 173.832 492.159 173.437 492.949 172.648C493.738 171.837 494.133 170.643 494.133 169.064C494.133 167.485 493.738 166.301 492.949 165.512C492.159 164.701 491.242 164.296 490.197 164.296C489.109 164.296 488.17 164.701 487.381 165.512C486.613 166.301 486.229 167.485 486.229 169.064C486.229 170.643 486.613 171.837 487.381 172.648C488.17 173.437 489.098 173.832 490.165 173.832ZM501.955 177V161.128H505.603L505.987 164.104C506.563 163.08 507.342 162.269 508.323 161.672C509.326 161.053 510.499 160.744 511.843 160.744V165.064H510.691C509.795 165.064 508.995 165.203 508.291 165.48C507.587 165.757 507.032 166.237 506.627 166.92C506.243 167.603 506.051 168.552 506.051 169.768V177H501.955ZM521.715 177C520.051 177 518.717 176.595 517.715 175.784C516.712 174.973 516.211 173.533 516.211 171.464V164.552H513.491V161.128H516.211L516.691 156.872H520.307V161.128H524.595V164.552H520.307V171.496C520.307 172.264 520.467 172.797 520.786 173.096C521.128 173.373 521.704 173.512 522.515 173.512H524.499V177H521.715Z" fill="white"/>
<defs>
<linearGradient id="paint0_linear_1532_8098" x1="36.1104" y1="113.22" x2="44.1513" y2="140.962" gradientUnits="userSpaceOnUse">
<stop stop-color="#8D5D14"/>
<stop offset="0.512707" stop-color="#FFD060"/>
<stop offset="1" stop-color="#8D5D14"/>
</linearGradient>
<linearGradient id="paint1_linear_1532_8098" x1="36.1104" y1="113.22" x2="44.1513" y2="140.962" gradientUnits="userSpaceOnUse">
<stop stop-color="#8D5D14"/>
<stop offset="0.512707" stop-color="#FFD060"/>
<stop offset="1" stop-color="#8D5D14"/>
</linearGradient>
<linearGradient id="paint2_linear_1532_8098" x1="-5.80117" y1="-3.59816" x2="164.637" y2="306.565" gradientUnits="userSpaceOnUse">
<stop stop-color="#8D5D14"/>
<stop offset="0.512707" stop-color="#FFD060"/>
<stop offset="1" stop-color="#8D5D14"/>
</linearGradient>
</defs>
</svg>
