<?xml version="1.0" standalone="no"?>
<!DOCTYPE svg PUBLIC "-//W3C//DTD SVG 20010904//EN"
 "http://www.w3.org/TR/2001/REC-SVG-20010904/DTD/svg10.dtd">
<svg version="1.0" xmlns="http://www.w3.org/2000/svg"
 width="1088.000000pt" height="1088.000000pt" viewBox="0 0 1088.000000 1088.000000"
 preserveAspectRatio="xMidYMid meet">
<metadata>
Created by potrace 1.14, written by Peter Selinger 2001-2017
</metadata>
<g transform="translate(0.000000,1088.000000) scale(0.100000,-0.100000)"
fill="#000000" stroke="none">
<path d="M4180 10590 c0 -20 8 -47 17 -60 10 -14 17 -26 16 -27 -3 -4 6 -29
28 -78 9 -22 26 -62 37 -90 22 -57 146 -354 166 -400 8 -16 42 -97 76 -180 34
-82 66 -154 70 -158 7 -8 0 -30 -44 -147 -8 -19 -19 -51 -26 -70 -7 -19 -17
-39 -21 -45 -5 -5 -9 -15 -9 -23 0 -8 -7 -28 -14 -45 -8 -18 -55 -135 -104
-262 -50 -126 -107 -273 -127 -325 -21 -52 -53 -135 -71 -185 -19 -49 -39 -99
-44 -110 -11 -24 -114 -288 -115 -295 0 -3 -29 -77 -64 -165 -35 -88 -79 -200
-98 -250 -39 -102 -45 -118 -64 -160 -7 -16 -13 -33 -15 -37 -1 -5 -3 -10 -4
-13 -1 -3 -3 -8 -5 -12 -1 -5 -7 -21 -13 -36 -7 -16 -12 -31 -12 -34 0 -3 -6
-19 -14 -36 -8 -18 -83 -207 -167 -422 -178 -458 -181 -465 -205 -530 -11 -27
-21 -52 -24 -55 -3 -3 -6 -11 -8 -18 -2 -11 -47 -129 -83 -217 -7 -16 -13 -32
-13 -35 -2 -7 -65 -171 -76 -195 -5 -11 -41 -103 -80 -205 -39 -102 -78 -201
-86 -220 -17 -44 -37 -93 -39 -100 -1 -3 -5 -14 -10 -25 -9 -22 -114 -290
-182 -465 -24 -63 -51 -129 -59 -147 -8 -17 -14 -34 -14 -38 0 -4 -29 -80 -64
-169 -96 -240 -195 -494 -218 -556 -11 -30 -23 -64 -28 -75 -8 -18 -43 -108
-81 -205 -8 -19 -13 -38 -11 -42 1 -5 -2 -8 -8 -8 -5 0 -10 -6 -10 -12 0 -22
-60 -165 -78 -185 -20 -22 -39 -52 -49 -73 -4 -8 -9 -17 -12 -20 -12 -10 -61
-90 -61 -99 0 -5 -3 -11 -8 -13 -4 -1 -23 -28 -42 -58 -19 -30 -38 -59 -42
-65 -23 -31 -98 -149 -98 -155 0 -4 -9 -15 -20 -25 -11 -10 -20 -22 -20 -26 0
-4 -32 -55 -70 -113 -39 -58 -70 -110 -70 -115 0 -5 -4 -11 -10 -13 -14 -4
-29 -63 -21 -77 7 -12 171 -22 171 -11 0 3 39 4 87 2 49 -1 108 -2 133 -2 52
1 51 1 110 1 25 0 53 0 63 0 9 0 37 0 62 0 25 0 51 0 58 0 6 0 32 0 57 0 25 0
53 0 63 0 9 0 37 0 62 0 25 0 51 0 58 0 6 0 32 0 57 0 25 0 53 0 63 0 9 0 37
0 62 0 25 0 51 0 58 0 6 0 32 0 57 0 25 0 54 0 65 0 47 0 121 0 135 0 40 -1
376 0 385 0 9 1 83 0 178 -1 16 0 31 -1 35 -1 4 -1 28 -1 53 0 44 1 46 2 44
30 -2 31 -14 45 -175 191 -58 52 -114 104 -126 115 -12 11 -63 58 -115 105
-51 47 -120 110 -154 140 -33 31 -73 67 -88 80 -16 14 -50 45 -76 70 -26 25
-82 76 -124 114 -50 44 -74 73 -69 80 5 6 21 47 36 91 16 44 34 94 41 110 7
17 29 75 50 130 20 55 41 109 45 120 5 11 23 58 40 105 17 47 35 94 40 105 4
11 22 58 40 105 17 47 38 101 46 120 7 19 15 42 16 50 2 8 5 17 8 20 3 3 11
23 19 45 7 22 19 54 26 70 26 64 80 207 88 235 3 13 189 15 1595 16 l1591 0
40 -100 c38 -99 53 -136 56 -146 1 -3 6 -16 12 -30 6 -14 34 -86 63 -160 28
-74 55 -144 60 -155 4 -11 18 -45 30 -75 12 -30 23 -59 25 -65 1 -5 7 -21 12
-35 6 -14 19 -45 28 -70 9 -25 22 -56 27 -70 6 -14 14 -34 18 -45 5 -11 14
-36 21 -55 8 -19 14 -37 15 -40 0 -3 7 -18 14 -35 7 -16 14 -32 15 -35 10 -30
62 -162 95 -245 18 -44 33 -84 35 -90 1 -5 7 -22 13 -36 6 -15 12 -34 14 -43
3 -16 -75 -101 -384 -420 -65 -66 -118 -122 -118 -123 0 -2 -24 -26 -54 -55
-59 -59 -68 -74 -54 -101 9 -18 11 -19 177 -16 25 0 48 2 52 5 4 2 10 0 14 -6
4 -6 10 -8 14 -6 8 6 76 7 174 5 37 -1 70 0 72 3 2 2 31 1 65 -2 33 -3 60 -3
60 0 0 3 25 3 56 0 30 -3 57 -3 59 0 2 3 31 3 64 0 34 -3 61 -3 61 0 0 3 25 3
56 0 30 -3 57 -3 59 0 2 3 30 3 62 0 32 -3 87 -3 123 0 36 3 81 2 100 -1 19
-3 46 -2 60 1 14 4 36 4 50 0 14 -3 41 -3 60 0 19 3 61 3 93 0 31 -3 57 -3 57
0 0 3 25 3 56 0 30 -3 57 -3 59 0 2 3 31 3 64 0 34 -3 61 -3 61 0 0 3 27 3 60
0 33 -3 60 -2 60 3 0 4 4 6 8 3 9 -5 49 -7 177 -7 135 0 178 2 187 7 4 3 8 2
8 -3 0 -7 212 -7 449 0 75 2 84 4 87 21 2 17 -21 72 -37 86 -3 3 -25 34 -50
70 -24 36 -46 67 -49 70 -3 3 -28 37 -55 75 -27 39 -61 85 -76 104 -16 19 -26
38 -23 43 3 4 1 8 -4 8 -6 0 -26 24 -46 53 -19 28 -55 79 -79 112 -24 34 -62
108 -86 170 -23 61 -56 144 -73 185 -17 41 -31 81 -31 88 0 6 -4 12 -9 12 -4
0 -8 6 -8 12 0 7 -27 83 -61 168 -71 182 -73 188 -87 220 -6 14 -43 108 -82
210 -40 102 -76 194 -81 205 -14 32 -32 79 -34 91 -2 6 -10 27 -18 45 -9 19
-31 75 -51 124 -19 50 -40 104 -47 120 -7 17 -13 32 -14 35 -2 6 -5 14 -52
135 -19 50 -38 99 -43 110 -8 19 -21 54 -25 65 -4 12 -26 67 -34 85 -5 11 -21
52 -36 90 -15 39 -32 81 -38 95 -5 14 -12 34 -14 44 -2 11 -7 24 -12 30 -5 6
-18 38 -30 71 -12 33 -25 69 -30 80 -5 11 -13 31 -18 45 -6 14 -19 45 -29 70
-11 24 -19 47 -19 50 -1 3 -33 88 -73 190 -76 194 -82 209 -100 250 -7 14 -21
52 -33 85 -12 33 -25 65 -30 71 -5 6 -10 19 -12 30 -2 10 -10 33 -17 49 -6 17
-22 57 -35 90 -13 33 -29 74 -36 90 -7 17 -13 32 -14 35 -1 3 -9 22 -18 44 -9
21 -17 42 -17 47 0 5 -4 17 -9 27 -6 9 -21 46 -35 82 -13 36 -30 79 -37 95 -7
17 -13 33 -14 38 -2 4 -4 9 -5 12 -1 3 -3 8 -5 13 -3 11 -16 44 -30 77 -7 17
-21 50 -30 75 -21 57 -29 76 -50 124 -9 21 -18 44 -20 50 -2 10 -17 50 -32 86
-3 8 -7 17 -7 20 -3 14 -105 268 -117 292 -5 10 -9 22 -9 28 0 6 -9 29 -19 53
-11 23 -36 85 -57 137 -20 52 -41 106 -47 120 -6 14 -11 27 -11 30 -1 3 -7 19
-13 35 -19 45 -36 89 -38 95 -2 7 -24 61 -32 80 -3 8 -7 17 -8 20 -4 12 -17
46 -25 65 -11 27 -18 49 -17 55 1 3 -6 19 -15 35 -9 17 -40 91 -68 165 -29 74
-60 153 -70 175 -9 22 -23 58 -30 80 -7 22 -15 45 -19 50 -3 6 -6 12 -7 15 0
3 -6 19 -13 35 -21 52 -82 208 -108 275 -14 36 -29 74 -34 85 -7 16 -108 270
-221 560 -11 28 -23 62 -28 76 -4 15 -15 43 -24 63 -37 84 -56 131 -61 156 -1
3 -9 23 -19 45 -10 22 -27 65 -38 95 -18 47 -35 90 -44 110 -1 3 -5 15 -9 28
-4 12 -12 23 -19 23 -6 1 -422 2 -923 3 l-913 1 0 -35z m765 -1725 c4 -11 8
-24 10 -30 2 -5 17 -44 35 -85 17 -41 33 -82 35 -91 2 -8 12 -35 23 -60 11
-24 25 -60 32 -79 7 -19 18 -48 25 -65 25 -57 56 -143 53 -148 -1 -1 5 -15 15
-32 9 -16 44 -102 77 -190 34 -88 65 -170 70 -182 12 -27 21 -52 45 -113 9
-25 23 -58 30 -75 7 -16 27 -68 45 -115 17 -47 35 -94 40 -105 5 -11 19 -45
30 -75 11 -30 25 -64 29 -75 5 -11 64 -161 131 -334 67 -173 129 -329 136
-347 8 -19 11 -34 8 -34 -4 0 -2 -6 4 -12 5 -7 38 -85 72 -173 34 -88 69 -175
77 -194 8 -18 16 -39 17 -45 1 -6 10 -29 20 -51 10 -22 19 -44 20 -50 5 -28
82 -211 91 -217 5 -4 7 -8 3 -8 -4 0 2 -24 13 -52 35 -87 41 -103 38 -103 -1
0 8 -20 21 -45 13 -25 22 -46 21 -48 -1 -1 20 -60 48 -130 27 -70 51 -134 53
-142 2 -8 6 -17 10 -20 4 -4 10 -20 14 -36 5 -28 4 -30 -23 -28 -54 5 -88 5
-120 1 -18 -2 -33 1 -33 5 0 5 -8 5 -17 1 -21 -10 -153 -9 -177 0 -10 4 -15 3
-12 -1 2 -4 -16 -7 -40 -7 -24 0 -44 3 -44 7 0 4 -8 4 -17 1 -23 -9 -66 -8
-81 1 -7 4 -12 3 -12 -1 0 -10 -46 -10 -56 -1 -3 4 -18 3 -33 -2 -15 -4 -35
-4 -44 1 -8 5 -18 6 -21 1 -3 -5 -20 -7 -38 -5 -39 4 -36 4 -116 1 -35 -2 -66
0 -68 4 -2 3 -17 3 -33 -2 -15 -4 -34 -4 -42 0 -7 5 -18 6 -24 2 -14 -8 -46
-9 -66 0 -8 4 -21 3 -28 -1 -7 -5 -30 -5 -52 -1 -22 4 -41 4 -44 0 -2 -3 -21
-5 -42 -2 -21 2 -42 3 -48 3 -5 0 -38 -2 -73 -3 -34 -2 -62 1 -62 5 0 5 -5 5
-11 2 -15 -10 -129 -11 -129 -2 0 4 -8 3 -19 -2 -10 -6 -20 -8 -23 -6 -5 6
-55 7 -95 2 -18 -2 -33 1 -33 5 0 5 -8 5 -17 1 -22 -10 -54 -10 -70 0 -6 4
-14 4 -17 -1 -3 -5 -22 -7 -43 -4 -21 2 -42 3 -48 3 -5 0 -38 -2 -73 -3 -34
-2 -62 1 -62 5 0 5 -5 5 -11 2 -15 -10 -129 -11 -129 -2 0 4 -8 3 -19 -2 -10
-6 -20 -8 -23 -6 -5 6 -55 7 -95 2 -18 -2 -33 1 -33 5 0 5 -8 5 -17 1 -10 -5
-31 -7 -48 -6 -42 4 -65 4 -102 0 -18 -2 -33 1 -33 5 0 5 -8 5 -17 1 -21 -10
-100 -10 -109 0 -4 3 -14 2 -23 -3 -10 -5 -23 -5 -30 -1 -9 6 0 41 39 147 28
76 67 182 86 234 19 52 38 104 44 115 9 21 90 232 94 250 2 6 8 24 15 40 6 17
19 50 28 75 8 25 21 59 28 75 7 17 20 50 29 75 8 25 36 99 61 165 26 66 51
136 57 155 5 19 14 40 18 45 4 6 17 40 29 77 13 37 27 70 31 73 5 3 7 12 3 20
-3 8 1 15 8 15 7 0 10 2 7 6 -3 3 9 42 26 87 18 45 33 84 34 87 0 3 5 16 10
30 5 14 26 70 46 125 20 55 41 108 47 119 6 10 12 26 14 35 2 9 14 45 28 81
13 36 45 121 71 190 25 69 50 134 55 145 5 11 22 54 36 95 15 41 43 114 61
162 19 49 34 94 34 101 0 7 4 17 8 22 10 11 52 124 53 140 0 6 4 15 9 20 6 8
31 75 35 95 1 3 9 22 18 44 9 21 17 42 17 46 0 4 11 33 25 64 14 32 27 65 29
74 1 9 8 31 15 47 7 17 18 46 25 65 8 19 28 73 46 120 17 47 33 92 35 100 2 8
4 17 5 20 2 6 36 -65 45 -95z"/>
<path d="M2222 1682 c-20 -2 -36 -10 -39 -20 -4 -9 -25 -48 -48 -87 -71 -120
-99 -170 -96 -174 1 -2 -1 -7 -6 -10 -5 -3 -22 -28 -37 -56 -47 -83 -77 -136
-107 -187 -16 -27 -29 -51 -29 -54 0 -2 -12 -23 -26 -45 -14 -23 -37 -62 -51
-87 -31 -55 -56 -100 -75 -133 -7 -13 -15 -26 -18 -29 -3 -3 -11 -16 -18 -30
-6 -14 -20 -38 -30 -55 -25 -43 -76 -133 -102 -180 -12 -22 -33 -59 -47 -82
-25 -42 -24 -74 1 -54 7 6 15 9 18 6 2 -3 22 -5 44 -5 45 0 50 0 162 0 46 0
88 2 93 6 5 3 9 2 9 -3 0 -8 82 -8 104 0 6 2 20 1 31 -3 11 -4 30 -3 43 1 13
5 21 6 19 1 -5 -7 104 -8 119 0 5 2 20 3 34 1 43 -6 281 -4 291 2 5 4 9 3 9
-2 0 -4 21 -7 47 -5 27 2 55 3 63 3 72 -3 183 0 191 5 5 3 9 2 9 -3 0 -8 82
-8 104 0 6 2 20 1 31 -3 11 -4 30 -3 43 1 13 5 21 6 19 1 -5 -7 104 -8 119 0
5 2 20 3 34 1 43 -6 281 -4 291 2 5 4 9 3 9 -2 0 -4 21 -7 47 -5 27 2 55 3 63
3 72 -3 183 0 191 5 5 3 9 2 9 -3 0 -8 82 -8 104 0 6 2 20 1 31 -3 11 -4 30
-3 43 1 13 5 21 6 19 1 -5 -7 104 -8 119 0 5 2 20 3 34 1 43 -6 281 -4 291 2
5 4 9 3 9 -2 0 -4 21 -7 47 -5 27 2 55 3 63 3 72 -3 183 0 191 5 5 3 9 2 9 -3
0 -8 82 -8 104 0 6 2 20 1 31 -3 11 -4 30 -3 43 1 13 5 21 6 19 1 -5 -7 104
-8 119 0 5 2 20 3 34 1 43 -6 281 -4 291 2 5 4 9 3 9 -2 0 -4 21 -7 47 -5 27
2 55 3 63 3 72 -3 183 0 191 5 5 3 9 2 9 -3 0 -8 82 -8 104 0 6 2 20 1 31 -3
11 -4 30 -3 43 1 13 5 21 6 19 1 -5 -7 104 -8 119 0 5 2 20 3 34 1 43 -6 281
-4 291 2 5 4 9 3 9 -2 0 -4 21 -7 47 -5 27 2 55 3 63 3 72 -3 183 0 191 5 5 3
9 2 9 -3 0 -8 82 -8 104 0 6 2 20 1 31 -3 11 -4 30 -3 43 1 13 5 21 6 19 1 -5
-7 104 -8 119 0 5 2 20 3 34 1 43 -6 281 -4 291 2 5 4 9 3 9 -2 0 -4 21 -7 47
-5 27 2 55 3 63 3 72 -3 183 0 191 5 5 3 9 2 9 -3 0 -8 82 -8 104 0 6 2 20 1
31 -3 11 -4 30 -3 43 1 13 5 21 6 19 1 -5 -7 104 -8 119 0 5 2 20 3 34 1 43
-6 281 -4 291 2 5 4 9 3 9 -2 0 -4 21 -7 47 -5 27 2 55 3 63 3 72 -3 183 0
191 5 5 3 9 2 9 -3 0 -8 82 -8 104 0 6 2 20 1 31 -3 11 -4 30 -3 43 1 13 5 21
6 19 1 -5 -7 104 -8 119 0 5 2 20 3 34 1 43 -6 281 -4 291 2 5 4 9 3 9 -2 0
-4 21 -7 47 -5 27 2 55 3 63 3 49 -2 94 0 97 3 3 2 0 12 -6 23 -5 10 -17 35
-26 56 -8 20 -21 52 -29 70 -8 17 -40 93 -71 167 -32 74 -61 141 -65 150 -5 8
-27 60 -50 115 -23 55 -53 124 -66 153 -13 29 -24 55 -24 58 0 3 -10 26 -22
52 -12 26 -21 50 -20 55 1 4 -3 7 -10 7 -6 0 -9 3 -6 6 5 4 -67 179 -127 311
-8 17 -15 37 -15 44 0 7 -3 10 -6 6 -3 -3 -17 -2 -30 3 -14 6 -26 6 -29 -1 -4
-5 -11 -6 -17 -3 -13 8 -96 9 -104 1 -3 -3 -19 -1 -35 3 -16 5 -29 6 -29 2 0
-9 -104 -7 -118 2 -6 3 -13 2 -17 -4 -4 -6 -11 -7 -17 -4 -6 4 -31 6 -57 5
-25 -1 -57 -1 -71 0 -14 0 -32 0 -40 0 -62 -3 -110 -2 -119 3 -5 4 -12 2 -16
-4 -4 -6 -11 -7 -17 -4 -13 8 -96 9 -104 1 -3 -3 -19 -1 -35 3 -16 5 -29 6
-29 2 0 -9 -104 -7 -118 2 -6 3 -13 2 -17 -4 -4 -6 -11 -7 -17 -4 -6 4 -31 6
-57 5 -25 0 -68 -1 -96 -1 -27 0 -56 0 -62 0 -7 0 -19 0 -25 0 -7 0 -31 0 -53
0 -22 0 -63 0 -92 -1 -28 -1 -56 2 -62 5 -5 4 -12 2 -16 -4 -4 -6 -11 -7 -17
-4 -6 4 -31 6 -57 5 -111 -3 -140 -3 -148 2 -5 3 -15 2 -23 -3 -7 -4 -23 -5
-35 0 -12 5 -28 5 -35 0 -7 -4 -26 -4 -41 0 -16 5 -31 5 -34 0 -3 -5 -18 -5
-33 -1 -15 5 -36 5 -47 1 -11 -4 -32 -4 -47 1 -15 4 -30 4 -33 -1 -3 -5 -18
-5 -33 -1 -15 4 -40 4 -57 1 -16 -4 -39 -3 -51 1 -11 4 -27 4 -34 -1 -7 -5
-23 -5 -34 -1 -12 3 -34 5 -51 4 -58 -6 -124 -5 -134 1 -5 4 -12 2 -16 -4 -4
-6 -11 -7 -17 -4 -6 4 -31 6 -57 5 -111 -3 -140 -3 -148 2 -5 3 -15 2 -23 -3
-7 -4 -23 -5 -35 0 -12 5 -28 5 -35 0 -7 -4 -26 -4 -41 0 -16 5 -31 5 -34 0
-3 -5 -18 -5 -33 -1 -15 5 -36 5 -47 1 -11 -4 -32 -4 -47 1 -15 4 -30 4 -33
-1 -3 -5 -18 -5 -33 -1 -15 4 -40 4 -57 1 -16 -4 -39 -3 -51 1 -11 4 -27 4
-34 -1 -7 -5 -23 -5 -34 -1 -12 3 -34 5 -51 4 -58 -6 -124 -5 -134 1 -5 4 -12
2 -16 -4 -4 -6 -11 -7 -17 -4 -6 4 -31 6 -57 5 -25 0 -68 -1 -96 -1 -27 0 -56
0 -62 0 -7 0 -19 0 -25 0 -7 0 -31 0 -53 0 -22 0 -63 0 -92 -1 -28 -1 -56 2
-62 5 -5 4 -12 2 -16 -4 -4 -6 -11 -7 -17 -4 -13 8 -96 9 -104 1 -3 -3 -19 -1
-35 3 -16 5 -29 6 -29 2 0 -9 -104 -7 -118 2 -6 3 -13 2 -17 -4 -4 -6 -11 -7
-17 -4 -6 4 -31 6 -57 5 -25 -1 -57 -1 -71 0 -14 0 -32 0 -40 0 -62 -3 -110
-2 -119 3 -5 4 -12 2 -16 -4 -4 -6 -11 -7 -17 -4 -13 8 -96 9 -104 1 -3 -3
-19 -1 -35 3 -16 5 -29 6 -29 2 0 -9 -104 -7 -118 2 -6 3 -13 2 -17 -4 -4 -6
-11 -7 -17 -4 -6 4 -31 6 -57 5 -25 0 -68 -1 -96 -1 -27 0 -56 0 -62 0 -7 0
-19 0 -25 0 -7 0 -31 0 -53 0 -22 0 -63 0 -92 -1 -28 -1 -56 2 -62 5 -5 4 -12
2 -16 -4 -4 -6 -11 -7 -17 -4 -6 4 -31 6 -57 5 -111 -3 -140 -3 -148 2 -5 3
-15 2 -23 -3 -7 -4 -23 -5 -35 0 -12 5 -28 5 -35 0 -7 -4 -26 -4 -41 0 -16 5
-31 5 -34 0 -3 -5 -18 -5 -33 -1 -15 5 -36 5 -47 1 -11 -4 -32 -4 -47 1 -15 4
-30 4 -33 -1 -3 -5 -18 -5 -33 -1 -15 4 -40 4 -57 1 -16 -4 -39 -3 -51 1 -11
4 -27 4 -34 -1 -7 -5 -23 -5 -34 -1 -12 3 -34 5 -51 4 -58 -6 -124 -5 -134 1
-5 4 -12 2 -16 -4 -4 -6 -11 -7 -17 -4 -6 4 -31 6 -57 5 -111 -3 -140 -3 -148
2 -5 3 -15 2 -23 -3 -7 -4 -23 -5 -34 -1 -12 3 -36 5 -54 3z"/>
</g>
</svg>
